<?xml version="1.0" encoding="utf-8"?>
<!-- Generator: Adobe Illustrator 22.1.0, SVG Export Plug-In . SVG Version: 6.00 Build 0)  -->
<svg version="1.1" id="Layer_1" xmlns="http://www.w3.org/2000/svg" xmlns:xlink="http://www.w3.org/1999/xlink" x="0px" y="0px"
	 viewBox="0 0 1487.8 1574.2" style="enable-background:new 0 0 1487.8 1574.2;" xml:space="preserve">
<style type="text/css">
	.st0{display:none;fill:#F294A9;}
	.st1{fill:#F7BDCD;}
	.st2{fill:#FFFFFF;}
	.st3{fill:#EC668B;}
	.st4{fill:#F294A9;}
	.st5{opacity:0.33;fill:#EC668B;enable-background:new    ;}
	.st6{fill:#F18871;}
	.st7{fill:url(#SVGID_3_);}
	.st8{opacity:0.25;fill:#CA8975;enable-background:new    ;}
	.st9{fill:#CA8975;}
	.st10{fill:url(#SVGID_4_);}
	.st11{fill:#F2928D;}
	.st12{fill:#AF543F;}
	.st13{fill:url(#SVGID_5_);}
	.st14{fill:url(#SVGID_6_);}
	.st15{fill:#F8DBBD;}
	.st16{fill:url(#SVGID_7_);}
	.st17{fill:url(#SVGID_8_);}
	.st18{fill:#46161C;}
	.st19{fill:url(#SVGID_9_);}
	.st20{fill:#872D1D;}
	.st21{fill:url(#SVGID_10_);}
	.st22{fill:#A13324;}
	.st23{opacity:0.75;fill:#D45951;enable-background:new    ;}
	.st24{fill:url(#SVGID_11_);}
	.st25{fill:#FACDBB;}
	.st26{opacity:0.2;fill:#F2928D;enable-background:new    ;}
	.st27{fill:#FCE9D8;}
	.st28{opacity:0.75;fill:#F2928D;enable-background:new    ;}
	.st29{opacity:0.5;}
	.st30{clip-path:url(#SVGID_14_);}
	.st31{clip-path:url(#SVGID_15_);fill:url(#SVGID_16_);}
	.st32{fill:url(#SVGID_17_);}
	.st33{opacity:0.5;fill:#FCE9D8;enable-background:new    ;}
	.st34{fill:#651F1C;}
	.st35{fill:#9F5552;}
	.st36{fill:#020203;}
	.st37{fill:url(#SVGID_18_);}
	.st38{fill:#872926;}
	.st39{fill:url(#SVGID_19_);}
	.st40{fill:#FDF4EB;}
	.st41{fill:#FAE4CE;}
	.st42{fill:#F8D1AE;}
	.st43{opacity:0.75;fill:url(#SVGID_20_);enable-background:new    ;}
	.st44{opacity:0.75;fill:url(#SVGID_21_);enable-background:new    ;}
	.st45{opacity:0.75;fill:url(#SVGID_22_);enable-background:new    ;}
	.st46{opacity:0.75;fill:url(#SVGID_23_);enable-background:new    ;}
	.st47{opacity:0.75;}
	.st48{fill:url(#SVGID_24_);}
	.st49{fill:url(#SVGID_25_);}
	.st50{fill:url(#SVGID_26_);}
	.st51{fill:url(#SVGID_27_);}
	.st52{fill:url(#SVGID_28_);}
	.st53{fill:url(#SVGID_29_);}
	.st54{clip-path:url(#SVGID_32_);}
	.st55{clip-path:url(#SVGID_33_);fill:url(#SVGID_34_);}
	.st56{fill:url(#SVGID_35_);}
</style>
<g>
	<g>
		<rect class="st0" width="1487.8" height="1574.2"/>
		<path class="st1" d="M75.1,978.5C42.7,899,37.9,806.9,71.7,728c-3.5,41,21.3,80.5,54.6,104.7s74.1,35.6,114.3,44.4
			s80.4,17.9,119,32.2c216.5,80.2,177.1,362.3-5.9,313.2C266.9,1199,144.6,1149,75.1,978.5z"/>
		<path class="st2" d="M503.5,1137.5c-189.8-26.6-320.3-91.2-388.3-192.1C43.4,838.9,70,728.9,70.3,727.8c0.3-1,1.3-1.7,2.4-1.4
			s1.7,1.3,1.4,2.4c-0.3,1.1-26.4,109.5,44.4,214.6c67.3,99.9,196.9,163.9,385.2,190.3c1.1,0.2,1.8,1.2,1.7,2.2
			C505.3,1136.8,504.5,1137.5,503.5,1137.5z"/>
		<path class="st2" d="M454.8,1129.5c-0.2,0-0.4,0-0.5-0.1c-1.1-0.3-107.6-32.6-139.9-233.9c-0.2-1.1,0.6-2.1,1.6-2.3
			c1.1-0.1,2.1,0.6,2.3,1.6c31.8,198.7,136,230.4,137.1,230.7c1,0.3,1.7,1.4,1.4,2.4C456.5,1129,455.7,1129.5,454.8,1129.5z"/>
		<path class="st1" d="M591.9,674.2c-4.8-14.1-21.5-44.1-30.8-55.9c-15.8-20.4-33.2-43.9-28.8-69.3c4.3-24.7,27.4-41,48.7-54.2
			s44.6-29,49.7-53.5c7.1-34.5-25.5-65.2-27.2-100.4c-1.2-24,12.2-46.1,27.4-64.7c15.1-18.6,32.8-35.7,43-57.3
			c10.2-21.7,10.8-50.2-6.2-67.1c-15.3-15.2-39.7-16.4-60.9-12.4c-45.6,8.7-86.7,38.3-109.5,78.5c-12.6,22.3-20,47.6-36.3,67.4
			c-16.2,19.6-39.6,31.6-59.9,46.7c-20.4,15.3-39.1,37-38.7,62.3c0.3,21.4,14.3,40.8,14.5,62.1c0.3,32-28.7,55.1-48.6,80.2
			c-38.9,48.9-45.1,121.7-15.8,176.9L591.9,674.2z"/>
		<path class="st2" d="M420.2,700.1c-0.2,0-0.4,0-0.6,0c-1.1-0.1-1.9-1.1-1.7-2.2c3.1-27.2,5.5-53.3,7.7-78.6
			c14.2-157.8,25.4-282.4,192.3-447.2c0.8-0.8,2-0.8,2.8,0c0.8,0.8,0.8,2,0,2.8c-165.9,163.7-177,287.8-191.1,444.7
			c-2.3,25.4-4.6,51.5-7.7,78.7C421.7,699.3,421,699.9,420.2,700.1z"/>
		<path class="st1" d="M1172.7,857.1c6.5-6.7,15-15.7,22-24.3c7.4-8.7,14.2-17.9,20.9-27.2c6.8-9.1,12.5-19.1,18.7-28.4l16.1-29.6
			c20-39.9,32.3-82,36.4-123.6c3.8-41.6,2.3-82.4-9.2-121.9c-3.3-19.7-13-39-19.4-57.9c-1.5-4.8-3.8-9.5-6.4-14.1l-7.2-13.9
			l-14.1-27.6l-3.4-6.6c-25.9-50.8-5.7-113.1,45.2-139c50.9-25.9,113.2-5.7,139.1,45.1c3.5,6.9,6.3,14.6,8.2,21.9l10.7,42.7
			l5.1,21.2c1.8,7,3.4,14.1,4.1,21.6c3.4,29.7,9,58,7.8,88.2c2.4,59-9,118.8-27.8,173.4c-19.1,54.9-48.2,104.8-83.6,147.3
			c-9,10.5-18.3,20.7-27.5,30.8c-10,9.5-19.3,19.4-29.7,28.2c-10.2,9-20.6,17.7-31.5,25.8c-11.1,8.4-21.5,15.6-34.9,23.8
			c-16.1,9.9-37.3,4.9-47.2-11.2c-8.4-13.6-6.1-30.9,4.5-41.9L1172.7,857.1z"/>
		<g>
			<path class="st2" d="M1192.5,886.3c-0.4,0-0.8-0.2-1-0.5c-0.4-0.5-0.2-1.3,0.3-1.6c0.8-0.5,80.5-53.1,132.8-156.2
				c48.2-95.1,82.3-253.8-29.2-470c-0.3-0.6-0.1-1.3,0.5-1.6c0.6-0.3,1.3-0.1,1.6,0.5c49.4,95.8,74.7,188.6,75.2,275.6
				c0.3,69.6-15.1,135.8-46,196.7c-52.6,103.6-132.8,156.5-133.6,157C1193,886.3,1192.8,886.3,1192.5,886.3z"/>
			<path class="st2" d="M1369.9,496.6c-0.5,0-1-0.4-1.1-0.9c-19.4-73.2-127.9-110.6-129-111c-0.6-0.2-1-0.9-0.7-1.5
				c0.2-0.6,0.9-0.9,1.5-0.8c1.1,0.4,110.8,38.2,130.5,112.6c0.2,0.6-0.2,1.3-0.8,1.4C1370.1,496.5,1370,496.6,1369.9,496.6z"/>
			<path class="st2" d="M1352.6,400.2c-0.2,0-0.4,0-0.5-0.1c-0.6-0.3-0.8-1-0.5-1.6s33.2-64.3,28.3-131.5c0-0.6,0.4-1.2,1.1-1.3
				c0.7,0.1,1.2,0.4,1.3,1.1c5,67.8-28.2,132.2-28.6,132.8C1353.5,400,1353.1,400.2,1352.6,400.2z"/>
			<path class="st2" d="M1362,627.7c-0.4,0-0.9-0.3-1.1-0.7c-0.3-0.6,0-1.3,0.6-1.6c0.6-0.3,59.4-28.1,79-90.1
				c0.2-0.6,0.9-0.9,1.5-0.8c0.6,0.2,1,0.9,0.8,1.5c-19.9,63-79.6,91.3-80.3,91.6C1362.3,627.6,1362.2,627.7,1362,627.7z"/>
			<path class="st2" d="M1340.5,697.4c-0.1,0-0.3,0-0.4-0.1c-0.5-0.2-46.6-17-44.7-72.8c0-0.6,0.6-1.2,1.2-1.2
				c0.7,0,1.2,0.6,1.2,1.2c-1.9,54.1,42.6,70.3,43.1,70.5c0.6,0.2,0.9,0.9,0.7,1.5C1341.4,697.1,1340.9,697.4,1340.5,697.4z"/>
		</g>
		<path class="st2" d="M1362.4,875.9l-484.9,484.6H655.1L187.2,893.1c-16.1-16.1-16.1-41.9,0-57.7l567.2-566.8
			c16.1-15.9,41.9-15.9,58,0l550,549.6C1378.5,834.1,1378.5,860,1362.4,875.9z"/>
		<g>
			<g>
				<path class="st1" d="M677.5,1460.2l-36.3-0.2c-7.8-0.1-10.2-6.4-10.1-14.2v-32.7c0.1-7.8,6.4-14,14.2-14l32.7,0.2
					c7.8,0.1,14,6.4,14,14.2l-0.2,32.7C691.6,1454,685.2,1460.3,677.5,1460.2z"/>
				<path class="st1" d="M819.6,1461.2l-55.2-0.4c-1.6,0-2.8-1.3-2.8-2.8l0.4-55.1c0-1.6,1.3-2.8,2.8-2.8l55.2,0.4
					c1.6,0,2.8,1.3,2.8,2.8l-0.4,55.1C822.4,1460,821.1,1461.3,819.6,1461.2z"/>
				<path class="st1" d="M931.4,1462.1l-32.7-0.2c-7.8-0.1-14-6.4-14-14.2l0.2-32.7c0.1-7.8,6.4-14,14.2-14l32.7,0.2
					c7.8,0.1,14,6.4,14,14.2l-0.2,32.7C945.6,1455.9,939.2,1462.1,931.4,1462.1z"/>
			</g>
			<g>
				<g>
					<path class="st1" d="M693,1548.8l-57.3-0.4c-1,0-1.8-0.8-1.8-1.8l0.4-57.2c0-1,0.8-1.8,1.8-1.8l57.3,0.4c1,0,1.8,0.8,1.8,1.8
						l-0.4,57.2C694.8,1548,694,1548.8,693,1548.8z"/>
					<path class="st1" d="M816.1,1549.8l-57.3-0.4c-1,0-1.8-0.8-1.8-1.8l0.4-57.2c0-1,0.8-1.8,1.8-1.8l57.3,0.4c1,0,1.8,0.8,1.8,1.8
						l-0.4,57.2C817.9,1549,817.1,1549.8,816.1,1549.8z"/>
					<path class="st1" d="M930.8,1550.6l-32.7-0.2c-7.8-0.1-14-6.4-14-14.2l0.2-32.7c0.1-7.8,6.4-14,14.2-14l32.7,0.2
						c7.8,0.1,14,6.4,14,14.2l-0.2,32.7C944.9,1544.4,938.6,1550.6,930.8,1550.6z"/>
				</g>
			</g>
		</g>
		<g>
			<g>
				<path class="st2" d="M698.1,1450.6c-0.1,0-32.8-0.2-32.8-0.2c-4.3,0-8.3-1.7-11.3-4.8c-3-3.1-4.6-7.1-4.6-11.4l0.2-32.7
					c0.1-8.8,7.3-15.9,16-15.9c0.1,0,32.8,0.2,32.8,0.2c8.8,0.1,16,7.3,15.9,16.2l-0.2,32.7c0,4.3-1.7,8.3-4.8,11.3
					C706.3,1449,702.3,1450.6,698.1,1450.6z M698,1446.7c3.3,0,6.3-1.2,8.6-3.5s3.6-5.3,3.6-8.5l0.2-32.7c0-6.7-5.3-12.1-12-12.2
					l-32.7-0.2c-6.7,0-12.1,5.4-12.2,12l-0.2,32.7c0,3.2,1.2,6.3,3.5,8.6c2.3,2.3,5.3,3.6,8.5,3.6L698,1446.7z"/>
				<path class="st2" d="M825.1,1451.6c-0.1,0-32.8-0.2-32.8-0.2c-8.8-0.1-16-7.3-15.9-16.2l0.2-32.7c0.1-8.8,7.2-15.9,16-15.9
					c0.1,0,32.8,0.2,32.8,0.2c4.3,0,8.3,1.7,11.3,4.8c3,3,4.6,7.1,4.6,11.4l-0.2,32.7c0,4.3-1.7,8.3-4.8,11.3
					C833.3,1449.9,829.3,1451.6,825.1,1451.6z M792.6,1390.6c-6.6,0-12.1,5.4-12.1,12l-0.2,32.7c0,6.7,5.3,12.1,12,12.2l32.7,0.2
					c3.3,0,6.3-1.2,8.6-3.5s3.6-5.3,3.6-8.5l0.2-32.7c0-3.2-1.2-6.3-3.5-8.6c-2.3-2.3-5.3-3.6-8.5-3.6L792.6,1390.6
					C792.7,1390.6,792.6,1390.6,792.6,1390.6z"/>
				<path class="st2" d="M952.1,1452.5c-0.1,0-32.8-0.2-32.8-0.2c-4.3,0-8.3-1.7-11.3-4.8c-3-3-4.6-7.1-4.6-11.4l0.2-32.7
					c0-4.3,1.7-8.3,4.8-11.3c3-3,7.2-4.8,11.4-4.6l32.7,0.2c4.3,0,8.3,1.7,11.3,4.8c3,3.1,4.6,7.1,4.6,11.4l-0.2,32.7
					c0,4.3-1.7,8.3-4.8,11.3C960.3,1450.8,956.3,1452.5,952.1,1452.5z M952,1448.5c6.7,0,12.1-5.4,12.2-12l0.2-32.7
					c0-3.2-1.2-6.3-3.5-8.6c-2.3-2.3-5.3-3.6-8.5-3.6l-32.7-0.2c-3.3,0-6.3,1.2-8.6,3.5s-3.6,5.3-3.6,8.5l-0.2,32.7
					c0,6.7,5.3,12.1,12,12.2L952,1448.5z"/>
			</g>
			<g>
				<path class="st2" d="M697.4,1539.2c-0.1,0-32.8-0.2-32.8-0.2c-4.3,0-8.3-1.7-11.3-4.8c-3-3.1-4.6-7.1-4.6-11.4l0.2-32.7
					c0-4.3,1.7-8.3,4.8-11.3c3-3,7-4.6,11.2-4.6c0.1,0,32.8,0.2,32.8,0.2c8.8,0.1,16,7.3,15.9,16.2l-0.2,32.7
					C713.4,1532,706.2,1539.2,697.4,1539.2z M697.3,1535.2c6.7,0,12.1-5.4,12.2-12l0.2-32.7c0.1-6.7-5.3-12.1-12-12.2l-32.7-0.2
					c-3.3,0-6.3,1.2-8.6,3.5s-3.6,5.3-3.6,8.5l-0.2,32.7c0,6.7,5.3,12.1,12,12.2L697.3,1535.2z"/>
				<path class="st2" d="M824.4,1540.1c-0.1,0-32.8-0.2-32.8-0.2c-8.8-0.1-16-7.3-15.9-16.2l0.2-32.7c0.1-8.8,7.3-15.9,16-15.9
					c0.1,0,32.8,0.2,32.8,0.2c4.3,0,8.3,1.7,11.3,4.8c3,3.1,4.6,7.1,4.6,11.4l-0.2,32.7C840.4,1532.9,833.2,1540.1,824.4,1540.1z
					 M792,1479.1c-6.6,0-12.1,5.4-12.1,12l-0.2,32.7c-0.1,6.7,5.3,12.1,12,12.2l32.7,0.2c3.3,0,6.3-1.2,8.6-3.5s3.6-5.3,3.6-8.5
					l0.2-32.7c0-3.2-1.2-6.3-3.5-8.6c-2.3-2.3-5.3-3.6-8.5-3.6L792,1479.1L792,1479.1z"/>
				<path class="st2" d="M951.4,1541c-0.1,0-32.8-0.2-32.8-0.2c-4.3,0-8.3-1.7-11.3-4.8c-3-3.1-4.6-7.1-4.6-11.4l0.2-32.7
					c0.1-8.8,7.3-15.9,16-15.9c0.1,0,32.8,0.2,32.8,0.2c8.8,0.1,16,7.3,15.9,16.2l-0.2,32.7c0,4.3-1.7,8.3-4.8,11.3
					C959.6,1539.4,955.7,1541,951.4,1541z M951.3,1537.1c3.2-0.1,6.3-1.2,8.6-3.5s3.6-5.3,3.6-8.5l0.2-32.7c0-6.7-5.3-12.1-12-12.2
					l-32.7-0.2c-6.7,0-12.1,5.4-12.2,12l-0.2,32.7c0,3.2,1.2,6.3,3.5,8.6c2.3,2.3,5.3,3.6,8.5,3.6L951.3,1537.1z"/>
			</g>
		</g>
		<path class="st1" d="M1061.8,280.4l-137.2-73.8c-1.4-0.7-1.9-2.4-1.1-3.8l73.9-137c0.7-1.4,2.4-1.9,3.8-1.1l137.2,73.8
			c1.4,0.7,1.9,2.4,1.1,3.8l-73.9,137C1064.8,280.6,1063.1,281.1,1061.8,280.4z"/>
		<g>
			<g>
				<path class="st2" d="M951.2,115.5c-4.1,1.2-8.6,0.9-12.6-1.1l-28.7-14.7c-4-2.1-7-5.6-8.4-9.9c-1.4-4.3-1-8.9,1-12.9l14.7-28.7
					c2.1-4,5.6-7,9.9-8.4c4.6-1.4,9-1,12.9,1.1l28.7,14.7c8.3,4.3,11.6,14.5,7.4,22.8l-14.7,28.7
					C959.3,111.3,955.5,114.2,951.2,115.5z M941.4,108.9c5.3,2.7,11.8,0.6,14.6-4.7l14.7-28.7c2.7-5.3,0.6-11.8-4.7-14.6l-28.7-14.7
					c-2.6-1.3-5.2-1.3-8.3-0.7c-2.7,0.9-5,2.8-6.3,5.4L908,79.6c-1.3,2.6-1.6,5.5-0.7,8.2c0.9,2.8,2.8,5,5.3,6.3L941.4,108.9z"/>
				<path class="st2" d="M1062.8,172.6c-4.2,1.3-8.7,0.9-12.6-1.2l-28.7-14.7c-8.3-4.3-11.6-14.5-7.4-22.8l14.7-28.7
					c4.3-8.3,14.5-11.6,22.8-7.4l28.7,14.7c4,2.1,7,5.6,8.4,9.9c1.4,4.3,1,8.9-1,12.9L1073,164c-2.1,4-5.6,7-9.9,8.4
					C1063,172.5,1062.9,172.5,1062.8,172.6z M1040.8,102.6c-2.7,0.8-5.1,2.7-6.5,5.4l-14.7,28.7c-2.7,5.3-0.6,11.8,4.7,14.6
					l28.7,14.7c2.6,1.3,5.7,1.4,8.3,0.7c2.7-0.9,5-2.8,6.3-5.4l14.7-28.7c1.3-2.6,1.6-5.5,0.7-8.2c-0.9-2.8-2.8-5-5.4-6.3
					l-28.7-14.7C1046.3,102,1043.4,101.8,1040.8,102.6z"/>
				<path class="st2" d="M1174.3,229.6c-4,1.2-8.5,0.9-12.6-1.1l-28.7-14.8c-8.3-4.3-11.6-14.5-7.4-22.8l14.7-28.7
					c2.1-4,5.6-7,9.9-8.4c4.5-1.4,8.9-1,12.9,1.1l28.7,14.7c8.3,4.3,11.6,14.5,7.4,22.8l-14.7,28.7
					C1182.4,225.4,1178.6,228.3,1174.3,229.6z M1164.5,223c5.3,2.7,11.9,0.6,14.6-4.7l14.7-28.7c2.7-5.3,0.6-11.8-4.7-14.6
					l-28.7-14.7c-2.6-1.3-5.3-1.4-8.3-0.7c-2.7,0.9-5,2.8-6.3,5.4l-14.7,28.7c-2.7,5.3-0.6,11.8,4.7,14.5L1164.5,223z"/>
			</g>
			<g>
				<path class="st2" d="M911.3,193.2c-4.2,1.3-8.7,0.9-12.6-1.2L870,177.4c-8.3-4.3-11.6-14.5-7.4-22.8l14.7-28.7
					c4.3-8.3,14.5-11.6,22.8-7.4l28.7,14.7c4,2.1,7,5.6,8.4,9.9s1,8.9-1,12.9l-14.7,28.7c-2.1,4-5.6,7-9.9,8.4
					C911.6,193.2,911.5,193.2,911.3,193.2z M889.4,123.3c-2.7,0.8-5.1,2.7-6.5,5.4l-14.7,28.7c-2.7,5.3-0.6,11.8,4.7,14.6l28.7,14.7
					c2.6,1.3,5.5,1.6,8.3,0.7c2.7-0.9,5-2.8,6.3-5.4l14.7-28.7c1.3-2.6,1.5-5.5,0.7-8.2c-0.9-2.7-2.8-5-5.3-6.3l-28.7-14.7
					C894.8,122.7,891.9,122.5,889.4,123.3z"/>
				<path class="st2" d="M1022.9,250.3c-4,1.2-8.5,0.9-12.6-1.1l-28.7-14.7c-8.3-4.3-11.6-14.5-7.4-22.8l14.7-28.7
					c4.3-8.3,14.5-11.6,22.8-7.4l28.7,14.7c8.3,4.3,11.6,14.5,7.4,22.8l-14.7,28.7C1030.9,246,1027.2,249,1022.9,250.3z
					 M1013.1,243.7c5.3,2.7,11.8,0.6,14.6-4.7l14.7-28.7c2.7-5.3,0.6-11.8-4.7-14.6l-28.7-14.7c-5.3-2.7-11.8-0.6-14.5,4.7
					l-14.7,28.7c-2.7,5.3-0.6,11.8,4.7,14.5L1013.1,243.7z"/>
				<path class="st2" d="M1134.5,307.4c-4.2,1.3-8.7,0.9-12.6-1.2l-28.7-14.7c-4-2.1-7-5.6-8.4-9.9c-1.4-4.3-1-8.9,1.1-12.9
					l14.7-28.7c4.3-8.3,14.5-11.6,22.8-7.4l28.7,14.7c4,2.1,7,5.6,8.4,9.9c1.4,4.3,1,8.9-1,12.9l-14.7,28.7c-2.1,4-5.6,7-9.9,8.4
					C1134.7,307.4,1134.6,307.4,1134.5,307.4z M1112.5,237.4c-2.7,0.8-5.1,2.7-6.5,5.4l-14.7,28.7c-1.3,2.6-1.6,5.5-0.7,8.3
					c0.9,2.7,2.8,5,5.4,6.3l28.7,14.7c2.5,1.3,5.3,1.5,8,0.7c3-1,5.2-2.9,6.5-5.4l14.7-28.7c1.3-2.6,1.5-5.5,0.7-8.3
					c-0.9-2.7-2.8-5-5.3-6.3l-28.7-14.7C1118,236.8,1115.1,236.6,1112.5,237.4z"/>
			</g>
		</g>
	</g>
	<g>
		<g>
			<g>
				<rect x="304.6" y="1151" class="st3" width="886.9" height="206.9"/>
				<rect x="315.9" y="1165.4" class="st4" width="864.3" height="170.3"/>
				<g>
					<g>
						<polygon class="st1" points="370.2,1335.7 344.6,1335.7 357.4,1326.6 						"/>
						<polygon class="st1" points="394.3,1284.6 357.4,1310.7 320.4,1284.6 357.4,1258.5 						"/>
						<polygon class="st1" points="394.3,1216.4 357.4,1242.6 320.4,1216.4 357.4,1190.4 						"/>
						<polygon class="st1" points="370.2,1165.4 357.4,1174.5 344.6,1165.4 						"/>
					</g>
					<g>
						<polygon class="st1" points="457,1335.7 431.4,1335.7 444.2,1326.6 						"/>
						<polygon class="st1" points="481.1,1284.6 444.2,1310.7 407.3,1284.6 444.2,1258.5 						"/>
						<polygon class="st1" points="481.1,1216.4 444.2,1242.6 407.3,1216.4 444.2,1190.4 						"/>
						<polygon class="st1" points="457,1165.4 444.2,1174.5 431.4,1165.4 						"/>
					</g>
					<g>
						<polygon class="st1" points="543.8,1335.7 518.2,1335.7 531,1326.6 						"/>
						<polygon class="st1" points="567.9,1284.6 531,1310.7 494.1,1284.6 531,1258.5 						"/>
						<polygon class="st1" points="567.9,1216.4 531,1242.6 494.1,1216.4 531,1190.4 						"/>
						<polygon class="st1" points="543.8,1165.4 531,1174.5 518.2,1165.4 						"/>
					</g>
					<g>
						<polygon class="st1" points="630.6,1335.7 605,1335.7 617.8,1326.6 						"/>
						<polygon class="st1" points="654.8,1284.6 617.8,1310.7 580.9,1284.6 617.8,1258.5 						"/>
						<polygon class="st1" points="654.8,1216.4 617.8,1242.6 580.9,1216.4 617.8,1190.4 						"/>
						<polygon class="st1" points="630.6,1165.4 617.8,1174.5 605,1165.4 						"/>
					</g>
					<g>
						<polygon class="st1" points="717.4,1335.7 691.8,1335.7 704.6,1326.6 						"/>
						<polygon class="st1" points="741.6,1284.6 704.6,1310.7 667.7,1284.6 704.6,1258.5 						"/>
						<polygon class="st1" points="741.6,1216.4 704.6,1242.6 667.7,1216.4 704.6,1190.4 						"/>
						<polygon class="st1" points="717.4,1165.4 704.6,1174.5 691.9,1165.4 						"/>
					</g>
					<g>
						<polygon class="st1" points="804.2,1335.7 778.7,1335.7 791.5,1326.6 						"/>
						<polygon class="st1" points="828.4,1284.6 791.5,1310.7 754.5,1284.6 791.5,1258.5 						"/>
						<polygon class="st1" points="828.4,1216.4 791.5,1242.6 754.5,1216.4 791.5,1190.4 						"/>
						<polygon class="st1" points="804.2,1165.4 791.5,1174.5 778.7,1165.4 						"/>
					</g>
					<g>
						<polygon class="st1" points="891.1,1335.7 865.5,1335.7 878.3,1326.6 						"/>
						<polygon class="st1" points="915.2,1284.6 878.3,1310.7 841.3,1284.6 878.3,1258.5 						"/>
						<polygon class="st1" points="915.2,1216.4 878.3,1242.6 841.3,1216.4 878.3,1190.4 						"/>
						<polygon class="st1" points="891.1,1165.4 878.3,1174.5 865.5,1165.4 						"/>
					</g>
					<g>
						<polygon class="st1" points="977.9,1335.7 952.3,1335.7 965.1,1326.6 						"/>
						<polygon class="st1" points="1002,1284.6 965.1,1310.7 928.1,1284.6 965.1,1258.5 						"/>
						<polygon class="st1" points="1002,1216.4 965.1,1242.6 928.1,1216.4 965.1,1190.4 						"/>
						<polygon class="st1" points="977.9,1165.4 965.1,1174.5 952.3,1165.4 						"/>
					</g>
					<g>
						<polygon class="st1" points="1064.7,1335.7 1039.1,1335.7 1051.9,1326.6 						"/>
						<polygon class="st1" points="1088.8,1284.6 1051.9,1310.7 1015,1284.6 1051.9,1258.5 						"/>
						<polygon class="st1" points="1088.8,1216.4 1051.9,1242.6 1015,1216.4 1051.9,1190.4 						"/>
						<polygon class="st1" points="1064.7,1165.4 1051.9,1174.5 1039.1,1165.4 						"/>
					</g>
					<g>
						<polygon class="st1" points="1151.5,1335.7 1125.9,1335.7 1138.7,1326.6 						"/>
						<polygon class="st1" points="1175.7,1284.6 1138.7,1310.7 1101.8,1284.6 1138.7,1258.5 						"/>
						<polygon class="st1" points="1175.7,1216.4 1138.7,1242.6 1101.8,1216.4 1138.7,1190.4 						"/>
						<polygon class="st1" points="1151.5,1165.4 1138.7,1174.5 1125.9,1165.4 						"/>
					</g>
				</g>
			</g>
			<path class="st5" d="M1157.5,1289.9c0,22.9-183.5,41.4-409.8,41.4s-409.8-18.5-409.8-41.4c0-22.9,183.5-41.4,409.8-41.4
				S1157.5,1267,1157.5,1289.9z"/>
			<g>
				<g>
					<g>
						<path class="st6" d="M1010.7,1283.1c-1.8-0.1-3.8,0.5-5.7,1.6c-2.8,1.6-1.3,4.8-1.3,4.8l13.8,0.3l-1.5-3.1
							c2.4-0.2,5.1-0.1,5.2-0.1c0.2,0,4.6-0.7,7.2-5.9C1019.5,1283.4,1010.7,1283.1,1010.7,1283.1z"/>
						<path class="st6" d="M1119.5,1207.8c-0.4-2.9-1.1-5.7-2.1-8c-1.1-2.3-2.6-4.3-4.6-5.6c-8.5-5.6-18.6-7.4-28.4-5.5
							c-3.7,0.7-15.7,1.7-21.7,2.5l-4.3,62.5c0,0-18.4,24-44.1,31.2c0,0-19.9-0.2-17.4,9.7c11,0.3,23.6,0.3,23.7,0.3h50.3
							c6.7,0,18.4-4.4,20.4-10.8c6.5-21.3,10.4-37.3,18.6-46.2C1117.2,1229.6,1121,1218.7,1119.5,1207.8z"/>
						
							<linearGradient id="SVGID_3_" gradientUnits="userSpaceOnUse" x1="626.5314" y1="184.4413" x2="1032.5" y2="184.4413" gradientTransform="matrix(1 0 0 -1 0 1348.4968)">
							<stop  offset="1.117320e-02" style="stop-color:#EDBD9F"/>
							<stop  offset="1" style="stop-color:#F7D5AD"/>
						</linearGradient>
						<path class="st7" d="M897.1,1036.6c0,0-210.6,63.8-259.7,131.4c-7.4,10.2-10.3,22.6-10.8,34.9c-1.1,28.6,11.1,56.1,32.4,75.2
							c11.8,10.6,27.8,15.3,43.5,12.7l62.3-10.3L994,1152.2l38.5-65l-30.2-50L897.1,1036.6z"/>
						<path class="st8" d="M897.1,1036.6c0,0-210.6,63.8-259.7,131.4c-7.4,10.2-10.3,22.6-10.8,34.9c-1.1,28.6,11.1,56.1,32.4,75.2
							c11.8,10.6,27.8,15.3,43.5,12.7l62.3-10.3L994,1152.2l38.5-65l-30.2-50L897.1,1036.6z"/>
						<path class="st9" d="M828.2,707c0,0-13,35.3-14.1,46.9c-8.4,86.6-12.3,194.3-12.3,194.3l81.5,17.2l19.8-239.2L828.2,707z"/>
						<path class="st9" d="M901.5,618.9c0,0.1-0.3,1.5-1,3.8l-2.6-3.7C899.8,618.8,901.5,618.9,901.5,618.9z"/>
						
							<linearGradient id="SVGID_4_" gradientUnits="userSpaceOnUse" x1="1034.3123" y1="107.0937" x2="1157.5233" y2="107.0937" gradientTransform="matrix(1 0 0 -1 0 1348.4968)">
							<stop  offset="1.117320e-02" style="stop-color:#F8BC9F"/>
							<stop  offset="1" style="stop-color:#F49E7E"/>
						</linearGradient>
						<path class="st10" d="M1157.2,1207.8c-0.4-2.9-1.1-5.7-2.2-8s-2.6-4.3-4.6-5.6c-8.5-5.6-18.6-7.4-28.3-5.5
							c-3.7,0.7-15.7,1.7-21.7,2.5l-4.3,62.5c0,0-16.9,24-42.6,31.2c0,0-21.4-0.2-19,9.7c11,0.3,23.6,0.3,23.7,0.3h50.3
							c6.6,0,18.4-4.4,20.4-10.8c6.5-21.3,10.4-37.3,18.6-46.2C1154.9,1229.6,1158.7,1218.7,1157.2,1207.8z"/>
						<g>
							<path class="st11" d="M579,1000.2l-29.6,41.7c-0.7,1-0.5,2.5,0.6,3.2c1,0.6,2.2,0.5,3.1-0.3l23.7-22.6
								c0.7,2.5,2.5,4.2,4.8,4.8l0.3,0.9c0.7,2.3,2.8,4,5.2,4.1c0,0,2-11.9,2.1-12.4s0-13.5,0-13.5L579,1000.2z"/>
							<path class="st12" d="M658.4,996.6c-0.2,3.1-0.8,6.5-1.9,10.2c-0.8,2.8-1.4,5.6-1.9,8.4c-3.1,16.8-2,31.6-9.5,32.2
								c-8.7,0-19.5-15.2-22-33c-0.4-2.5-0.6-5-0.6-7.6c0-13.5,3.2-25.3,8-31.9c2.4-3.3,5.1-5.3,8-5.7c0.3-0.1,0.7-0.1,1-0.1
								c2.6,0,5.7,0.9,8.6,2.9c5.1,3.3,9.6,9.7,10.3,19.3C658.6,992.9,658.6,994.7,658.4,996.6z"/>
							<path class="st11" d="M610.8,980.9l-29.6,30.6l11.7,23.2l3.6-2.2c13.1-2.8,22.2-12,27.4-24.3L610.8,980.9z"/>
							<path class="st9" d="M734.7,954l-96.1,15c0.3,0,0.6,0,1,0c2.6,0,5.7,0.9,8.6,2.9c0.3,0.2,0.7,0.5,1,0.7
								c0.1,0.1,0.2,0.2,0.3,0.3c0.2,0.2,0.5,0.4,0.7,0.6c0.1,0.1,0.2,0.2,0.4,0.3c0.2,0.2,0.4,0.4,0.6,0.6c0.1,0.1,0.2,0.2,0.4,0.4
								c0.2,0.2,0.4,0.4,0.6,0.7c0.1,0.1,0.2,0.2,0.3,0.4c0.2,0.3,0.5,0.6,0.7,0.8c0.5,0.7,0.8,1.1,1.1,1.5c0.4,0.6,0.6,0.9,0.8,1.3
								c0.1,0.1,0.2,0.3,0.2,0.4c0.2,0.3,0.3,0.6,0.5,1c0.1,0.2,0.2,0.3,0.2,0.5c0.1,0.3,0.3,0.7,0.4,1c0.1,0.2,0.1,0.3,0.2,0.5
								c0.1,0.4,0.3,0.8,0.4,1.2c0.1,0.1,0.1,0.3,0.1,0.4c0.3,1.1,0.6,2.3,0.8,3.5c0,0.2,0,0.3,0.1,0.5c0.1,0.4,0.1,0.9,0.2,1.4
								c0,0.2,0,0.5,0.1,0.7c0.2,1.9,0.2,4,0,6.2c-0.1,0.7-0.1,1.4-0.2,2.2c-0.1,1-0.3,1.7-0.4,2.4c-0.2,1-0.3,1.8-0.5,2.5
								c0,0.2-0.1,0.3-0.1,0.5c-0.2,0.8-0.4,1.6-0.6,2.4c-0.8,2.8-1.4,5.6-1.9,8.4c-3.1,16.8-2,31.6-9.5,32.2
								c11.1-0.5,214.7-10.2,240-40.4C837.2,995.9,778.8,974.7,734.7,954z"/>
							<path class="st11" d="M578.2,1026.2l-0.9-0.7c-1.3-1-1.4-2.9-0.3-4l3-3.1c0.9-1,2.5-1.1,3.5-0.3c1.1,0.8,1.4,2.3,0.7,3.5
								l-2.1,3.8C581.4,1026.8,579.5,1027.2,578.2,1026.2z"/>
							<path class="st11" d="M582.1,1030.8l-1.1-0.8c-1.2-1-1.4-2.8-0.3-3.9l4.1-4.2c0.9-1,2.4-1.1,3.5-0.3c1.1,0.8,1.3,2.3,0.6,3.4
								l-3,5C585.1,1031.5,583.3,1031.8,582.1,1030.8z"/>
							<path class="st11" d="M586.2,1033.6l-0.9-0.7c-1.3-1-1.4-2.9-0.2-4l3-2.9c1-0.9,2.5-1,3.5-0.2c1,0.8,1.3,2.3,0.6,3.5
								l-2.1,3.5C589.4,1034.3,587.5,1034.6,586.2,1033.6z"/>
							<path class="st11" d="M591.3,1035.7l-0.8-0.6c-1.1-0.9-1.2-2.5-0.2-3.5l2.8-2.8c0.8-0.8,2.1-0.9,3.1-0.2c0.9,0.7,1.2,2,0.6,3
								l-2,3.4C594,1036.3,592.4,1036.6,591.3,1035.7z"/>
							
								<linearGradient id="SVGID_5_" gradientUnits="userSpaceOnUse" x1="578.7416" y1="348.7589" x2="658.5245" y2="348.7589" gradientTransform="matrix(1 0 0 -1 0 1348.4968)">
								<stop  offset="1.117320e-02" style="stop-color:#F8BC9F"/>
								<stop  offset="1" style="stop-color:#F49E7E"/>
							</linearGradient>
							<path class="st13" d="M656.6,1006.7c-0.1,0.5-0.3,1-0.4,1.4l-39.1-0.5h-3.3c-0.1,0-0.3,0-0.4,0.1c-8.1,4.2-16.5,1.2-19.2,0
								c-0.5-0.2-1,0-1.2,0.5l-3.6,11.1c-0.1,0.4,0,0.8,0.3,1l3,2.1l3.6,2.5c0.2,0.2,0.4,0.4,0.4,0.7c-0.4,1.5-1.8,2.3-3,1.9
								l-1.5-0.5c-0.1,0-11.4-4.7-11.4-4.7c-0.3-0.1-0.5-0.3-0.5-0.6c-1.5-7-2-13.6-1.4-21.3c0-0.2,0.1-0.3,0.2-0.5
								c4.2-5.8,15.5-12.1,23.4-16c4.6-2.3,9.5-3.9,14.5-5c6.5-1.4,15.8-3.6,22.8-5.3c3.4-0.8,6.3-1.4,8-1.7c0.2,0,0.5,0,0.7,0.1
								C655.8,977.1,661.8,988.3,656.6,1006.7z"/>
						</g>
						
							<linearGradient id="SVGID_6_" gradientUnits="userSpaceOnUse" x1="651.7935" y1="401.8307" x2="1121.0099" y2="401.8307" gradientTransform="matrix(1 0 0 -1 0 1348.4968)">
							<stop  offset="1.117320e-02" style="stop-color:#EDBD9F"/>
							<stop  offset="1" style="stop-color:#F7D5AD"/>
						</linearGradient>
						<path class="st14" d="M1120.9,1121.9c-1.2,24.9-5.5,40.7-9.8,50.4c-5.2,11.7-10.4,15-10.4,15s-0.3,0.1-0.9,0.4
							c-0.9,0.4-1.8,0.7-2.8,1.1c-0.3,0.1-0.7,0.3-1.1,0.4c-1.5,0.6-3.3,1.3-5.3,2.1c-0.6,0.2-1.2,0.5-1.8,0.7
							c-1.2,0.5-2.2,0.8-3.3,1.2c-1.9,0.7-4,1.5-6.3,2.3c-0.8,0.3-1.6,0.6-2.4,0.9c-0.5,0.2-1,0.4-1.5,0.5c-1.5,0.5-3,1.1-4.5,1.6
							c-0.6,0.2-1.2,0.4-1.8,0.6c-0.8,0.3-1.6,0.6-2.4,0.9c-1,0.3-2,0.7-3.1,1c-3.1,1-6.3,2.1-9.7,3.3c-1.1,0.4-2.3,0.8-3.5,1.1
							c-0.9,0.3-1.9,0.6-2.8,0.9c-1.4,0.5-2.9,0.9-4.3,1.4c-2.4,0.8-5,1.6-7.5,2.3c-0.6,0.2-1.3,0.4-1.9,0.6c-2,0.6-4,1.2-6,1.8
							c-0.9,0.3-1.8,0.5-2.7,0.8c-0.9,0.3-1.8,0.5-2.7,0.8c-2,0.6-4.1,1.2-6.2,1.8c-1.8,0.5-3.6,1-5.4,1.5c-1.1,0.3-2.1,0.6-3.1,0.8
							c-2.7,0.7-5.4,1.5-8.2,2.2c-1,0.3-1.9,0.5-2.9,0.8c-2.9,0.8-5.9,1.5-8.9,2.3c-2,0.5-4,1-6.1,1.6c-2,0.5-4.1,1-6.2,1.6
							c-2.1,0.5-4.2,1-6.4,1.6c-1.1,0.3-2.1,0.5-3.2,0.8c-1.1,0.3-2.2,0.5-3.2,0.8c-1.1,0.2-2.2,0.5-3.3,0.8
							c-1.1,0.2-2.2,0.5-3.3,0.8c-1.1,0.3-2.2,0.5-3.4,0.7c-1.2,0.3-2.4,0.5-3.6,0.8c-1.1,0.2-2.1,0.5-3.2,0.7c-4.7,1-9.5,2-14.3,3
							c-2.3,0.5-4.5,0.9-6.8,1.4c-1.9,0.4-3.8,0.7-5.7,1.1c-1.7,0.3-3.5,0.7-5.3,1c-1.3,0.2-2.6,0.5-3.9,0.7
							c-1.2,0.2-2.4,0.4-3.6,0.7c-2.1,0.4-4.2,0.8-6.4,1.1c-6.7,1.2-13.6,2.3-20.5,3.4c-1.2,0.2-2.4,0.4-3.7,0.6
							c-1.4,0.2-2.8,0.4-4.3,0.7c-1.3,0.2-2.7,0.4-4,0.6c-1.4,0.2-2.8,0.4-4.2,0.6c-1.3,0.2-2.6,0.4-3.9,0.5
							c-2.8,0.4-5.6,0.8-8.4,1.2l-3.9,0.5c-2.8,0.3-5.5,0.7-8.3,1s-5.6,0.7-8.4,1c-3.4,0.4-6.9,0.8-10.4,1.1
							c-1.3,0.1-2.6,0.3-3.9,0.4c-0.9,0.1-1.9,0.2-2.8,0.3c-1.4,0.1-2.9,0.3-4.3,0.4c-1.4,0.1-2.9,0.3-4.3,0.4c-1,0.1-2,0.2-3,0.3
							c-1.1,0.1-2.1,0.2-3.1,0.3c-0.2,0-0.3,0-0.5,0.1c-0.7,0-1.4,0.1-2,0.2c-1.5,0.1-2.9,0.2-4.4,0.3c-1.9,0.2-3.8,0.3-5.7,0.4
							c-0.3,0-0.6,0-0.9,0.1c-2.3,0.2-4.5,0.3-6.8,0.5s-4.6,0.3-6.9,0.4c-0.3,0-0.6,0-0.9,0c-0.9,0.1-1.7,0.1-2.6,0.2
							c-1,0-2.1,0.1-3.1,0.1c-29.1,1.5-59.4,1.8-90.6,0.6c0,0-0.2-0.3-0.7-0.8c-2.2-2.5-8.9-10.7-14.2-22.9
							c-7.7-18-12.2-44.6,6-74.2c8.9-14.6,30.5-29.6,57.8-43.9c27.4-14.3,60.5-27.9,92.6-39.7c45.6-17.9,76.6-47.9,77.5-48.8
							c-1.4-3.6-2.8-7.2-4.2-10.9c-1.4-3.6-2.6-7.2-3.9-10.8c-13.3-39.1-21.2-80.9-32.6-122.8c-20.1-74.1-38-143-23.5-176.9
							c16.2-37.7,82.8-73.2,82.8-73.2s1.4,0.5,3.9,1.4c1.6,0.6,3.7,1.4,6.2,2.4c17.3,6.8,53.4,21.9,81,40.2c1.5,1.7,3.1,3.4,4.6,5.2
							c59.7,71.6,83.7,236.2,94,354.1C1100.7,1037.1,1122.8,1080,1120.9,1121.9z"/>
						<g>
							<path class="st11" d="M592.5,795.4c0,0-11,38.8-11.6,40.4s-7.9,13.9-7.9,13.9s-19-3.2-19.6-3.6c-0.1-0.1-0.3-0.3-0.6-0.6
								c-0.1-0.1-0.2-0.3-0.3-0.4c-2.5-3-4-6.6-4.6-10.4c0-0.2-0.1-0.4-0.1-0.6c-0.2-1.6-0.2-3.3,0-4.9l0.1-0.9l-0.2-0.9
								c-0.2-0.9-0.3-1.8-0.4-2.7c-0.1-1-0.2-2.1-0.2-3.1c0-3.9,0.8-7.7,2.4-11.3l-4-1.7c-1.9-0.8-3.3-2.6-3.5-4.7
								c-0.4-3.4,2.1-6.4,5.5-6.6L592.5,795.4z"/>
							<path class="st9" d="M681.9,882.4c-1.4,3.9-2.8,7.7-4.4,11.2c-8.4,19.1-19.2,31.6-26,29.3c-7.5-2.6-13.2-24.9-2.1-45.4
								c0.9-1.7,2-3.4,3.2-5.1c10.8-15.5,17.3-30.3,23-37c2.5-3,4.9-4.3,7.4-3.5c2.3,0.8,3.9,3.1,4.8,6.6
								C690.1,847.5,688.1,864.3,681.9,882.4z"/>
							<path class="st15" d="M1016.1,769.2c-5.3,35.3-16.5,77.4-30.4,116c-1,2.8-2,5.6-3.1,8.4c-19.1,50.7-42.5,93.4-62.8,102.8
								c0,0-15.4,13.4-44.7,9.7c-1.1-0.1-2.2-0.3-3.3-0.5c-7.4-1.2-15.1-2.8-23.2-4.6c-47.9-11-106.2-32.2-150.4-52.8
								c-18.7-8.8-34.9-17.4-46.6-25.2c5.8,2,14.5-6.8,22.1-21.2c1.3-2.5,2.6-5.2,3.9-8.1c0.4-0.8,0.7-1.7,1.1-2.5
								c0.1-0.2,0.2-0.4,0.3-0.6c0.3-0.6,0.5-1.3,0.8-1.9c0.1-0.3,0.2-0.5,0.3-0.8c0.2-0.6,0.5-1.3,0.7-1.9c0.1-0.2,0.2-0.5,0.3-0.7
								c0.3-0.9,0.7-1.8,1-2.7c0.2-0.7,0.5-1.4,0.7-2.1c0.1-0.2,0.1-0.4,0.2-0.7c0.2-0.5,0.3-1,0.5-1.5c0.1-0.2,0.1-0.4,0.2-0.6
								c0.2-0.6,0.4-1.3,0.6-2c0.1-0.2,0.1-0.4,0.2-0.6c0.1-0.5,0.3-0.9,0.4-1.4c0.1-0.3,0.1-0.5,0.2-0.7c0.1-0.5,0.2-1,0.4-1.5
								c0.1-0.2,0.1-0.4,0.2-0.6c0.2-0.6,0.3-1.2,0.5-1.8c0.1-0.3,0.1-0.5,0.2-0.8c0.1-0.4,0.2-0.8,0.3-1.2c0.1-0.2,0.1-0.5,0.2-0.7
								c0.1-0.6,0.2-1.2,0.4-1.8c0-0.2,0.1-0.4,0.1-0.5c0.1-0.5,0.2-0.9,0.3-1.4c0-0.2,0.1-0.5,0.1-0.7c0.1-0.4,0.2-0.9,0.2-1.3
								c0-0.2,0.1-0.4,0.1-0.6c0.1-0.6,0.2-1.2,0.2-1.7c0-0.2,0.1-0.4,0.1-0.6c0.1-0.4,0.1-0.8,0.2-1.2c0-0.2,0.1-0.4,0.1-0.6
								c0.1-0.5,0.1-1.1,0.2-1.6c0.1-0.7,0.1-1.2,0.2-1.7c0-0.2,0-0.3,0-0.5c0-0.4,0.1-0.8,0.1-1.2c0-0.1,0-0.3,0-0.4
								c0-0.5,0-1,0.1-1.5c0-0.7,0-1.1,0-1.5v-0.4c0-0.5,0-0.9,0-1.3c0-0.6,0-1.1-0.1-1.5c0-0.7-0.1-1-0.1-1.4
								c-0.1-0.7-0.1-1.2-0.2-1.6c-0.1-0.5-0.1-0.8-0.2-1.2c-0.1-0.6-0.2-0.9-0.3-1.2c-1-3.7-2.5-6-4.8-6.8c0.5,0.2,7.4,2,18.4,5.3
								c18.2,5.6,47.6,15.2,79,28.3c26,8.6,57.2,22.1,77.6,30.6c0.6-2.5,1.8-4.8,4.5-5.2c3.5-0.5,4.8,4,4.9,4.6c-0.1-0.6-1-6.2,2-8
								c1.3-0.8,4.9-1.5,5.8-0.1c14.3-45.1,45.9-187.2,68.3-203.9c0.8-0.6,1.6-1.2,2.4-1.7c15.8-10.6,34.4-11.5,49-3.6
								c3.3,1.8,6.3,4,9.1,6.6c4.3,4,7.9,9,10.7,15C1021,713.2,1020.8,738.7,1016.1,769.2z"/>
							
								<linearGradient id="SVGID_7_" gradientUnits="userSpaceOnUse" x1="564.8835" y1="504.0045" x2="688.6838" y2="504.0045" gradientTransform="matrix(1 0 0 -1 0 1348.4968)">
								<stop  offset="1.117320e-02" style="stop-color:#F8BC9F"/>
								<stop  offset="1" style="stop-color:#F49E7E"/>
							</linearGradient>
							<path class="st16" d="M687.7,838.5c-0.8-0.2-1.6-0.4-2.4-0.6c-3.4-0.9-6.6-1.7-9.8-2.5c-27.4-6.9-45.7-10.9-45.7-10.9
								s-20.7-25.8-35-28.9c-4.8-1-13.9,1.4-20.5,3.5c-4.8,1.5-8.1,5.8-8.6,10.8c-1,11.7-2,32.7,3,37.3c4.3,4,19,6.6,46.8,10.8
								l1.2,0.7l32.6,18.8l28.1,16.2c1.6-3.5,3-7.3,4.4-11.2C688.1,864.3,690.1,847.6,687.7,838.5z"/>
						</g>
						<path class="st15" d="M914.9,635.2c-0.3,1.1-0.5,2.2-0.8,3.3c-4.5,17.1-14.6,29.8-25.7,39.1c-16,13.3-34,20.3-40,22.3
							c-1.3,0.4-2,0.7-2,0.7l-3.7-14.9c0.5-0.3,1.1-0.5,1.6-0.8c0.6-0.3,1.2-0.6,1.8-0.9c0.3-0.2,0.6-0.3,0.8-0.4
							c1.7-0.9,3.3-1.8,4.9-2.7c0.6-0.3,1.2-0.7,1.7-1c0.6-0.3,1.1-0.7,1.7-1c0.6-0.3,1.1-0.7,1.6-1c0.6-0.3,1.1-0.7,1.6-1
							c0.5-0.3,1.1-0.7,1.6-1.1c0.5-0.3,0.9-0.6,1.4-0.9c0.7-0.5,1.1-0.8,1.6-1.1c0.7-0.5,1.1-0.8,1.5-1.1c0.4-0.3,0.9-0.7,1.3-1
							c1.1-0.8,2-1.6,2.9-2.3c0.4-0.4,0.9-0.7,1.3-1.1c0.4-0.4,0.8-0.7,1.2-1c0.5-0.4,0.9-0.8,1.4-1.2c0.3-0.3,0.7-0.6,1-0.9
							c1.6-1.5,3.1-3,4.5-4.5c0.2-0.2,0.3-0.3,0.4-0.5c0.6-0.7,1.3-1.4,1.9-2.1c0.3-0.4,0.7-0.8,1-1.1c0.7-0.8,1.3-1.5,1.9-2.3
							c0.3-0.4,0.6-0.7,0.9-1.1c0.9-1.1,1.7-2.2,2.5-3.4c0.2-0.3,0.5-0.6,0.7-1c4.4-6.3,7.5-12.3,9.7-17.2c0.1-0.2,0.2-0.5,0.3-0.7
							s0.2-0.4,0.3-0.6c0.3-0.7,0.5-1.3,0.8-1.9c0.1-0.2,0.2-0.5,0.3-0.7c0.1-0.4,0.3-0.7,0.4-1.1c0.1-0.3,0.2-0.6,0.3-0.8
							c0.1-0.3,0.2-0.6,0.3-0.9c0.2-0.5,0.3-1,0.5-1.4c0-0.1,0.1-0.3,0.1-0.4c0-0.2,0.1-0.4,0.1-0.5c0.7-2.3,1-3.7,1-3.8
							c0,0,0,0,10.2,12.3C912.6,632.4,913.7,633.8,914.9,635.2z"/>
						<path class="st15" d="M842.7,685.6l-2.4,13.8c0,0-12.9-9.2-1.5-23.1L842.7,685.6z"/>
						<path class="st11" d="M900.5,622.7c-0.1,0.2-0.1,0.4-0.2,0.5c0,0.1-0.1,0.3-0.1,0.4c-0.1,0.4-0.3,0.9-0.4,1.4
							c-0.1,0.3-0.2,0.6-0.3,0.9s-0.2,0.6-0.3,0.8c-0.1,0.4-0.2,0.7-0.4,1.1c-0.1,0.2-0.2,0.5-0.3,0.7c-0.2,0.6-0.5,1.3-0.8,1.9
							c-0.1,0.2-0.2,0.4-0.3,0.6s-0.2,0.5-0.3,0.7c-2.1,4.9-5.2,10.9-9.7,17.2c-0.2,0.3-0.5,0.7-0.7,1c-0.8,1.1-1.6,2.2-2.5,3.4
							c-0.3,0.4-0.6,0.7-0.9,1.1c-0.6,0.8-1.3,1.5-1.9,2.3c-0.3,0.4-0.6,0.8-1,1.1c-0.6,0.7-1.2,1.4-1.9,2.1
							c-0.1,0.2-0.3,0.3-0.4,0.5c-1.4,1.5-2.9,3-4.5,4.5c-0.3,0.3-0.7,0.6-1,0.9c-0.4,0.4-0.9,0.8-1.4,1.2c-0.4,0.4-0.8,0.7-1.2,1
							c-0.4,0.4-0.9,0.8-1.3,1.1c-0.9,0.8-1.8,1.5-2.7,2.2c-0.6,0.4-1,0.8-1.4,1.1c-0.4,0.3-0.9,0.7-1.3,1c-0.7,0.5-1.2,0.9-1.6,1.2
							c-0.6,0.4-1.1,0.7-1.5,1.1c-0.5,0.3-1.1,0.7-1.6,1c-0.5,0.4-1.1,0.7-1.6,1c-0.5,0.4-1.1,0.7-1.6,1c-0.6,0.4-1.1,0.7-1.7,1
							c-0.6,0.3-1.1,0.7-1.7,1c-1.6,0.9-3.2,1.8-4.9,2.7c-0.3,0.1-0.6,0.3-0.9,0.4c-0.6,0.3-1.2,0.6-1.8,0.9
							c-0.5,0.3-1.1,0.5-1.6,0.8l-9.1-22L823,638l10.6-9.9l0.5-0.5c0.1-0.1,41.9-39.1,41.9-39.1l21.9,30.5L900.5,622.7z"/>
						
							<linearGradient id="SVGID_8_" gradientUnits="userSpaceOnUse" x1="701.3" y1="751.5626" x2="878.7744" y2="751.5626" gradientTransform="matrix(1 0 0 -1 0 1348.4968)">
							<stop  offset="1.117320e-02" style="stop-color:#F8BC9F"/>
							<stop  offset="1" style="stop-color:#F49E7E"/>
						</linearGradient>
						<path class="st17" d="M878.4,589.6c-0.7,13.1-2.5,24.7-6,31.2c-0.3,0.3-0.7,0.6-1,0.9c-11.6,10.7-27.3,23.1-41.3,33.6
							c-11.5,8.7-21.9,16-27.6,20c-2.4,1.7-5.2,2.6-8.2,2.6h-16.6c-4.4,0-8.8-1.4-12.3-4.1c-14.2-10.9-26.1-22.9-35.2-33.4
							c-7.2-8.2-12.7-17.7-16.2-27.9c-3.2-9-4.9-18.6-5-28.4v-10c-0.1-0.3-0.4-0.9-0.4-0.9c-1-2.3-3.6-8.7-5.4-19
							c-0.3-1.4-0.5-2.8-0.7-4.3c-0.7-5.1-1.2-11-1.2-17.7c0-2.3,0-4.6,0.1-7.1c32.9,2.4,96.1,4.6,158.9-6.3
							c5.1-0.9,10.2-1.9,15.2-2.9c0,0,2.8,25.2,3.1,51.5C878.9,575,878.8,582.6,878.4,589.6z"/>
						<path class="st18" d="M906.9,550.9c0,4.5-1.6,8.9-4.5,12.3c-10.4,12.3-24.8,9.2-24.8,9.2l-12.4-31.1L854,568
							c-0.5-0.1-1.7-0.2-4.2-0.5c-1.2-0.1-2.6-0.3-4.5-0.6c-6.8-0.8-12.5-5.6-14.3-12.2c-3.2-11.5-10.9-21-13.9-24.5
							c4.6-0.5,9.3-1.1,14-1.8c0.7-0.1,1.3-0.2,2-0.3c0.2,0,0.4-0.1,0.5-0.1c1.3-0.2,2.6-0.4,4-0.7c1.7-0.3,3.5-0.6,5.2-0.9
							c3.3-0.6,6.6-1.3,10-2c0.4-0.1,0.8-0.2,1.2-0.3c1.5-0.3,3-0.7,4.5-1c0-1.1,0-1.8,0.1-2.1c1-2,1-10,3.6-11.9s17.3-5.1,21.1-5.1
							c2.4,0,8.8,2,13.1,3.4C898.7,513.4,904.5,531.1,906.9,550.9z"/>
						
							<linearGradient id="SVGID_9_" gradientUnits="userSpaceOnUse" x1="849.5158" y1="788.4556" x2="896.0062" y2="788.4556" gradientTransform="matrix(1 0 0 -1 0 1348.4968)">
							<stop  offset="1.117320e-02" style="stop-color:#F8BC9F"/>
							<stop  offset="1" style="stop-color:#F49E7E"/>
						</linearGradient>
						<path class="st19" d="M895.8,562.2c-1.4,14.8-9.8,26.5-19.9,29.2c-2.1,0.6-4.1,0.7-6.1,0.6c-12.7-1.2-21.7-16.5-20.1-34.1
							c1.2-12.9,7.7-23.4,16.1-27.7c3.1-1.6,6.5-2.4,9.9-2C888.5,529.3,897.5,544.6,895.8,562.2z"/>
						<path class="st11" d="M889.2,567.2c-1.2,13-9.8,22.8-19.2,21.9S854,577,855.2,564c1.2-13,9.8-22.8,19.2-21.9
							C883.8,543,890.4,554.2,889.2,567.2z"/>
						<path class="st20" d="M897.7,511.2c-11.9,4.5-23.8,8.1-35.5,11c-19.3,4.7-38.1,7.5-55.8,8.9c-3.4,0.3-6.8,0.5-10.1,0.7
							c-49.8,2.9-87.4-4.1-94.8-5.7c-0.9-0.2-1.3-0.3-1.3-0.3c0.5-3.5,0.9-6.9,1.3-10.3c0.2-1.8,0.4-3.7,0.7-5.5
							c2.7-24.3,3.7-45,3.9-58.2c0-2,0.3-3.9,0.7-5.7c0.7-3,2-5.9,3.7-8.5c3.2-4.9,8-8.7,13.8-10.7c0.2-0.1,0.4-0.1,0.6-0.2
							c0.2-0.1,0.4-0.1,0.6-0.2c1.7-0.5,3.5-1.1,5.4-1.6c0.2-0.1,0.5-0.1,0.7-0.2c0.6-0.2,1.3-0.3,1.9-0.5c0.3-0.1,0.5-0.1,0.8-0.2
							c4.2-1,8.9-2,14.2-2.8c0.3-0.1,0.7-0.1,1-0.2c1.3-0.2,2.7-0.4,4.1-0.6c0.7-0.1,1.4-0.2,2.1-0.3c0.4-0.1,0.7-0.1,1.1-0.1
							c0.3,0,0.7-0.1,1.1-0.1c0.8-0.1,1.7-0.2,2.5-0.3c0.7-0.1,1.4-0.1,2.1-0.2c0.8-0.1,1.6-0.1,2.4-0.2c0.4,0,0.7-0.1,1.1-0.1
							c1-0.1,1.8-0.1,2.6-0.2c0.9-0.1,1.8-0.1,2.8-0.2c0.7-0.1,1.5-0.1,2.3-0.1c0.9,0,1.8-0.1,2.7-0.1c0.7,0,1.5,0,2.2-0.1
							c3.9-0.1,8-0.2,12.2-0.2c0.5,0,1,0,1.5,0s1,0,1.5,0s1,0,1.5,0s1,0,1.5,0s1,0,1.4,0c1,0,2,0.1,2.9,0.1c0.6,0,1.2,0,1.8,0
							c0.5,0,1,0,1.5,0.1c1.2,0.1,2.4,0.1,3.5,0.2c0.9,0,1.8,0.1,2.7,0.2c1.1,0.1,2.1,0.1,3.2,0.2c0.5,0,1,0.1,1.5,0.1
							c1,0.1,2,0.2,3,0.3c0.5,0,1,0.1,1.4,0.1c2.1,0.2,4.1,0.4,6,0.6c0.8,0.1,1.5,0.2,2.2,0.3c0.7,0.1,1.3,0.2,2,0.3
							c0.4,0,0.7,0.1,1.1,0.2c3,0.4,5.8,0.8,8.5,1.3c0.6,0.1,1.2,0.2,1.8,0.3c1,0.2,1.9,0.4,2.8,0.5c0.3,0.1,0.6,0.1,0.9,0.2
							c3.5,0.7,6.7,1.4,9.6,2.1c0.3,0.1,0.6,0.2,0.9,0.2c0.3,0.1,0.7,0.2,1,0.3c0.5,0.1,1,0.2,1.4,0.4c1.4,0.4,2.8,0.8,4.1,1.2
							c0.4,0.1,0.8,0.2,1.2,0.4c0.3,0.1,0.7,0.2,1,0.3c0.2,0.1,0.5,0.2,0.7,0.2c0.7,0.2,1.4,0.5,2,0.7c3.1,1.1,6,2.7,8.4,4.7
							c0.9,0.7,1.7,1.5,2.4,2.3c1.9,2,3.5,4.3,4.7,6.8c0.7,1.5,1.3,3,1.8,4.6c0,0.2,0.1,0.3,0.1,0.5c3,10.9,7.9,27.8,14.5,47.9
							c0.6,1.7,1.1,3.5,1.7,5.3c0.2,0.7,0.5,1.5,0.7,2.2C902.4,506.7,900.8,510,897.7,511.2z"/>
						
							<linearGradient id="SVGID_10_" gradientUnits="userSpaceOnUse" x1="673.4001" y1="107.5702" x2="1108.2107" y2="107.5702" gradientTransform="matrix(1 0 0 -1 0 1348.4968)">
							<stop  offset="1.117320e-02" style="stop-color:#EDBD9F"/>
							<stop  offset="1" style="stop-color:#F7D5AD"/>
						</linearGradient>
						<path class="st21" d="M1084,1267c-4.9-3.6-11.7-5.2-11.7-5.2c-118,35.7-242.8,29.6-346.3,32.7c-29,0.9-52.6-35.9-52.6-35.9
							c31.1,1.2,61.4,0.9,90.6-0.6c1-0.1,2.1-0.1,3.1-0.2c0.9,0,1.7-0.1,2.6-0.1c0.3,0,0.6,0,0.9,0c2.3-0.1,4.6-0.3,6.9-0.4
							c2.3-0.1,4.6-0.3,6.8-0.5c0.3,0,0.6,0,0.9-0.1c1.9-0.1,3.8-0.3,5.7-0.4c1.5-0.1,2.9-0.2,4.4-0.3c0.7-0.1,1.4-0.1,2.1-0.2
							c0.2,0,0.3,0,0.5,0c1.1-0.1,2.1-0.2,3.1-0.3c1-0.1,2-0.2,3.1-0.3c1.4-0.1,2.9-0.3,4.3-0.4c1.4-0.1,2.9-0.3,4.3-0.4
							c0.9-0.1,1.9-0.2,2.8-0.3c1.3-0.1,2.6-0.3,3.9-0.4c3.5-0.4,6.9-0.7,10.4-1.1c2.8-0.3,5.6-0.6,8.4-1c2.8-0.3,5.6-0.7,8.3-1
							c1.3-0.2,2.6-0.3,3.9-0.5c2.8-0.4,5.6-0.8,8.4-1.2c1.3-0.2,2.6-0.4,3.9-0.5c1.4-0.2,2.8-0.4,4.2-0.6c1.3-0.2,2.7-0.4,4-0.6
							c1.4-0.2,2.8-0.4,4.3-0.6c1.2-0.2,2.5-0.4,3.7-0.6c7-1.1,13.8-2.2,20.6-3.4c2.1-0.4,4.3-0.8,6.4-1.1c1.2-0.2,2.4-0.4,3.6-0.7
							c1.3-0.2,2.6-0.5,3.9-0.7c1.8-0.3,3.5-0.7,5.3-1c1.9-0.4,3.8-0.7,5.7-1.1c2.3-0.4,4.6-0.9,6.8-1.4c4.9-1,9.6-2,14.3-3
							c1.1-0.2,2.1-0.5,3.2-0.7c1.2-0.3,2.4-0.5,3.6-0.8c1.1-0.2,2.2-0.5,3.4-0.8c1.1-0.2,2.2-0.5,3.3-0.8c1.1-0.3,2.2-0.5,3.3-0.8
							s2.2-0.5,3.3-0.8c1.1-0.2,2.2-0.5,3.2-0.8c2.2-0.5,4.3-1,6.4-1.5c2.1-0.5,4.2-1,6.2-1.6c2.1-0.5,4.1-1,6.1-1.6
							c3-0.8,6-1.6,8.9-2.3c1-0.3,1.9-0.5,2.9-0.8c2.8-0.7,5.5-1.5,8.2-2.2c1-0.3,2-0.6,3-0.8c1.9-0.5,3.7-1.1,5.5-1.6
							c2.1-0.6,4.2-1.2,6.2-1.8c0.9-0.3,1.8-0.5,2.7-0.8c0.9-0.3,1.8-0.5,2.7-0.8c2-0.6,4-1.2,6-1.8c0.7-0.2,1.3-0.4,1.9-0.6
							c2.6-0.8,5.1-1.6,7.6-2.3c1.5-0.5,2.9-0.9,4.3-1.4c1-0.3,1.9-0.6,2.8-0.9c1.2-0.4,2.4-0.8,3.5-1.1c3.4-1.1,6.7-2.2,9.7-3.3
							c1-0.3,2-0.7,3-1c0.8-0.3,1.6-0.6,2.4-0.8c0.6-0.2,1.2-0.4,1.8-0.6c1.6-0.6,3.1-1.1,4.5-1.6c0.5-0.2,1-0.4,1.5-0.5
							c0.8-0.3,1.6-0.6,2.4-0.9c2.3-0.8,4.4-1.6,6.3-2.3c1-0.4,2-0.8,3-1.1c0.9-0.3,1.5-0.6,2.1-0.8c2-0.8,3.8-1.5,5.2-2
							c0.5-0.2,0.9-0.4,1.2-0.5c1-0.4,1.8-0.7,2.4-1c1-0.4,1.3-0.5,1.3-0.5s1.7,4.6,3.5,11.6C1109.3,1218.7,1115.1,1258.2,1084,1267
							z"/>
						<g>
							<path class="st22" d="M900.7,501.4c-34,16.6-79.1,20.8-115.3,20.8c-4.7,0-9.2-0.1-13.5-0.2c-31.9-0.9-58.9-4.5-70.3-6.3
								c0.2-1.8,0.4-3.7,0.6-5.5C727.7,514.1,835,528,899,496.1C899.5,497.9,900.1,499.6,900.7,501.4z"/>
							<path class="st22" d="M884.5,448.2c-34.5,16.5-66.8,21.6-93.7,21.6c-13.3,0-25.3-1.3-35.5-3c-22.5-3.9-39.6-10.5-49.2-14.8
								c0-2,0.3-3.9,0.7-5.7c9,4.2,26.5,11.3,49.7,15.2c30,5.1,75.8,5.8,126.1-18.4c0.7,1.5,1.3,3,1.8,4.6
								C884.4,447.8,884.4,448,884.5,448.2z"/>
						</g>
						<path class="st23" d="M871.4,621.8l-37.8,41.9l-3.4-8.4C844.1,644.8,859.8,632.5,871.4,621.8z"/>
						<path class="st9" d="M1104.2,1198.9C917.9,1266.9,764,1258,764,1258c1-0.1,2.1-0.1,3.1-0.2c1.2-0.1,2.3-0.1,3.5-0.2
							c2.3-0.1,4.6-0.3,6.9-0.4c2.6-0.2,5.1-0.3,7.7-0.5c1.9-0.1,3.8-0.3,5.7-0.4c1.5-0.1,2.9-0.2,4.4-0.3c0.7-0.1,1.4-0.1,2.1-0.2
							c1.2-0.1,2.4-0.2,3.7-0.3c1-0.1,2-0.2,3.1-0.3c1.4-0.1,2.9-0.3,4.3-0.4c1.4-0.1,2.9-0.3,4.3-0.4c0.9-0.1,1.9-0.2,2.8-0.3
							c1.3-0.1,2.6-0.3,3.9-0.4c3.5-0.4,6.9-0.7,10.4-1.1c2.8-0.3,5.6-0.6,8.4-1c2.8-0.3,5.6-0.7,8.3-1c1.3-0.2,2.6-0.3,3.9-0.5
							c2.8-0.4,5.6-0.8,8.4-1.2c1.3-0.2,2.6-0.4,3.9-0.5c1.4-0.2,2.8-0.4,4.2-0.6c1.3-0.2,2.7-0.4,4-0.6c1.4-0.2,2.8-0.4,4.3-0.6
							c1.2-0.2,2.4-0.4,3.7-0.6c15.8-2.5,30.9-5.2,45.4-8.1c2.3-0.5,4.6-0.9,6.8-1.4c4.9-1,9.6-2,14.3-3c1.1-0.2,2.1-0.5,3.2-0.7
							c1.2-0.3,2.4-0.5,3.6-0.8c1.1-0.2,2.2-0.5,3.4-0.8c1.1-0.2,2.2-0.5,3.3-0.8c1.1-0.3,2.2-0.5,3.3-0.8s2.2-0.5,3.3-0.8
							s2.2-0.5,3.2-0.8c2.2-0.5,4.3-1,6.4-1.5c2.1-0.5,4.2-1,6.2-1.6c2.1-0.5,4.1-1,6.1-1.6c6.9-1.8,13.6-3.6,20-5.3
							c1-0.3,2-0.6,3-0.8c1.9-0.5,3.7-1,5.5-1.6c2.1-0.6,4.2-1.2,6.2-1.8c1.8-0.5,3.7-1.1,5.4-1.6c5.4-1.6,10.6-3.2,15.5-4.7
							c1.5-0.5,2.9-0.9,4.3-1.4c5.8-1.9,11.2-3.6,16.1-5.3c1-0.3,2-0.7,3-1c0.8-0.3,1.6-0.6,2.4-0.8c0.6-0.2,1.2-0.4,1.8-0.6
							c1.6-0.6,3.1-1.1,4.5-1.6c1.3-0.5,2.6-0.9,3.9-1.4c3.6-1.3,6.8-2.5,9.6-3.5c0.6-0.2,1.2-0.5,1.8-0.7c2-0.8,3.8-1.5,5.2-2
							c0.4-0.2,0.8-0.3,1.2-0.5c1-0.4,1.8-0.7,2.4-1c1-0.4,1.3-0.5,1.3-0.5S1102.4,1191.9,1104.2,1198.9z"/>
						<path class="st8" d="M985.7,885.2c-1,2.8-2.1,5.6-3.1,8.4c-19.1,50.7-42.5,93.4-62.8,102.8c0,0-16.6,14.5-48.1,9.2
							c-7.4-1.2-15.1-2.8-23.2-4.6c-47.9-11-106.2-32.2-150.4-52.8c-18.7-8.8-34.9-17.4-46.6-25.2c5.8,2,14.5-6.8,22.1-21.2
							c43.9,21.1,166.3,75.5,241.3,63.8c88.6-117.1,82.4-258.7,80.1-287.4c3.3,1.8,6.3,4,9.1,6.6c4.3,4,7.9,9,10.7,15
							C1028.2,728.6,1011.6,813.4,985.7,885.2z"/>
						
							<linearGradient id="SVGID_11_" gradientUnits="userSpaceOnUse" x1="741.7442" y1="722.7279" x2="741.7442" y2="736.2184" gradientTransform="matrix(1 0 0 -1 0 1348.4968)">
							<stop  offset="1.117320e-02" style="stop-color:#F2928D"/>
							<stop  offset="1" style="stop-color:#F5A889"/>
						</linearGradient>
						<path class="st24" d="M732.3,615.1c-1.9,3.5,0,8,3.8,9.4c3.2,1.2,7.8,2,13.5,0.6C759,622.6,737.3,605.7,732.3,615.1z"/>
						<path class="st25" d="M747.8,616.8c-1.6-0.9-3.2-1.7-4.8-2.4c-1.6-0.7-3.3-1.2-5-1.3s-3.4,0.2-4.5,1.3
							c-1.2,1.1-1.9,2.9-1.9,4.7c-0.5-1.8-0.3-3.9,1.1-5.4c0.6-0.8,1.6-1.3,2.5-1.7c1-0.3,2-0.3,2.9-0.3c1.9,0.2,3.7,0.9,5.4,1.7
							C745.1,614.2,746.6,615.4,747.8,616.8z"/>
						<path class="st25" d="M723.4,561.1c2,3.8,3.5,7.8,4.9,11.8s2.6,8.1,3.4,12.3c0.8,4.2,1.5,8.4,1.5,12.7s-0.4,8.6-1.8,12.7
							c0.2-1.1,0.3-2.1,0.5-3.1s0.2-2.1,0.2-3.2c0-0.5,0.1-1,0.1-1.6V601c0-1.1,0-2.1-0.1-3.2c-0.1-1.1-0.2-2.1-0.3-3.1l-0.4-3.1
							c-0.1-1-0.3-2.1-0.5-3.1c-0.2-1-0.4-2.1-0.6-3.1c-0.8-4.1-1.9-8.2-3.1-12.3c-0.6-2-1.2-4.1-1.9-6.1
							C724.9,565.1,724.2,563.1,723.4,561.1z"/>
						<path class="st23" d="M737.6,568.7c2.2,1.1,4.4,2.1,6.6,3.1c1.1,0.5,2.2,1,3.3,1.4c1.1,0.4,2.2,0.8,3.3,1.1
							c2.1-0.1,4.6-0.4,7-0.8c2.5-0.3,4.9-0.9,7.4-1.4c4.9-1.1,9.8-2.3,14.8-3.5c-2.2,1.3-4.5,2.4-6.9,3.4s-4.8,1.8-7.3,2.5
							s-5,1.3-7.6,1.7s-5.2,0.6-7.8,0.4c-2.8-0.9-5-2.1-7-3.5C741.3,571.9,739.4,570.4,737.6,568.7z"/>
						<path class="st18" d="M731.6,552.7c2-1.6,4-3,6.1-4.4c1-0.7,2.2-1.4,3.4-2c1.3-0.5,2.6-0.9,4-1c1.4-0.2,2.8-0.1,4.2,0.1
							c0.7,0.1,1.4,0.3,2.1,0.5c0.3,0.1,0.7,0.2,1,0.3l0.9,0.3c2.3,0.9,4.6,1.8,6.8,2.6c4.6,1.7,9.2,3.4,13.8,5s9.3,3.1,14,4.9
							c-5,0.2-10.1-0.4-15-1.4s-9.7-2.4-14.4-4.1c-2.3-0.9-4.7-1.8-6.9-2.9l-0.8-0.4c-0.2-0.1-0.5-0.2-0.7-0.3
							c-0.5-0.2-1-0.4-1.5-0.5c-1-0.3-2.1-0.4-3.2-0.5c-1.1,0-2.2,0.1-3.3,0.3c-1.1,0.2-2.1,0.6-3.3,1.1
							C736.3,551.1,734,552,731.6,552.7z"/>
						<path class="st23" d="M721.2,572.1c-1.1,1-2.3,2-3.5,2.9c-1.2,0.9-2.3,1.9-3.7,2.6l-0.8,0.1c-1.5-0.7-2.9-1.4-4.2-2.3
							c1.5-0.1,3.1-0.4,4.5-0.8l-0.8,0.1c1.3-0.6,2.8-0.9,4.2-1.4C718.3,573,719.8,572.5,721.2,572.1z"/>
						<path class="st18" d="M718.6,554.8c-0.9,0-1.7-0.1-2.5-0.2s-1.6-0.3-2.3-0.5c-1.3-0.3-2.5-0.7-3.7-1.2c-0.3,0-1.1,0.2-1.1,0.2
							l-1.6,0.3l-3.3,0.6c-1.3,0.2-2.5-0.7-2.7-1.9c0-0.2-0.1-0.4-0.1-0.7c-0.1-0.8,0.4-1.5,1.2-1.7c0.3-0.1,0.5-0.1,0.8-0.2
							c1.1-0.2,2.2-0.5,3.3-0.6c0.6-0.1,1.1-0.2,1.7-0.3l0.9-0.1l1-0.1h0.6l0.5,0.3c1.3,0.8,2.6,1.6,3.8,2.6c0.6,0.5,1.2,1,1.8,1.6
							S718.1,554.1,718.6,554.8z"/>
						<path class="st26" d="M784.3,599.6c-1,7.8-11.3,13-22.8,11.4c-11.6-1.5-20.1-9.1-19.1-17c1-7.8,11.3-13,22.8-11.4
							C776.8,584.2,785.4,591.8,784.3,599.6z"/>
						<path class="st26" d="M714.9,612.2c-0.3,0.1-0.5,0.2-0.8,0.3c-3.2-9-4.9-18.6-5-28.4c9.5-2.1,18.4,0.9,20.7,7.4
							C732.5,598.9,725.8,608.2,714.9,612.2z"/>
						<path class="st23" d="M753.3,644.4c2.3,0,4.6-0.2,6.8-0.5c2.3-0.3,4.5-0.7,6.7-1.2s4.4-1.1,6.5-1.9c2.2-0.7,4.3-1.5,6.5-2.3
							c-1,0.6-2,1.2-3,1.8c-1,0.5-2.1,1.1-3.1,1.5c-2.1,1-4.4,1.6-6.6,2.2c-2.3,0.5-4.6,0.9-6.9,1
							C757.9,645.1,755.6,645,753.3,644.4z"/>
						<path class="st23" d="M774.4,670.6c-10.2-3.4-11.8-13-11.4-20.8c-4,0.7-8.3,0-8.5-0.1c-0.2,0-0.3-0.2-0.3-0.4
							c0-0.2,0.2-0.3,0.4-0.3c0,0,4.7,0.8,8.7,0c-0.1,7.9,1.4,17.6,11.2,20.8c0.2,0.1,0.3,0.3,0.2,0.4
							C774.7,670.5,774.6,670.6,774.4,670.6z"/>
						<path class="st22" d="M875.4,434c0,6.8-37.1,17.7-82.7,17.7h-1.2c-45.1-0.1-81-7.2-81-13.9c7.5-14,36.5-19.2,82.2-19.2
							c5.7,0,11.1,0.1,16.2,0.2C844.8,419.8,866.7,424.6,875.4,434z"/>
						<path class="st11" d="M681.9,882.4c-1.4,3.9-2.8,7.7-4.4,11.2l-28.1-16.2l-32.6-18.8c-0.5-1.2-0.7-1.8-0.7-1.8
							s28,12.9,56.7,26.8c15.5-11.9,13.4-39,12.6-45.7c0.8,0.2,1.6,0.4,2.4,0.6C690.1,847.6,688.1,864.3,681.9,882.4z"/>
					</g>
					<g>
						<path class="st3" d="M665.6,916.8c-0.7-0.7-1.5-1.2-2.5-1.5c-0.9-0.3-1.9-0.4-2.8-0.4c-0.9,0-1.8,0.2-2.7,0.6
							c-0.4,0.2-0.8,0.4-1.2,0.6c-0.2,0.1-0.4,0.2-0.5,0.4c-0.2,0.1-0.4,0.3-0.5,0.4c-0.3,0.3-0.6,0.6-0.9,0.9
							c-0.3,0.3-0.6,0.9-0.8,1.3c-0.4,0.8-0.6,1.6-0.7,2.5c-0.1,0.9,0,1.8,0.2,2.6c0.2,0.9,0.6,1.7,1.1,2.5s1.2,1.5,2,2
							c-0.8-0.6-1.7-0.9-2.6-1.1c-0.9-0.2-1.9-0.2-2.8-0.1c-0.9,0.1-1.8,0.4-2.5,0.8c-0.8,0.4-1.5,1-2.1,1.7s-1,1.5-1.3,2.4
							c-0.3,0.9-0.4,1.8-0.4,2.7c0.1,1.8,0.8,3.7,2.2,5.1c1.4,1.4,3.3,2.1,5.2,2c1-0.1,1.9-0.3,2.9-0.8c0.9-0.5,1.8-1.1,2.5-2
							s1.2-1.8,1.5-2.8s0.4-2,0.3-3c-0.1-1-0.4-1.9-0.9-2.7c-0.5-0.8-1.2-1.5-2-2.1c0.8,0.6,1.7,0.9,2.7,1.1
							c0.9,0.1,1.9,0.1,2.9-0.2c0.9-0.3,1.9-0.7,2.7-1.4c0.8-0.7,1.5-1.5,2.1-2.6c1.1-2.1,1.3-4.6,0.6-6.5
							C666.8,918.3,666.3,917.5,665.6,916.8z"/>
						<path class="st3" d="M669.3,899c0.4-0.3,0.7-0.7,0.9-1.1c1.1-1.7,1.5-4.1,0.8-6.6c-0.1-0.3-0.2-0.6-0.3-0.9
							c-0.1-0.1-0.1-0.3-0.2-0.4c-0.1-0.1-0.1-0.3-0.2-0.4c-0.3-0.5-0.6-1-1-1.4s-0.8-0.8-1.2-1.1c-0.4-0.3-0.9-0.6-1.3-0.8
							c-0.9-0.4-1.9-0.6-2.8-0.6c-1,0-1.9,0.3-2.8,0.8c0.9-0.5,1.6-1.1,2.2-1.9c0.3-0.4,0.5-0.8,0.7-1.3s0.3-0.9,0.4-1.4
							c0.1-0.5,0.1-1,0.1-1.5s-0.1-1.1-0.3-1.6c-0.3-1.1-1-2.3-1.8-3.2c-1.2-1.5-2.9-2.3-4.7-2.6c-0.9-0.1-1.9-0.1-2.8,0.1
							c-0.9,0.2-1.8,0.6-2.6,1.2s-1.5,1.3-1.9,2.1c-0.5,0.8-0.8,1.7-0.9,2.7c-0.2,1.9,0.4,4,1.8,5.7c0.5,0.7,1.3,1.3,2.1,1.7
							c0.4,0.2,0.8,0.4,1.2,0.5s0.8,0.2,1.2,0.3c0.4,0.1,0.9,0.1,1.3,0.1c0.4,0,0.9,0,1.4-0.1c0.9-0.1,1.9-0.4,2.7-0.9
							c-0.9,0.5-1.6,1.1-2.2,1.8c-0.6,0.7-1.1,1.5-1.4,2.3c-0.2,0.4-0.3,0.8-0.4,1.2c-0.1,0.4-0.2,0.8-0.2,1.2
							c-0.1,0.4-0.1,0.8,0,1.2c0.1,0.8,0.2,1,0.2,1.2c0.1,0.2,0.1,0.4,0.2,0.6c0.1,0.2,0.1,0.4,0.2,0.5c0.1,0.2,0.2,0.3,0.3,0.5
							c0.6,0.8,0.9,1.1,1.2,1.4c0.3,0.3,0.6,0.5,1,0.8c0.4,0.2,0.8,0.5,1.2,0.7c0.4,0.2,0.8,0.4,1.3,0.5c0.9,0.3,1.9,0.4,2.8,0.4
							c1-0.1,1.9-0.3,2.8-0.8C668.5,899.7,668.9,899.4,669.3,899z"/>
						<path class="st3" d="M672.2,907.4c0-0.6-0.1-1.2-0.3-1.7c-0.1-0.5-0.3-1.1-0.6-1.5c-0.2-0.5-0.5-0.9-0.8-1.3
							c-0.7-0.8-1.5-1.4-2.3-1.7c-0.9-0.4-1.9-0.5-2.9-0.5c-1,0.1-1.9,0.3-2.8,0.7c-0.9,0.4-1.6,0.9-2.3,1.4
							c-1.3,1.1-2.2,2.5-2.5,4.2c-0.1,0.4-0.1,0.8-0.1,1.2c0,0.4,0.1,0.8,0.2,1.2c0.1,0.4,0.2,0.8,0.4,1.2c0.2,0.4,0.4,0.8,0.6,1.2
							c0.1,0.2,0.2,0.4,0.4,0.6c0.1,0.2,0.3,0.4,0.4,0.5c0.3,0.3,0.6,0.7,1,1c0.7,0.6,1.6,1.1,2.5,1.4c0.9,0.3,1.9,0.4,2.9,0.3
							c0.5-0.1,0.9-0.2,1.4-0.3c0.2-0.1,0.5-0.2,0.7-0.3c0.2-0.1,0.4-0.2,0.6-0.4c0.4-0.3,0.8-0.6,1.2-1c0.4-0.4,0.7-0.8,1-1.3
							s0.6-1,0.8-1.5s0.4-1.1,0.5-1.7C672.2,908.6,672.2,908,672.2,907.4z"/>
						<path class="st3" d="M635.4,949.7c-0.6-0.8-1.3-1.5-2.1-2c-0.4-0.2-0.8-0.4-1.3-0.6c-0.4-0.2-0.9-0.3-1.3-0.4
							c-0.4-0.1-0.9-0.1-1.4-0.1s-0.9,0-1.4,0.1c-0.9,0.2-2,0.6-2.8,1.1c-0.4,0.2-0.8,0.5-1.1,0.8s-0.6,0.6-0.9,1
							c-0.5,0.7-0.9,1.5-1.2,2.4c-0.5,1.7-0.4,3.7,0.4,5.5c-0.9-1.8-2.4-3-4.1-3.7c-1.7-0.7-3.5-0.7-5.3-0.1c-1.7,0.6-3,1.9-3.8,3.5
							c-0.4,0.8-0.7,1.7-0.8,2.6c-0.1,0.9-0.1,1.9,0.1,2.9c0.2,1,0.7,1.9,1.3,2.6c0.6,0.7,1.4,1.4,2.2,1.8c1.8,0.9,4,1,6.2,0.2
							c2.1-0.8,3.7-2.4,4.5-4.2c0.8-1.8,0.7-3.8-0.2-5.6c0.9,1.8,2.4,3,4.3,3.5c1.9,0.5,4,0.2,5.9-0.9c0.9-0.6,2-1.4,2.5-2.3
							c0.3-0.4,0.6-0.9,0.8-1.3c0.2-0.5,0.4-0.9,0.5-1.4s0.2-0.9,0.2-1.4s0-1-0.1-1.4C636.4,951.4,636,950.5,635.4,949.7z"/>
						<path class="st3" d="M639,938.4c-0.4,0.1-0.8,0.3-1.2,0.5c-0.4,0.2-0.8,0.5-1.1,0.8c-1.4,1.2-2.3,2.9-2.5,4.7
							c-0.1,0.9-0.1,1.9,0.2,2.8c0.2,0.9,0.6,1.8,1.2,2.6c0.6,0.8,1.3,1.5,2.1,1.9c0.8,0.5,1.7,0.8,2.7,0.8c1,0.1,2,0,2.9-0.3
							c0.5-0.2,1-0.4,1.4-0.6c0.5-0.3,0.9-0.6,1.3-0.9c0.4-0.3,0.8-0.8,1.1-1.2c0.3-0.4,0.6-0.9,0.8-1.3c0.5-0.9,0.7-1.9,0.8-2.9
							c0.1-1.9-0.6-3.8-2-5.2c-1.4-1.4-3.3-2.1-5.1-2.2C640.8,938,639.9,938.1,639,938.4z"/>
						<path class="st3" d="M592.8,958.1c-0.2-0.4-0.4-0.7-0.7-1.1c-0.2-0.3-0.5-0.6-0.8-0.9c-0.3-0.3-0.6-0.5-0.9-0.8
							c-0.3-0.2-0.8-0.5-1.2-0.6c-0.2-0.1-0.4-0.1-0.6-0.2c-0.2-0.1-0.4-0.1-0.6-0.1c-0.2,0-0.4-0.1-0.6-0.1c-0.2,0-0.4,0-0.6,0
							c-0.2,0-0.4,0-0.6,0c-0.2,0-0.4,0-0.6,0.1c-0.4,0.1-0.8,0.1-1.3,0.3c-0.4,0.1-0.8,0.3-1.3,0.5c-0.4,0.2-0.8,0.4-1.2,0.6
							c-0.8,0.5-1.5,1.1-2.1,1.9c0.6-0.8,1-1.7,1.2-2.6c0.3-0.9,0.3-1.8,0.3-2.7c-0.1-1.8-0.6-3.4-1.8-4.6c-1.2-1.3-2.8-2-4.6-2.2
							c-1.8-0.2-3.7,0.2-5.4,1.4c-1.6,1.2-2.6,2.9-2.7,4.9c-0.2,2,0.6,4.1,2.2,5.8c1.6,1.7,3.8,2.6,5.8,2.6c1,0,2-0.3,2.8-0.7
							c0.8-0.4,1.6-1.1,2.2-1.9c-0.6,0.8-1,1.7-1.2,2.6c-0.1,0.5-0.1,1-0.1,1.4c0,0.5,0.1,1,0.3,1.5c0.1,0.5,0.4,1,0.6,1.4
							c0.1,0.2,0.3,0.5,0.4,0.7c0.2,0.2,0.3,0.4,0.5,0.6c0.2,0.2,0.4,0.4,0.6,0.6c0.2,0.2,0.5,0.4,0.7,0.6c0.3,0.2,0.5,0.3,0.8,0.5
							c0.3,0.1,0.6,0.3,0.8,0.4c0.6,0.3,1.4,0.5,2,0.7c0.6,0.1,1.2,0.2,1.8,0.2s1.1-0.1,1.7-0.2c0.5-0.1,1-0.3,1.5-0.5
							c0.2-0.1,0.4-0.2,0.7-0.4c0.2-0.1,0.4-0.3,0.6-0.5c0.4-0.3,0.7-0.7,1-1.1c0.6-0.8,0.9-1.7,1.1-2.7
							C594.1,961.5,593.6,959.6,592.8,958.1z"/>
						<path class="st3" d="M605.5,958.2c-1.4-1-3.1-1.6-4.7-1.5c-0.4,0-0.8,0.1-1.2,0.2s-0.8,0.2-1.1,0.4c-0.2,0.1-0.4,0.2-0.5,0.3
							c-0.2,0.1-0.4,0.2-0.5,0.3c-0.3,0.2-0.7,0.5-1,0.8c-0.6,0.6-1.2,1.3-1.7,2.1c-0.5,0.8-0.8,1.7-1,2.7s-0.1,2,0.2,2.9
							c0.3,0.9,0.8,1.8,1.5,2.5c0.4,0.4,0.8,0.7,1.2,1c0.2,0.1,0.5,0.3,0.7,0.4c0.2,0.1,0.5,0.2,0.8,0.3c0.5,0.2,1.1,0.4,1.7,0.4
							c0.6,0.1,1.2,0.1,1.8,0.1c2.5-0.1,4.5-1.3,5.7-2.9c0.6-0.8,1-1.7,1.2-2.6c0.2-0.9,0.2-1.9,0-2.9c-0.2-1-0.7-1.9-1.2-2.6
							C606.8,959.3,606.2,958.7,605.5,958.2z"/>
						<path class="st3" d="M562.1,934.2c1.8-0.9,3-2.4,3.6-4.2c0.6-1.7,0.5-3.9-0.3-5.7c-0.8-1.8-2.2-3.1-4-3.9
							c-1.7-0.7-3.7-0.8-5.5-0.1c1.8-0.8,3.2-2.2,3.9-3.9c0.7-1.7,0.8-3.7,0.1-5.6c-1.4-3.8-5.6-5.8-9.3-4.4
							c-3.8,1.4-5.7,5.6-4.2,9.5c0.7,2,2.2,3.4,3.9,4.2c1.7,0.8,3.7,0.9,5.6,0.1c-1.8,0.8-3.2,2.2-3.9,4c-0.7,1.8-0.7,3.9,0.2,5.8
							c0.9,2,2.5,3.6,4.3,4.3C558.3,935.1,560.3,935.1,562.1,934.2z"/>
						<path class="st3" d="M571.7,944.8c0.2-0.4,0.5-0.8,0.6-1.2c0.2-0.4,0.3-0.9,0.4-1.3c0.4-1.8,0.1-3.6-0.8-5.3
							c-1-1.6-2.5-2.8-4.3-3.3c-0.9-0.3-1.8-0.4-2.8-0.3c-0.9,0.1-1.9,0.3-2.8,0.8c-0.9,0.4-1.6,1.1-2.2,1.8c-0.6,0.7-1,1.6-1.3,2.5
							c-0.5,1.9-0.3,4,0.9,5.9c1.1,1.9,2.9,3.2,4.8,3.7c0.5,0.1,1,0.2,1.4,0.2c0.5,0,1,0,1.4-0.1c0.9-0.2,1.8-0.6,2.6-1.2
							C570.6,946.3,571.2,945.5,571.7,944.8z"/>
						<path class="st3" d="M545.7,892.4c3.8-1.3,5.6-5.8,4.3-9.7c-0.3-1-0.9-1.8-1.5-2.6c-0.6-0.7-1.4-1.3-2.3-1.7
							c-0.8-0.3-1.7-0.5-2.6-0.6c-0.9-0.1-1.9,0-2.8,0.2c1-0.3,1.8-0.7,2.6-1.3c0.8-0.5,1.4-1.2,1.9-1.9c1.1-1.4,1.6-2.9,1.6-4.6
							c-0.1-1.7-0.9-3.2-2.1-4.5c-0.6-0.6-1.3-1.2-2.2-1.6c-0.8-0.4-1.8-0.7-2.7-0.9c-1-0.1-2,0-2.9,0.3c-0.9,0.3-1.7,0.8-2.4,1.5
							c-1.4,1.4-2.3,3.6-2.2,6c0,0.6,0.1,1.2,0.3,1.8c0.1,0.3,0.2,0.6,0.3,0.8c0.1,0.3,0.2,0.5,0.4,0.8c0.2,0.5,0.5,1,0.9,1.4
							c0.3,0.4,0.7,0.8,1.1,1.1c0.8,0.6,1.7,1.1,2.7,1.2c0.9,0.2,1.9,0.1,2.9-0.1c-1,0.3-1.8,0.7-2.5,1.4c-0.7,0.6-1.2,1.5-1.6,2.4
							c-0.4,0.9-0.6,1.8-0.7,2.8c0,1,0.1,1.9,0.4,2.9C537.7,891.4,541.9,893.7,545.7,892.4z"/>
						<path class="st3" d="M555,897c-1.4-3.9-5.5-5.9-9.3-4.6c-3.8,1.3-5.7,5.5-4.3,9.4s5.6,6,9.3,4.6
							C554.4,905.1,556.4,900.9,555,897z"/>
						<path class="st3" d="M552.5,845c-0.8,1.6-2.2,3-3.8,3.7c-0.4,0.2-0.9,0.3-1.3,0.4c-0.4,0.1-0.9,0.2-1.4,0.2
							c-0.9,0.1-1.9-0.1-2.9-0.4c-0.9-0.3-1.8-0.9-2.5-1.5c-0.3-0.3-0.7-0.7-0.9-1.1c-0.3-0.4-0.5-0.8-0.7-1.3
							c-0.7-1.8-0.6-4.2,0.3-6.2c0.5-1,1.1-1.9,1.9-2.6c0.8-0.7,1.6-1.2,2.5-1.5c0.9-0.3,1.9-0.4,2.8-0.4c0.4,0,0.9,0.1,1.3,0.3
							C548.5,838.4,550,842,552.5,845z"/>
						<path class="st3" d="M542.6,863.1c0.9-0.2,1.7-0.7,2.5-1.2c1.5-1,2.6-2.5,3-4.2c0.4-1.8,0.1-3.6-0.7-5.2
							c-0.4-0.8-1-1.5-1.7-2.2c-0.7-0.6-1.5-1.1-2.5-1.5c-0.9-0.3-1.9-0.4-2.9-0.4c-0.9,0.1-1.9,0.4-2.7,0.9c-1.7,1-3.1,2.7-3.6,4.9
							c-0.5,2.2-0.1,4.5,1,6.1c0.5,0.8,1.2,1.5,2.1,2c0.8,0.5,1.7,0.8,2.7,0.9C540.7,863.4,541.7,863.3,542.6,863.1z"/>
						<path class="st3" d="M607.6,800.9c0,0.9,0.1,1.8,0.3,2.6c0,0.2,0.1,0.4,0.2,0.6c0.1,0.2,0.1,0.4,0.2,0.6
							c0.1,0.2,0.1,0.4,0.2,0.5c0.1,0.2,0.1,0.3,0.2,0.5c0.3,0.6,0.7,1.2,1.3,1.6c0.3,0.2,0.7,0.5,1,0.7c0.2,0.1,0.3,0.2,0.5,0.2
							c0.2,0.1,0.3,0.1,0.5,0.2s0.4,0.1,0.6,0.2c0.2,0,0.4,0.1,0.6,0.1c0.2,0,0.4,0.1,0.6,0.1c0.2,0,0.4,0,0.6,0.1
							c0.9,0,1.8-0.1,2.7-0.3c0.9-0.2,1.8-0.6,2.6-1.2c-0.8,0.6-1.5,1.3-2,2.1c-0.5,0.8-0.9,1.6-1.1,2.5c-0.5,1.7-0.4,3.5,0.5,5.1
							c0.8,1.6,2.3,2.9,4,3.5s3.7,0.7,5.5-0.1c1.8-0.8,3.2-2.3,3.8-4.1c0.6-1.8,0.5-4-0.5-6c-1-2-2.8-3.5-4.7-4
							c-1-0.3-1.9-0.3-2.9-0.2c-0.9,0.2-1.8,0.5-2.6,1.1c0.8-0.6,1.5-1.3,1.9-2.1c0.5-0.8,0.7-1.8,0.7-2.8c0-0.3,0-0.5,0-0.8
							c0-0.3-0.1-0.5-0.1-0.8c-0.1-0.3-0.1-0.5-0.2-0.8c-0.1-0.3-0.2-0.5-0.3-0.8c-0.1-0.3-0.3-0.5-0.4-0.8
							c-0.2-0.3-0.3-0.5-0.5-0.8c-0.4-0.5-1.1-1.2-1.6-1.6c-1-0.8-2.2-1.5-3.4-1.8c-0.3-0.1-0.6-0.1-0.9-0.2c-0.3,0-0.6-0.1-0.9-0.1
							c-0.3,0-0.6,0-0.8,0c-0.3,0-0.5,0.1-0.8,0.1c-1,0.2-1.9,0.7-2.7,1.3c-0.7,0.6-1.2,1.5-1.6,2.4
							C607.8,799,607.6,799.9,607.6,800.9z"/>
						<path class="st3" d="M595.3,800.9c0.3,0.4,0.6,0.7,0.9,1c0.2,0.1,0.3,0.3,0.5,0.4s0.3,0.3,0.5,0.4c0.3,0.2,0.7,0.4,1,0.6
							c0.4,0.2,0.7,0.3,1.1,0.4c0.4,0.1,0.8,0.2,1.2,0.2c1.6,0.1,2.9-0.5,4.3-1.5c0.7-0.5,1.3-1.1,1.9-1.8c0.6-0.7,1.1-1.5,1.4-2.5
							c0.3-0.9,0.5-1.9,0.3-2.9c-0.1-1-0.5-1.9-1.1-2.7c-0.3-0.4-0.7-0.8-1.1-1.2c-0.4-0.4-0.9-0.7-1.4-0.9
							c-0.3-0.1-0.5-0.3-0.8-0.4s-0.6-0.2-0.9-0.3c-0.6-0.2-1.2-0.2-1.9-0.3c-0.6,0-1.2,0-1.8,0.1s-1.2,0.3-1.7,0.5
							c-0.5,0.2-1,0.5-1.5,0.8c-0.2,0.2-0.4,0.3-0.6,0.5c-0.2,0.2-0.4,0.3-0.6,0.5c-0.4,0.4-0.6,0.8-0.9,1.2
							c-0.2,0.4-0.4,0.9-0.6,1.3c-0.3,0.9-0.3,1.9-0.1,2.9s0.6,1.9,1.1,2.7C594.7,800.2,595,800.6,595.3,800.9z"/>
						<path class="st3" d="M622.8,824.5c-0.7,1.7-0.8,3.7-0.1,5.6c1.5,3.8,5.7,5.8,9.4,4.3c-3.7,1.4-5.6,5.7-4,9.6
							c0.8,2,2.4,3.6,4.1,4.4c1.7,0.8,3.7,0.8,5.6,0c-1.8,0.8-3.1,2.3-3.8,4.1c-0.6,1.8-0.5,3.9,0.4,5.8c0.9,1.9,2.6,3.3,4.4,3.9
							c1.8,0.6,3.8,0.5,5.6-0.5s2.9-2.6,3.5-4.3c0.5-1.8,0.4-3.7-0.4-5.5c-0.9-1.8-2.4-3-4.1-3.7c-1.7-0.7-3.7-0.7-5.5,0.1
							c1.8-0.8,3.1-2.3,3.8-4s0.7-3.9-0.1-5.8c-1.5-3.7-5.7-5.7-9.4-4.2c3.7-1.4,5.6-5.7,4.1-9.6c-0.8-1.9-2.2-3.4-4-4.2
							c-1.7-0.8-3.7-0.9-5.6-0.1C624.8,821.3,623.5,822.8,622.8,824.5z"/>
						<path class="st3" d="M641,866.2c-0.2,0.9-0.2,1.9-0.1,2.9c0.2,1,0.5,2,1.1,2.9c0.3,0.5,0.6,0.9,1,1.3s0.8,0.7,1.2,1
							c0.8,0.6,1.7,1,2.7,1.2c1.9,0.4,3.8,0,5.5-1.1c1.6-1.2,2.6-2.9,2.9-4.7c0.2-0.9,0.2-1.8,0-2.7c-0.1-0.5-0.2-0.9-0.4-1.3
							c-0.2-0.4-0.4-0.9-0.6-1.3c-0.5-0.8-1.2-1.5-1.9-2s-1.6-0.9-2.5-1.2c-1.8-0.5-3.8-0.3-5.5,0.7
							C642.6,862.7,641.5,864.3,641,866.2z"/>
					</g>
				</g>
				<path class="st11" d="M656.6,1006.7c-0.1,0.5-0.3,1-0.4,1.4l-39.1-0.5c0,0,6.4-1.2,21-3.7c6.2-1,10.2-7.2,8.5-13.2
					c-2.1-7.6-5.1-14.8-6.7-17.1c3.4-0.8,6.3-1.4,8-1.7c0.2,0,0.5,0,0.7,0.1C655.8,977.1,661.8,988.3,656.6,1006.7z"/>
				<path class="st8" d="M921.1,637.6c-11.7,62.1-72.1,62.2-72.7,62.2c6-2.1,24-9,40-22.3c11.1-9.2,21.2-21.9,25.7-39.1
					c0.3-1.1,0.5-2.2,0.8-3.3C916.5,635.9,918.6,636.6,921.1,637.6z"/>
				<path class="st8" d="M1100.7,1037.1c-10.4-117.9-34.3-282.5-94-354.1c-1.1,0.7-1.9,1.3-2.5,1.8c4.3,4,7.9,9,10.7,15
					c6.2,13.4,5.9,38.9,1.3,69.5c-3.4,22.1-9,46.7-16.1,71.6c-0.7,2.5-1.4,4.9-2.1,7.3c-0.1,0.2-0.1,0.4-0.2,0.6
					c-0.7,2.2-1.4,4.5-2,6.7c-0.1,0.3-0.2,0.6-0.3,0.8c-0.7,2.2-1.3,4.3-2,6.5c-0.1,0.3-0.2,0.7-0.3,1c-0.7,2.1-1.4,4.2-2.1,6.3
					c-0.1,0.3-0.2,0.7-0.3,1c-0.7,2.1-1.4,4.3-2.2,6.4c-0.1,0.3-0.2,0.6-0.3,0.8c-0.8,2.2-1.5,4.4-2.3,6.6c-1.2,3.2-2.2,6-3.2,8.8
					c-19.1,50.7-42.5,93.4-62.8,102.8c0,0-12.2,10.6-35.5,10.3c1.2,3.6,2.5,7.3,3.9,10.8l57.3-1.7c0,0,80.5-179.9,86.7-249.4
					c0.1-0.8,0.2-1.7,0.3-2.5c12.5,48.8,20.5,214.5-62.2,264.4c39.1-13.1,97-71.7,96.1-116.1c2.6,75.5-26.7,123.5-91.6,151.8
					c48.9-12.4,93.4-40.4,111.1-76.1c1.8,45.9-11.5,89.4-11.5,89.4s-80.2,146.8-401.7,180.4c0.4,0.5,0.7,0.8,0.7,0.8
					s23.7,36.8,52.6,35.9c103.4-3.1,228.3,3,346.3-32.7c0,0,6.7,1.6,11.7,5.2c31.1-8.8,25.3-48.2,20.2-68.1
					c-1.8-7-3.5-11.6-3.5-11.6s5.2-3.3,10.4-15c4.3-9.8,8.6-25.6,9.8-50.4C1122.8,1080,1100.7,1037.1,1100.7,1037.1z"/>
				<path class="st27" d="M946,681.7c-21.1,23.9-57.7,225.8-78.6,230.5c-20.7,4.7-163.4-73.7-166-75.1c18.1,5.5,47.6,15.2,79,28.3
					c26,8.6,57.2,22.1,77.6,30.6c0.6-2.5,1.8-4.8,4.5-5.2c3.5-0.5,4.8,4,4.9,4.6c-0.1-0.6-1-6.2,2-8c1.3-0.8,4.9-1.5,5.8-0.1
					c14.3-45.1,45.9-187.2,68.3-203.9C944.4,682.9,945.2,682.3,946,681.7z"/>
				<path class="st28" d="M875.7,591.4c-12.7,3.3-21.5,0.6-30.6-12.2c-11.1-1.1-19.1-14.2-28-41c-63.8,12.9-100.9,1-115.7-6
					c0-2,0-4,0.1-6.1c7.8,1.6,50.1,9.5,104.9,5c3.5-0.3,7.1-0.6,10.7-1c3.1,3.5,10.8,13.1,13.9,24.5c1.8,6.6,7.5,11.4,14.3,12.2
					c1.8,0.2,3.3,0.4,4.5,0.6c1.7,13.3,9.5,23.6,19.9,24.6C871.8,592.1,873.8,591.9,875.7,591.4z"/>
				<g class="st29">
					<g>
						<g>
							<defs>
								<polygon id="SVGID_12_" points="1,-222.8 2,-222.8 1,-221.8 								"/>
							</defs>
							<defs>
								<polygon id="SVGID_13_" points="-1,-224.8 -2,-224.8 -1,-225.8 								"/>
							</defs>
							<clipPath id="SVGID_14_">
								<use xlink:href="#SVGID_12_"  style="overflow:visible;"/>
							</clipPath>
							<clipPath id="SVGID_15_" class="st30">
								<use xlink:href="#SVGID_13_"  style="overflow:visible;"/>
							</clipPath>
							
								<linearGradient id="SVGID_16_" gradientUnits="userSpaceOnUse" x1="791.6" y1="865.6357" x2="901.6968" y2="865.6357" gradientTransform="matrix(1 0 0 -1 0 1348.4968)">
								<stop  offset="0" style="stop-color:#000000"/>
								<stop  offset="1" style="stop-color:#FFFFFF"/>
							</linearGradient>
							<path class="st31" d="M897.7,511.2L897.7,511.2c-11.9,4.5-23.8,8.1-35.5,11c-19.3,4.7-38.1,7.5-55.8,8.9
								c-3.4,0.3-6.8,0.5-10.1,0.7c2.4-33.9-1.7-63.7-4.7-80.2h1.2c45.7,0,82.7-10.9,82.7-17.7c0.9,0.7,1.7,1.5,2.4,2.3
								c1.9,2,3.5,4.3,4.7,6.8c0.7,1.5,1.3,3,1.8,4.6c0,0.2,0.1,0.3,0.1,0.5c3,10.9,7.9,27.8,14.5,47.9c0.6,1.7,1.1,3.5,1.7,5.3
								c0.2,0.7,0.5,1.5,0.7,2.2C902.4,506.7,900.8,510,897.7,511.2z"/>
						</g>
					</g>
					
						<linearGradient id="SVGID_17_" gradientUnits="userSpaceOnUse" x1="791.6" y1="865.6357" x2="901.6968" y2="865.6357" gradientTransform="matrix(1 0 0 -1 0 1348.4968)">
						<stop  offset="0" style="stop-color:#38130F"/>
						<stop  offset="1" style="stop-color:#38130F"/>
					</linearGradient>
					<path class="st32" d="M897.7,511.2c-11.9,4.5-23.8,8.1-35.5,11c-19.3,4.7-38.1,7.5-55.8,8.9c-3.4,0.3-6.8,0.5-10.1,0.7
						c2.4-33.9-1.7-63.7-4.7-80.2h1.2c45.7,0,82.7-10.9,82.7-17.7c0.9,0.7,1.7,1.5,2.4,2.3c1.9,2,3.5,4.3,4.7,6.8
						c0.7,1.5,1.3,3,1.8,4.6c0,0.2,0.1,0.3,0.1,0.5c3,10.9,7.9,27.8,14.5,47.9c0.6,1.7,1.1,3.5,1.7,5.3c0.2,0.7,0.5,1.5,0.7,2.2
						C902.4,506.7,900.8,510,897.7,511.2z"/>
				</g>
				<path class="st33" d="M892.4,1028.5c-29.7,41.1-116.6,79.6-180.4,101.7c-63.2,21.9-53.5,103.4-53.4,104.9
					c-7.7-18-12.2-44.6,6-74.2c8.9-14.6,30.5-29.6,57.8-43.9c27.4-14.3,60.5-27.9,92.6-39.7C860.5,1059.4,891.4,1029.4,892.4,1028.5
					z"/>
			</g>
			<g>
				<g>
					<g>
						<g>
							<path class="st34" d="M545.9,1304.6c-2.6,0-5.2-1.1-7-3.3c-3.2-3.8-2.6-9.5,1.2-12.7l108.5-89.1c3.8-3.2,9.5-2.6,12.7,1.2
								s2.6,9.5-1.2,12.7l-108.5,89.1C549.9,1303.9,547.9,1304.6,545.9,1304.6z"/>
							<path class="st35" d="M654.3,1206.6l-108.5,89.1h-47.1l36.4-29.9c9.5-7.8,4-23.1-8.3-23.1h-7.1c-18,0-35.5,6.3-49.4,17.7
								l-43,35.3h-69.9l108.5-89.1H654.3z"/>
							<path class="st34" d="M762.8,1304.6c-2,0-4-0.7-5.7-2l-108.4-89.1c-3.8-3.2-4.4-8.8-1.2-12.7c3.2-3.8,8.8-4.4,12.7-1.2
								l108.4,89.1c3.8,3.2,4.4,8.8,1.2,12.7C768,1303.5,765.4,1304.6,762.8,1304.6z"/>
							<path class="st34" d="M654.3,1215.5c-2,0-4-0.7-5.7-2.1l-108.5-89.1c-3.8-3.2-4.4-8.8-1.2-12.7c3.2-3.8,8.8-4.4,12.7-1.2
								l108.5,89.1c3.8,3.2,4.4,8.8,1.2,12.7C659.5,1214.4,656.9,1215.5,654.3,1215.5z"/>
							<g>
								<polygon class="st2" points="654.3,1206.6 465.9,1206.6 357.5,1117.5 545.9,1117.5 								"/>
								<path class="st36" d="M656.3,1207.3H465.7c-0.2-0.2-110.1-90.5-110.1-90.5h190.6C546.3,1116.9,656.3,1207.3,656.3,1207.3z
									 M466.2,1205.9h186.2l-106.8-87.7H359.4L466.2,1205.9z"/>
							</g>
							
								<linearGradient id="SVGID_18_" gradientUnits="userSpaceOnUse" x1="466" y1="97.3893" x2="762.8" y2="97.3893" gradientTransform="matrix(1 0 0 -1 0 1348.4968)">
								<stop  offset="1.117320e-02" style="stop-color:#CF4843"/>
								<stop  offset="1" style="stop-color:#DF7572"/>
							</linearGradient>
							<path class="st37" d="M762.8,1295.7h-47l-40.1-33l-4-3.3c-13.2-10.8-29.7-16.7-46.7-16.7h-17c-9.4,0-13.7,11.8-6.4,17.8
								l13.3,10.9l29.6,24.3h-70L466,1206.6h188.4l61.4,50.4L762.8,1295.7z"/>
							<path class="st38" d="M581.4,1301.4c-1.8,2.2-4.4,3.3-7,3.3c-2,0-4-0.7-5.7-2.1l-94.3-77.5l-8.4-6.9l-114.2-93.8
								c-3.8-3.2-4.4-8.8-1.2-12.7c3.2-3.8,8.8-4.4,12.7-1.2l116.9,96.1l9.5,7.8l90.5,74.3C584,1291.9,584.5,1297.6,581.4,1301.4z"
								/>
							
								<linearGradient id="SVGID_19_" gradientUnits="userSpaceOnUse" x1="465.9" y1="186.4904" x2="762.8" y2="186.4904" gradientTransform="matrix(1 0 0 -1 0 1348.4968)">
								<stop  offset="1.117320e-02" style="stop-color:#CF4843"/>
								<stop  offset="1" style="stop-color:#DF7572"/>
							</linearGradient>
							<polygon class="st39" points="762.8,1117.5 654.3,1206.6 465.9,1206.6 574.4,1117.5 							"/>
							<path class="st38" d="M580.1,1124.3l-91.9,75.5l-36.5,30l-88.6,72.7c-1.7,1.4-3.7,2.1-5.7,2.1c-2.6,0-5.2-1.1-7-3.3
								c-3.2-3.8-2.6-9.5,1.2-12.7l105-86.3l7.3-6l104.6-85.9c3.8-3.2,9.5-2.6,12.7,1.2C584.5,1115.6,584,1121.3,580.1,1124.3z"/>
							<path class="st34" d="M768.5,1124.3l-107.1,88l-7.1-5.8l108.4-89.1h-14.2l8.4-7c3.8-3.2,9.5-2.6,12.7,1.2
								C772.9,1115.6,772.4,1121.3,768.5,1124.3z"/>
						</g>
						<polygon class="st40" points="386,1109.7 545.6,1115.2 553.1,1123.3 465.9,1194.9 						"/>
						<path class="st41" d="M465.9,1172.8v22.1l-94.3-77.4l4-2.1l5.2,1.3l0.8-2.5l3.4-1l1-3.4
							C446.5,1142.5,465.9,1172.8,465.9,1172.8z"/>
						<path class="st42" d="M549.1,1126.6L466,1195v-22.1c0,0,6.8-6.5,17.4-15.2c0.4-0.3,0.7-0.6,1.1-0.9c3.8-3.1,8-6.4,12.6-9.7
							c0.4-0.3,0.7-0.5,1.1-0.8c3.7-2.7,7.5-5.4,11.6-8.1c0.4-0.3,0.8-0.5,1.2-0.8c3.5-2.3,7.2-4.6,10.9-6.8
							c0.4-0.3,0.8-0.5,1.2-0.7c3.5-2,7.1-3.9,10.6-5.7c0.4-0.2,0.9-0.4,1.3-0.6c2.7-1.3,5.5-2.5,8.2-3.6L549.1,1126.6z"/>
						<polygon class="st40" points="543.2,1119.9 557.2,1119.9 549.1,1126.6 						"/>
						
							<linearGradient id="SVGID_20_" gradientUnits="userSpaceOnUse" x1="387.5" y1="200.9743" x2="461.9982" y2="200.9743" gradientTransform="matrix(1 0 0 -1 0 1348.4968)">
							<stop  offset="1.117320e-02" style="stop-color:#CF4843"/>
							<stop  offset="1" style="stop-color:#DF7572"/>
						</linearGradient>
						<path class="st43" d="M387.5,1116.6c7.1,3.9,14.1,8.2,20.8,12.7c6.8,4.5,13.3,9.3,19.7,14.4c6.3,5.1,12.5,10.5,18.2,16.2
							c5.7,5.8,11,12,15.7,18.7c-4.9-6.5-10.3-12.6-16.1-18.3c-5.9-5.6-12-11-18.3-16.1c-6.3-5.1-12.9-9.9-19.6-14.5
							c-3.3-2.3-6.7-4.6-10.2-6.8C394.5,1120.8,391,1118.7,387.5,1116.6z"/>
						
							<linearGradient id="SVGID_21_" gradientUnits="userSpaceOnUse" x1="382.1" y1="193.5325" x2="461.9889" y2="193.5325" gradientTransform="matrix(1 0 0 -1 0 1348.4968)">
							<stop  offset="1.117320e-02" style="stop-color:#CF4843"/>
							<stop  offset="1" style="stop-color:#DF7572"/>
						</linearGradient>
						<path class="st44" d="M382.1,1122.2c7.7,4,15.2,8.5,22.5,13.2c7.3,4.8,14.4,9.8,21.2,15.2c6.8,5.4,13.3,11.2,19.5,17.4
							c6.1,6.2,11.8,12.8,16.8,19.9c-2.7-3.4-5.2-6.9-8.2-10.1c-2.8-3.3-5.9-6.4-8.9-9.5c-6.2-6-12.7-11.8-19.6-17.1
							c-6.8-5.4-13.8-10.5-21-15.3c-3.6-2.4-7.3-4.7-11-7C389.6,1126.4,385.9,1124.2,382.1,1122.2z"/>
						
							<linearGradient id="SVGID_22_" gradientUnits="userSpaceOnUse" x1="469.5" y1="199.0264" x2="541.7" y2="199.0264" gradientTransform="matrix(1 0 0 -1 0 1348.4968)">
							<stop  offset="1.117320e-02" style="stop-color:#CF4843"/>
							<stop  offset="1" style="stop-color:#DF7572"/>
						</linearGradient>
						<path class="st45" d="M469.5,1173.9c5.2-5.1,10.7-9.9,16.4-14.5c5.7-4.6,11.6-8.9,17.6-13.1c6-4.1,12.2-8,18.6-11.6
							c6.3-3.7,13-6.8,19.6-9.7l-4.9,2.4l-2.5,1.2l-2.4,1.3l-4.8,2.6l-4.7,2.7c-6.3,3.7-12.5,7.5-18.5,11.7
							c-6,4.1-11.9,8.4-17.6,12.9c-2.9,2.3-5.7,4.5-8.5,6.9C475,1169.1,472.2,1171.4,469.5,1173.9z"/>
						
							<linearGradient id="SVGID_23_" gradientUnits="userSpaceOnUse" x1="468.6" y1="191.0852" x2="540.3" y2="191.0852" gradientTransform="matrix(1 0 0 -1 0 1348.4968)">
							<stop  offset="1.117320e-02" style="stop-color:#CF4843"/>
							<stop  offset="1" style="stop-color:#DF7572"/>
						</linearGradient>
						<path class="st46" d="M468.6,1185c5.1-5.6,10.5-10.9,16.1-16c5.6-5.1,11.4-10,17.4-14.7c6-4.7,12.1-9.1,18.5-13.2
							c6.3-4.2,13-7.8,19.7-11.3c-3.3,1.9-6.7,3.6-9.8,5.6c-1.6,1-3.2,1.9-4.8,3l-4.7,3.1c-6.3,4.2-12.4,8.6-18.4,13.3
							c-6,4.6-11.8,9.5-17.4,14.5c-2.8,2.5-5.6,5.1-8.4,7.7C474,1179.7,471.3,1182.3,468.6,1185z"/>
						<polygon class="st3" points="374.6,1115.9 465.9,1192.1 465.9,1194.9 371.7,1117.5 						"/>
						<polygon class="st3" points="465.9,1194.9 549.9,1125.9 548.7,1124.4 465.9,1191.7 						"/>
						<g class="st47">
							
								<linearGradient id="SVGID_24_" gradientUnits="userSpaceOnUse" x1="412.8916" y1="209.8047" x2="466.6526" y2="209.8047" gradientTransform="matrix(1 0 0 -1 0 1348.4968)">
								<stop  offset="1.117320e-02" style="stop-color:#CF4843"/>
								<stop  offset="1" style="stop-color:#DF7572"/>
							</linearGradient>
							<path class="st48" d="M465.9,1164.6c-0.3,0-0.5-0.1-0.6-0.4c-14.5-30.5-51.7-49.9-52.1-50.1c-0.3-0.2-0.5-0.6-0.3-0.9
								s0.6-0.5,0.9-0.3c0.4,0.2,38,19.9,52.7,50.7c0.2,0.3,0,0.8-0.3,0.9C466.2,1164.6,466.1,1164.6,465.9,1164.6z"/>
							
								<linearGradient id="SVGID_25_" gradientUnits="userSpaceOnUse" x1="435.1195" y1="212.8014" x2="484.5" y2="212.8014" gradientTransform="matrix(1 0 0 -1 0 1348.4968)">
								<stop  offset="1.117320e-02" style="stop-color:#CF4843"/>
								<stop  offset="1" style="stop-color:#DF7572"/>
							</linearGradient>
							<path class="st49" d="M484.5,1156.7c-0.4,0.3-0.7,0.6-1.1,0.9c-16.4-26.1-47.6-42.5-47.9-42.6c-0.3-0.2-0.5-0.6-0.3-0.9
								s0.6-0.5,0.9-0.3C436.4,1114,467.9,1130.4,484.5,1156.7z"/>
							
								<linearGradient id="SVGID_26_" gradientUnits="userSpaceOnUse" x1="457.3195" y1="217.646" x2="498.1" y2="217.646" gradientTransform="matrix(1 0 0 -1 0 1348.4968)">
								<stop  offset="1.117320e-02" style="stop-color:#CF4843"/>
								<stop  offset="1" style="stop-color:#DF7572"/>
							</linearGradient>
							<path class="st50" d="M498.1,1146.2c-0.4,0.3-0.7,0.5-1.1,0.8c-16.7-19.3-39.1-31-39.3-31.1c-0.3-0.2-0.5-0.6-0.3-0.9
								c0.2-0.3,0.6-0.5,0.9-0.3C458.6,1114.9,481.2,1126.6,498.1,1146.2C498.1,1146.1,498.1,1146.1,498.1,1146.2z"/>
							
								<linearGradient id="SVGID_27_" gradientUnits="userSpaceOnUse" x1="479.5757" y1="221.6416" x2="510.8562" y2="221.6416" gradientTransform="matrix(1 0 0 -1 0 1348.4968)">
								<stop  offset="1.117320e-02" style="stop-color:#CF4843"/>
								<stop  offset="1" style="stop-color:#DF7572"/>
							</linearGradient>
							<path class="st51" d="M510.8,1137.3c-0.4,0.3-0.8,0.5-1.2,0.8c-14.6-13.4-29.6-21.2-29.7-21.3c-0.3-0.2-0.5-0.6-0.3-0.9
								c0.2-0.3,0.6-0.5,0.9-0.3c0.2,0.1,15.4,8,30.2,21.6C510.8,1137.2,510.8,1137.2,510.8,1137.3z"/>
							
								<linearGradient id="SVGID_28_" gradientUnits="userSpaceOnUse" x1="501.8195" y1="224.988" x2="523.0304" y2="224.988" gradientTransform="matrix(1 0 0 -1 0 1348.4968)">
								<stop  offset="1.117320e-02" style="stop-color:#CF4843"/>
								<stop  offset="1" style="stop-color:#DF7572"/>
							</linearGradient>
							<path class="st52" d="M523,1129.8c-0.4,0.2-0.8,0.5-1.2,0.7c-10.6-8.1-19.5-12.8-19.6-12.8c-0.3-0.2-0.5-0.6-0.3-0.9
								c0.2-0.3,0.6-0.5,0.9-0.3c0.1,0.1,9.2,4.8,20,13.1C522.9,1129.6,523,1129.7,523,1129.8z"/>
							
								<linearGradient id="SVGID_29_" gradientUnits="userSpaceOnUse" x1="524.0242" y1="227.7348" x2="534.9849" y2="227.7348" gradientTransform="matrix(1 0 0 -1 0 1348.4968)">
								<stop  offset="1.117320e-02" style="stop-color:#CF4843"/>
								<stop  offset="1" style="stop-color:#DF7572"/>
							</linearGradient>
							<path class="st53" d="M535,1123.5c-0.5,0.2-0.9,0.4-1.3,0.6c-5.5-3.5-9.2-5.5-9.2-5.5c-0.3-0.2-0.5-0.6-0.3-0.9
								s0.6-0.5,0.9-0.3c0,0,4,2.1,9.7,5.8C534.9,1123.3,534.9,1123.4,535,1123.5z"/>
						</g>
					</g>
					<g>
						<path class="st2" d="M662,1161.2c2.2,7.1-0.7,14.7-8.8,20.4c-13.2,9.1-38.9,11.7-59.4,2.7c-26.8-11.8-27.1-33.7,0.7-43
							c16.2-5.4,35.3-3.5,48.7,2.4c-9.1-2.9-20.2-3.3-29.4,0.1c-17.3,6.5-17.6,21.5-1.2,30.6c13.5,7.5,32,6.8,42,0.2
							C660.1,1171,662.6,1166,662,1161.2z"/>
						<polygon class="st2" points="646.1,1146.3 653.7,1150.6 659.7,1147.5 658,1153 664.3,1156.6 656.9,1156.4 655.1,1161.9 
							651.9,1156.3 643,1156.1 649.7,1152.6 						"/>
					</g>
				</g>
				<polygon class="st34" points="489.6,1214.3 474.4,1225.1 466,1218.1 480.1,1206.6 				"/>
				<g>
					<g>
						<defs>
							<polygon id="SVGID_30_" points="1,-222.8 2,-222.8 1,-221.8 							"/>
						</defs>
						<defs>
							<polygon id="SVGID_31_" points="-1,-224.8 -2,-224.8 -1,-225.8 							"/>
						</defs>
						<clipPath id="SVGID_32_">
							<use xlink:href="#SVGID_30_"  style="overflow:visible;"/>
						</clipPath>
						<clipPath id="SVGID_33_" class="st54">
							<use xlink:href="#SVGID_31_"  style="overflow:visible;"/>
						</clipPath>
						
							<linearGradient id="SVGID_34_" gradientUnits="userSpaceOnUse" x1="606.3624" y1="41.2017" x2="594.7587" y2="144.682" gradientTransform="matrix(1 0 0 -1 0 1348.4968)">
							<stop  offset="0" style="stop-color:#000000"/>
							<stop  offset="0.9944" style="stop-color:#FFFFFF"/>
						</linearGradient>
						<path class="st55" d="M715.7,1257l-40.1,5.7l-4-3.3c-13.2-10.8-29.7-16.7-46.7-16.7h-17c-9.4,0-13.7,11.8-6.4,17.8l13.3,10.9
							l-47.6,6.8l-87.1-71.5h174.2L715.7,1257z"/>
					</g>
				</g>
				
					<linearGradient id="SVGID_35_" gradientUnits="userSpaceOnUse" x1="606.3624" y1="41.2017" x2="594.7587" y2="144.682" gradientTransform="matrix(1 0 0 -1 0 1348.4968)">
					<stop  offset="0" style="stop-color:#DF7572"/>
					<stop  offset="0.9944" style="stop-color:#A52420"/>
				</linearGradient>
				<path class="st56" d="M715.7,1257l-40.1,5.7l-4-3.3c-13.2-10.8-29.7-16.7-46.7-16.7h-17c-9.4,0-13.7,11.8-6.4,17.8l13.3,10.9
					l-47.6,6.8l-87.1-71.5h174.2L715.7,1257z"/>
			</g>
		</g>
	</g>
</g>
</svg>
