<?xml version="1.0" encoding="utf-8"?>
<!-- Generator: Adobe Illustrator 22.1.0, SVG Export Plug-In . SVG Version: 6.00 Build 0)  -->
<svg version="1.1" id="Layer_1" xmlns="http://www.w3.org/2000/svg" xmlns:xlink="http://www.w3.org/1999/xlink" x="0px" y="0px"
	 viewBox="0 0 3500 1800" style="enable-background:new 0 0 3500 1800;" xml:space="preserve">
<style type="text/css">
	.st0{fill:#F294A9;}
	.st1{fill:#F7BDCD;}
	.st2{fill:#FFFFFF;}
	.st3{fill:#EC668B;}
	.st4{opacity:0.33;fill:#EC668B;}
	.st5{fill:#F18871;}
	.st6{fill:url(#SVGID_1_);}
	.st7{opacity:0.25;fill:#CA8975;}
	.st8{fill:#CA8975;}
	.st9{fill:url(#SVGID_2_);}
	.st10{fill:#F2928D;}
	.st11{fill:#AF543F;}
	.st12{fill:url(#SVGID_3_);}
	.st13{fill:url(#SVGID_4_);}
	.st14{fill:#F8DBBD;}
	.st15{fill:url(#SVGID_5_);}
	.st16{fill:url(#SVGID_6_);}
	.st17{fill:#46161C;}
	.st18{fill:url(#SVGID_7_);}
	.st19{fill:#872D1D;}
	.st20{fill:url(#SVGID_8_);}
	.st21{fill:#A13324;}
	.st22{opacity:0.75;fill:#D45951;}
	.st23{fill:url(#SVGID_9_);}
	.st24{fill:#FACDBB;}
	.st25{opacity:0.2;fill:#F2928D;}
	.st26{fill:#FCE9D8;}
	.st27{opacity:0.75;fill:#F2928D;}
	.st28{opacity:0.5;}
	.st29{filter:url(#Adobe_OpacityMaskFilter);}
	.st30{filter:url(#Adobe_OpacityMaskFilter_1_);}
	.st31{mask:url(#SVGID_10_);fill:url(#SVGID_11_);}
	.st32{fill:url(#SVGID_12_);}
	.st33{opacity:0.5;fill:#FCE9D8;}
	.st34{fill:#651F1C;}
	.st35{fill:#9F5552;}
	.st36{fill:#020203;}
	.st37{fill:url(#SVGID_13_);}
	.st38{fill:#872926;}
	.st39{fill:url(#SVGID_14_);}
	.st40{fill:#FDF4EB;}
	.st41{fill:#FAE4CE;}
	.st42{fill:#F8D1AE;}
	.st43{opacity:0.75;fill:url(#SVGID_15_);}
	.st44{opacity:0.75;fill:url(#SVGID_16_);}
	.st45{opacity:0.75;fill:url(#SVGID_17_);}
	.st46{opacity:0.75;fill:url(#SVGID_18_);}
	.st47{opacity:0.75;}
	.st48{fill:url(#SVGID_19_);}
	.st49{fill:url(#SVGID_20_);}
	.st50{fill:url(#SVGID_21_);}
	.st51{fill:url(#SVGID_22_);}
	.st52{fill:url(#SVGID_23_);}
	.st53{fill:url(#SVGID_24_);}
	.st54{filter:url(#Adobe_OpacityMaskFilter_2_);}
	.st55{filter:url(#Adobe_OpacityMaskFilter_3_);}
	.st56{mask:url(#SVGID_25_);fill:url(#SVGID_26_);}
	.st57{fill:url(#SVGID_27_);}
</style>
<g>
	<g>
		<rect class="st0" width="3500" height="1800"/>
		<path class="st1" d="M75.1,1203.6c-32.4-79.6-37.2-171.8-3.4-250.8c-3.5,41,21.3,80.6,54.6,104.8c33.3,24.2,74.1,35.6,114.3,44.4
			c40.2,8.8,80.4,17.9,119,32.2c216.5,80.3,177.1,362.7-5.9,313.5C266.9,1424.3,144.6,1374.3,75.1,1203.6z"/>
		<path class="st2" d="M503.5,1362.8c-189.8-26.6-320.3-91.3-388.3-192.3C43.4,1063.8,70,953.7,70.3,952.6c0.3-1,1.3-1.7,2.4-1.4
			c1.1,0.3,1.7,1.3,1.4,2.4c-0.3,1.1-26.4,109.6,44.4,214.8c67.3,100,196.9,164.1,385.2,190.5c1.1,0.2,1.8,1.2,1.7,2.2
			C505.3,1362.1,504.5,1362.8,503.5,1362.8z"/>
		<path class="st2" d="M454.8,1354.8c-0.2,0-0.4,0-0.5-0.1c-1.1-0.3-107.6-32.6-139.9-234.2c-0.2-1.1,0.6-2.1,1.6-2.3
			c1.1-0.1,2.1,0.6,2.3,1.6c31.8,198.9,136,230.7,137.1,231c1,0.3,1.7,1.4,1.4,2.4C456.5,1354.3,455.7,1354.8,454.8,1354.8z"/>
		<path class="st1" d="M591.9,899c-4.8-14.1-21.5-44.1-30.8-56c-15.8-20.4-33.2-43.9-28.8-69.4c4.3-24.7,27.4-41,48.7-54.3
			c21.3-13.3,44.6-29,49.7-53.6c7.1-34.5-25.5-65.3-27.2-100.5c-1.2-24,12.2-46.2,27.4-64.8c15.1-18.6,32.8-35.7,43-57.4
			c10.2-21.7,10.8-50.3-6.2-67.2c-15.3-15.2-39.7-16.4-60.9-12.4c-45.6,8.7-86.7,38.3-109.5,78.6c-12.6,22.3-20,47.7-36.3,67.5
			c-16.2,19.6-39.6,31.6-59.9,46.8c-20.4,15.3-39.1,37-38.7,62.4c0.3,21.4,14.3,40.8,14.5,62.2c0.3,32-28.7,55.2-48.6,80.3
			c-38.9,49-45.1,121.8-15.8,177.1L591.9,899z"/>
		<path class="st2" d="M420.2,924.9c-0.2,0-0.4,0-0.6,0c-1.1-0.1-1.9-1.1-1.7-2.2c3.1-27.2,5.5-53.4,7.7-78.7
			c14.2-158,25.4-282.7,192.3-447.7c0.8-0.8,2-0.8,2.8,0c0.8,0.8,0.8,2,0,2.8c-165.9,163.9-177,288.1-191.1,445.2
			c-2.3,25.4-4.6,51.6-7.7,78.8C421.7,924.1,421,924.7,420.2,924.9z"/>
		<path class="st1" d="M1172.7,1082.1c6.5-6.7,15-15.7,22-24.3c7.4-8.7,14.2-17.9,20.9-27.2c6.8-9.1,12.5-19.1,18.7-28.4l16.1-29.6
			c20-39.9,32.3-82.1,36.4-123.7c3.8-41.6,2.3-82.5-9.2-122c-3.3-19.7-13-39-19.4-58c-1.5-4.8-3.8-9.5-6.4-14.1l-7.2-13.9
			l-14.1-27.6l-3.4-6.6c-25.9-50.9-5.7-113.2,45.2-139.2c50.9-25.9,113.2-5.7,139.1,45.2c3.5,6.9,6.3,14.6,8.2,21.9l10.7,42.7
			l5.1,21.2c1.8,7,3.4,14.1,4.1,21.6c3.4,29.7,9,58.1,7.8,88.3c2.4,59.1-9,118.9-27.8,173.6c-19.1,55-48.2,104.9-83.6,147.5
			c-9,10.5-18.3,20.7-27.5,30.8c-10,9.5-19.3,19.4-29.7,28.2c-10.2,9-20.6,17.7-31.5,25.8c-11.1,8.4-21.5,15.6-34.9,23.8
			c-16.1,9.9-37.3,4.9-47.2-11.2c-8.4-13.6-6.1-30.9,4.5-41.9L1172.7,1082.1z"/>
		<g>
			<path class="st2" d="M1192.5,1111.3c-0.4,0-0.8-0.2-1-0.5c-0.4-0.5-0.2-1.3,0.3-1.6c0.8-0.5,80.5-53.2,132.8-156.4
				c48.2-95.2,82.3-254.1-29.2-470.5c-0.3-0.6-0.1-1.3,0.5-1.6c0.6-0.3,1.3-0.1,1.6,0.5c49.4,95.9,74.7,188.8,75.2,275.9
				c0.3,69.7-15.1,136-46,196.9c-52.6,103.7-132.8,156.7-133.6,157.2C1193,1111.3,1192.8,1111.3,1192.5,1111.3z"/>
			<path class="st2" d="M1369.9,721.2c-0.5,0-1-0.4-1.1-0.9c-19.4-73.3-127.9-110.7-129-111.1c-0.6-0.2-1-0.9-0.7-1.5
				c0.2-0.6,0.9-0.9,1.5-0.8c1.1,0.4,110.8,38.2,130.5,112.7c0.2,0.6-0.2,1.3-0.8,1.4C1370.1,721.1,1370,721.2,1369.9,721.2z"/>
			<path class="st2" d="M1352.6,624.6c-0.2,0-0.4,0-0.5-0.1c-0.6-0.3-0.8-1-0.5-1.6c0.3-0.6,33.2-64.4,28.3-131.6
				c0-0.6,0.4-1.2,1.1-1.3c0.7,0.1,1.2,0.4,1.3,1.1c5,67.9-28.2,132.3-28.6,132.9C1353.5,624.4,1353.1,624.6,1352.6,624.6z"/>
			<path class="st2" d="M1362,852.4c-0.4,0-0.9-0.3-1.1-0.7c-0.3-0.6,0-1.3,0.6-1.6c0.6-0.3,59.4-28.1,79-90.2
				c0.2-0.6,0.9-0.9,1.5-0.8c0.6,0.2,1,0.9,0.8,1.5c-19.9,63.1-79.6,91.4-80.3,91.7C1362.3,852.3,1362.2,852.4,1362,852.4z"/>
			<path class="st2" d="M1340.5,922.2c-0.1,0-0.3,0-0.4-0.1c-0.5-0.2-46.6-17-44.7-72.9c0-0.6,0.6-1.2,1.2-1.2
				c0.7,0,1.2,0.6,1.2,1.2c-1.9,54.2,42.6,70.4,43.1,70.6c0.6,0.2,0.9,0.9,0.7,1.5C1341.4,921.9,1340.9,922.2,1340.5,922.2z"/>
		</g>
		<path class="st2" d="M1362.4,1100.9L877.5,1586H655.1l-467.9-467.9c-16.1-16.1-16.1-41.9,0-57.8l567.2-567.4
			c16.1-15.9,41.9-15.9,58,0l550,550.2C1378.5,1059,1378.5,1085,1362.4,1100.9z"/>
		<g>
			<g>
				<path class="st1" d="M677.5,1685.8l-36.3-0.2c-7.8-0.1-10.2-6.4-10.1-14.2v-32.7c0.1-7.8,6.4-14,14.2-14l32.7,0.2
					c7.8,0.1,14,6.4,14,14.2l-0.2,32.7C691.6,1679.6,685.2,1685.9,677.5,1685.8z"/>
				<path class="st1" d="M819.6,1686.8l-55.2-0.4c-1.6,0-2.8-1.3-2.8-2.8l0.4-55.2c0-1.6,1.3-2.8,2.8-2.8l55.2,0.4
					c1.6,0,2.8,1.3,2.8,2.8l-0.4,55.2C822.4,1685.6,821.1,1686.9,819.6,1686.8z"/>
				<path class="st1" d="M931.4,1687.7l-32.7-0.2c-7.8-0.1-14-6.4-14-14.2l0.2-32.7c0.1-7.8,6.4-14,14.2-14l32.7,0.2
					c7.8,0.1,14,6.4,14,14.2l-0.2,32.7C945.6,1681.5,939.2,1687.7,931.4,1687.7z"/>
			</g>
			<g>
				<g>
					<path class="st1" d="M693,1774.5l-57.3-0.4c-1,0-1.8-0.8-1.8-1.8l0.4-57.3c0-1,0.8-1.8,1.8-1.8l57.3,0.4c1,0,1.8,0.8,1.8,1.8
						l-0.4,57.3C694.8,1773.7,694,1774.5,693,1774.5z"/>
					<path class="st1" d="M816.1,1775.5l-57.3-0.4c-1,0-1.8-0.8-1.8-1.8l0.4-57.3c0-1,0.8-1.8,1.8-1.8l57.3,0.4c1,0,1.8,0.8,1.8,1.8
						l-0.4,57.3C817.9,1774.7,817.1,1775.5,816.1,1775.5z"/>
					<path class="st1" d="M930.8,1776.3l-32.7-0.2c-7.8-0.1-14-6.4-14-14.2l0.2-32.7c0.1-7.8,6.4-14,14.2-14l32.7,0.2
						c7.8,0.1,14,6.4,14,14.2l-0.2,32.7C944.9,1770.1,938.6,1776.3,930.8,1776.3z"/>
				</g>
			</g>
		</g>
		<g>
			<g>
				<path class="st2" d="M698.1,1676.2c-0.1,0-32.8-0.2-32.8-0.2c-4.3,0-8.3-1.7-11.3-4.8c-3-3.1-4.6-7.1-4.6-11.4l0.2-32.7
					c0.1-8.8,7.3-15.9,16-15.9c0.1,0,32.8,0.2,32.8,0.2c8.8,0.1,16,7.3,15.9,16.2l-0.2,32.7c0,4.3-1.7,8.3-4.8,11.3
					C706.3,1674.6,702.3,1676.2,698.1,1676.2z M698,1672.3c3.3,0,6.3-1.2,8.6-3.5c2.3-2.3,3.6-5.3,3.6-8.5l0.2-32.7
					c0-6.7-5.3-12.1-12-12.2l-32.7-0.2c-6.7,0-12.1,5.4-12.2,12l-0.2,32.7c0,3.2,1.2,6.3,3.5,8.6c2.3,2.3,5.3,3.6,8.5,3.6
					L698,1672.3z"/>
				<path class="st2" d="M825.1,1677.2c-0.1,0-32.8-0.2-32.8-0.2c-8.8-0.1-16-7.3-15.9-16.2l0.2-32.7c0.1-8.8,7.2-15.9,16-15.9
					c0.1,0,32.8,0.2,32.8,0.2c4.3,0,8.3,1.7,11.3,4.8c3,3,4.6,7.1,4.6,11.4l-0.2,32.7c0,4.3-1.7,8.3-4.8,11.3
					C833.3,1675.5,829.3,1677.2,825.1,1677.2z M792.6,1616.1c-6.6,0-12.1,5.4-12.1,12l-0.2,32.7c0,6.7,5.3,12.1,12,12.2l32.7,0.2
					c3.3,0,6.3-1.2,8.6-3.5c2.3-2.3,3.6-5.3,3.6-8.5l0.2-32.7c0-3.2-1.2-6.3-3.5-8.6c-2.3-2.3-5.3-3.6-8.5-3.6L792.6,1616.1
					C792.7,1616.1,792.6,1616.1,792.6,1616.1z"/>
				<path class="st2" d="M952.1,1678.1c-0.1,0-32.8-0.2-32.8-0.2c-4.3,0-8.3-1.7-11.3-4.8c-3-3-4.6-7.1-4.6-11.4l0.2-32.7
					c0-4.3,1.7-8.3,4.8-11.3c3-3,7.2-4.8,11.4-4.6l32.7,0.2c4.3,0,8.3,1.7,11.3,4.8c3,3.1,4.6,7.1,4.6,11.4l-0.2,32.7
					c0,4.3-1.7,8.3-4.8,11.3C960.3,1676.4,956.3,1678.1,952.1,1678.1z M952,1674.1c6.7,0,12.1-5.4,12.2-12l0.2-32.7
					c0-3.2-1.2-6.3-3.5-8.6c-2.3-2.3-5.3-3.6-8.5-3.6l-32.7-0.2c-3.3,0-6.3,1.2-8.6,3.5c-2.3,2.3-3.6,5.3-3.6,8.5l-0.2,32.7
					c0,6.7,5.3,12.1,12,12.2L952,1674.1z"/>
			</g>
			<g>
				<path class="st2" d="M697.4,1764.9c-0.1,0-32.8-0.2-32.8-0.2c-4.3,0-8.3-1.7-11.3-4.8c-3-3.1-4.6-7.1-4.6-11.4l0.2-32.7
					c0-4.3,1.7-8.3,4.8-11.3c3-3,7-4.6,11.2-4.6c0.1,0,32.8,0.2,32.8,0.2c8.8,0.1,16,7.3,15.9,16.2l-0.2,32.7
					C713.4,1757.7,706.2,1764.9,697.4,1764.9z M697.3,1760.9c6.7,0,12.1-5.4,12.2-12l0.2-32.7c0.1-6.7-5.3-12.1-12-12.2l-32.7-0.2
					c-3.3,0-6.3,1.2-8.6,3.5c-2.3,2.3-3.6,5.3-3.6,8.5l-0.2,32.7c0,6.7,5.3,12.1,12,12.2L697.3,1760.9z"/>
				<path class="st2" d="M824.4,1765.8c-0.1,0-32.8-0.2-32.8-0.2c-8.8-0.1-16-7.3-15.9-16.2l0.2-32.7c0.1-8.8,7.3-15.9,16-15.9
					c0.1,0,32.8,0.2,32.8,0.2c4.3,0,8.3,1.7,11.3,4.8c3,3.1,4.6,7.1,4.6,11.4l-0.2,32.7C840.4,1758.6,833.2,1765.8,824.4,1765.8z
					 M792,1704.7c-6.6,0-12.1,5.4-12.1,12l-0.2,32.7c-0.1,6.7,5.3,12.1,12,12.2l32.7,0.2c3.3,0,6.3-1.2,8.6-3.5
					c2.3-2.3,3.6-5.3,3.6-8.5l0.2-32.7c0-3.2-1.2-6.3-3.5-8.6c-2.3-2.3-5.3-3.6-8.5-3.6L792,1704.7
					C792,1704.7,792,1704.7,792,1704.7z"/>
				<path class="st2" d="M951.4,1766.7c-0.1,0-32.8-0.2-32.8-0.2c-4.3,0-8.3-1.7-11.3-4.8c-3-3.1-4.6-7.1-4.6-11.4l0.2-32.7
					c0.1-8.8,7.3-15.9,16-15.9c0.1,0,32.8,0.2,32.8,0.2c8.8,0.1,16,7.3,15.9,16.2l-0.2,32.7c0,4.3-1.7,8.3-4.8,11.3
					C959.6,1765.1,955.7,1766.7,951.4,1766.7z M951.3,1762.8c3.2-0.1,6.3-1.2,8.6-3.5c2.3-2.3,3.6-5.3,3.6-8.5l0.2-32.7
					c0-6.7-5.3-12.1-12-12.2l-32.7-0.2c-6.7,0-12.1,5.4-12.2,12l-0.2,32.7c0,3.2,1.2,6.3,3.5,8.6c2.3,2.3,5.3,3.6,8.5,3.6
					L951.3,1762.8z"/>
			</g>
		</g>
		<path class="st1" d="M1061.8,504.7l-137.2-73.9c-1.4-0.7-1.9-2.4-1.1-3.8l73.9-137.2c0.7-1.4,2.4-1.9,3.8-1.1l137.2,73.9
			c1.4,0.7,1.9,2.4,1.1,3.8l-73.9,137.2C1064.8,504.9,1063.1,505.4,1061.8,504.7z"/>
		<g>
			<g>
				<path class="st2" d="M951.2,339.6c-4.1,1.2-8.6,0.9-12.6-1.1l-28.7-14.7c-4-2.1-7-5.6-8.4-9.9c-1.4-4.3-1-8.9,1-12.9l14.7-28.7
					c2.1-4,5.6-7,9.9-8.4c4.6-1.4,9-1,12.9,1.1l28.7,14.7c8.3,4.3,11.6,14.5,7.4,22.8l-14.7,28.7
					C959.3,335.4,955.5,338.3,951.2,339.6z M941.4,333c5.3,2.7,11.8,0.6,14.6-4.7l14.7-28.7c2.7-5.3,0.6-11.8-4.7-14.6l-28.7-14.7
					c-2.6-1.3-5.2-1.3-8.3-0.7c-2.7,0.9-5,2.8-6.3,5.4L908,303.7c-1.3,2.6-1.6,5.5-0.7,8.2c0.9,2.8,2.8,5,5.3,6.3L941.4,333z"/>
				<path class="st2" d="M1062.8,396.8c-4.2,1.3-8.7,0.9-12.6-1.2l-28.7-14.7c-8.3-4.3-11.6-14.5-7.4-22.8l14.7-28.7
					c4.3-8.3,14.5-11.6,22.8-7.4l28.7,14.7c4,2.1,7,5.6,8.4,9.9c1.4,4.3,1,8.9-1,12.9l-14.7,28.7c-2.1,4-5.6,7-9.9,8.4
					C1063,396.7,1062.9,396.7,1062.8,396.8z M1040.8,326.7c-2.7,0.8-5.1,2.7-6.5,5.4l-14.7,28.7c-2.7,5.3-0.6,11.8,4.7,14.6
					l28.7,14.7c2.6,1.3,5.7,1.4,8.3,0.7c2.7-0.9,5-2.8,6.3-5.4l14.7-28.7c1.3-2.6,1.6-5.5,0.7-8.2c-0.9-2.8-2.8-5-5.4-6.3
					l-28.7-14.7C1046.3,326.1,1043.4,325.9,1040.8,326.7z"/>
				<path class="st2" d="M1174.3,453.9c-4,1.2-8.5,0.9-12.6-1.1L1133,438c-8.3-4.3-11.6-14.5-7.4-22.8l14.7-28.7
					c2.1-4,5.6-7,9.9-8.4c4.5-1.4,8.9-1,12.9,1.1l28.7,14.7c8.3,4.3,11.6,14.5,7.4,22.8l-14.7,28.7
					C1182.4,449.7,1178.6,452.6,1174.3,453.9z M1164.5,447.3c5.3,2.7,11.9,0.6,14.6-4.7l14.7-28.7c2.7-5.3,0.6-11.8-4.7-14.6
					l-28.7-14.7c-2.6-1.3-5.3-1.4-8.3-0.7c-2.7,0.9-5,2.8-6.3,5.4l-14.7,28.7c-2.7,5.3-0.6,11.8,4.7,14.5L1164.5,447.3z"/>
			</g>
			<g>
				<path class="st2" d="M911.3,417.4c-4.2,1.3-8.7,0.9-12.6-1.2L870,401.6c-8.3-4.3-11.6-14.5-7.4-22.8l14.7-28.7
					c4.3-8.3,14.5-11.6,22.8-7.4l28.7,14.7c4,2.1,7,5.6,8.4,9.9c1.4,4.3,1,8.9-1,12.9l-14.7,28.7c-2.1,4-5.6,7-9.9,8.4
					C911.6,417.4,911.5,417.4,911.3,417.4z M889.4,347.4c-2.7,0.8-5.1,2.7-6.5,5.4l-14.7,28.7c-2.7,5.3-0.6,11.8,4.7,14.6l28.7,14.7
					c2.6,1.3,5.5,1.6,8.3,0.7c2.7-0.9,5-2.8,6.3-5.4l14.7-28.7c1.3-2.6,1.5-5.5,0.7-8.2c-0.9-2.7-2.8-5-5.3-6.3l-28.7-14.7
					C894.8,346.8,891.9,346.6,889.4,347.4z"/>
				<path class="st2" d="M1022.9,474.6c-4,1.2-8.5,0.9-12.6-1.1l-28.7-14.7c-8.3-4.3-11.6-14.5-7.4-22.8l14.7-28.7
					c4.3-8.3,14.5-11.6,22.8-7.4l28.7,14.7c8.3,4.3,11.6,14.5,7.4,22.8l-14.7,28.7C1030.9,470.3,1027.2,473.3,1022.9,474.6z
					 M1013.1,468c5.3,2.7,11.8,0.6,14.6-4.7l14.7-28.7c2.7-5.3,0.6-11.8-4.7-14.6l-28.7-14.7c-5.3-2.7-11.8-0.6-14.5,4.7l-14.7,28.7
					c-2.7,5.3-0.6,11.8,4.7,14.5L1013.1,468z"/>
				<path class="st2" d="M1134.5,531.7c-4.2,1.3-8.7,0.9-12.6-1.2l-28.7-14.7c-4-2.1-7-5.6-8.4-9.9c-1.4-4.3-1-8.9,1.1-12.9
					l14.7-28.7c4.3-8.3,14.5-11.6,22.8-7.4l28.7,14.7c4,2.1,7,5.6,8.4,9.9c1.4,4.3,1,8.9-1,12.9l-14.7,28.7c-2.1,4-5.6,7-9.9,8.4
					C1134.7,531.7,1134.6,531.7,1134.5,531.7z M1112.5,461.7c-2.7,0.8-5.1,2.7-6.5,5.4l-14.7,28.7c-1.3,2.6-1.6,5.5-0.7,8.3
					c0.9,2.7,2.8,5,5.4,6.3l28.7,14.7c2.5,1.3,5.3,1.5,8,0.7c3-1,5.2-2.9,6.5-5.4l14.7-28.7c1.3-2.6,1.5-5.5,0.7-8.3
					c-0.9-2.7-2.8-5-5.3-6.3l-28.7-14.7C1118,461.1,1115.1,460.9,1112.5,461.7z"/>
			</g>
		</g>
	</g>
	<g>
		<g>
			<g>
				<rect x="304.6" y="1376.3" class="st3" width="886.9" height="207.1"/>
				<rect x="315.9" y="1390.7" class="st0" width="864.3" height="170.5"/>
				<g>
					<g>
						<polygon class="st1" points="370.2,1561.2 344.6,1561.2 357.4,1552.1 						"/>
						<polygon class="st1" points="394.3,1510 357.4,1536.2 320.4,1510 357.4,1483.9 						"/>
						<polygon class="st1" points="394.3,1441.8 357.4,1468 320.4,1441.8 357.4,1415.7 						"/>
						<polygon class="st1" points="370.2,1390.7 357.4,1399.8 344.6,1390.7 						"/>
					</g>
					<g>
						<polygon class="st1" points="457,1561.2 431.4,1561.2 444.2,1552.1 						"/>
						<polygon class="st1" points="481.1,1510 444.2,1536.2 407.3,1510 444.2,1483.9 						"/>
						<polygon class="st1" points="481.1,1441.8 444.2,1468 407.3,1441.8 444.2,1415.7 						"/>
						<polygon class="st1" points="457,1390.7 444.2,1399.8 431.4,1390.7 						"/>
					</g>
					<g>
						<polygon class="st1" points="543.8,1561.2 518.2,1561.2 531,1552.1 						"/>
						<polygon class="st1" points="567.9,1510 531,1536.2 494.1,1510 531,1483.9 						"/>
						<polygon class="st1" points="567.9,1441.8 531,1468 494.1,1441.8 531,1415.7 						"/>
						<polygon class="st1" points="543.8,1390.7 531,1399.8 518.2,1390.7 						"/>
					</g>
					<g>
						<polygon class="st1" points="630.6,1561.2 605,1561.2 617.8,1552.1 						"/>
						<polygon class="st1" points="654.8,1510 617.8,1536.2 580.9,1510 617.8,1483.9 						"/>
						<polygon class="st1" points="654.8,1441.8 617.8,1468 580.9,1441.8 617.8,1415.7 						"/>
						<polygon class="st1" points="630.6,1390.7 617.8,1399.8 605,1390.7 						"/>
					</g>
					<g>
						<polygon class="st1" points="717.4,1561.2 691.8,1561.2 704.6,1552.1 						"/>
						<polygon class="st1" points="741.6,1510 704.6,1536.2 667.7,1510 704.6,1483.9 						"/>
						<polygon class="st1" points="741.6,1441.8 704.6,1468 667.7,1441.8 704.6,1415.7 						"/>
						<polygon class="st1" points="717.4,1390.7 704.6,1399.8 691.9,1390.7 						"/>
					</g>
					<g>
						<polygon class="st1" points="804.2,1561.2 778.7,1561.2 791.5,1552.1 						"/>
						<polygon class="st1" points="828.4,1510 791.5,1536.2 754.5,1510 791.5,1483.9 						"/>
						<polygon class="st1" points="828.4,1441.8 791.5,1468 754.5,1441.8 791.5,1415.7 						"/>
						<polygon class="st1" points="804.2,1390.7 791.5,1399.8 778.7,1390.7 						"/>
					</g>
					<g>
						<polygon class="st1" points="891.1,1561.2 865.5,1561.2 878.3,1552.1 						"/>
						<polygon class="st1" points="915.2,1510 878.3,1536.2 841.3,1510 878.3,1483.9 						"/>
						<polygon class="st1" points="915.2,1441.8 878.3,1468 841.3,1441.8 878.3,1415.7 						"/>
						<polygon class="st1" points="891.1,1390.7 878.3,1399.8 865.5,1390.7 						"/>
					</g>
					<g>
						<polygon class="st1" points="977.9,1561.2 952.3,1561.2 965.1,1552.1 						"/>
						<polygon class="st1" points="1002,1510 965.1,1536.2 928.1,1510 965.1,1483.9 						"/>
						<polygon class="st1" points="1002,1441.8 965.1,1468 928.1,1441.8 965.1,1415.7 						"/>
						<polygon class="st1" points="977.9,1390.7 965.1,1399.8 952.3,1390.7 						"/>
					</g>
					<g>
						<polygon class="st1" points="1064.7,1561.2 1039.1,1561.2 1051.9,1552.1 						"/>
						<polygon class="st1" points="1088.8,1510 1051.9,1536.2 1015,1510 1051.9,1483.9 						"/>
						<polygon class="st1" points="1088.8,1441.8 1051.9,1468 1015,1441.8 1051.9,1415.7 						"/>
						<polygon class="st1" points="1064.7,1390.7 1051.9,1399.8 1039.1,1390.7 						"/>
					</g>
					<g>
						<polygon class="st1" points="1151.5,1561.2 1125.9,1561.2 1138.7,1552.1 						"/>
						<polygon class="st1" points="1175.7,1510 1138.7,1536.2 1101.8,1510 1138.7,1483.9 						"/>
						<polygon class="st1" points="1175.7,1441.8 1138.7,1468 1101.8,1441.8 1138.7,1415.7 						"/>
						<polygon class="st1" points="1151.5,1390.7 1138.7,1399.8 1125.9,1390.7 						"/>
					</g>
				</g>
			</g>
			<path class="st4" d="M1157.5,1515.3c0,22.9-183.5,41.4-409.8,41.4c-226.3,0-409.8-18.5-409.8-41.4s183.5-41.4,409.8-41.4
				C974,1473.9,1157.5,1492.4,1157.5,1515.3z"/>
			<g>
				<g>
					<g>
						<path class="st5" d="M1010.7,1508.5c-1.8-0.1-3.8,0.5-5.7,1.6c-2.8,1.6-1.3,4.8-1.3,4.8l13.8,0.3l-1.5-3.1
							c2.4-0.2,5.1-0.1,5.2-0.1c0.2,0,4.6-0.7,7.2-5.9C1019.5,1508.8,1010.7,1508.5,1010.7,1508.5z"/>
						<path class="st5" d="M1119.5,1433.1c-0.4-2.9-1.1-5.7-2.1-8c-1.1-2.3-2.6-4.3-4.6-5.6c-8.5-5.6-18.6-7.4-28.4-5.5
							c-3.7,0.7-15.7,1.7-21.7,2.5l-4.3,62.6c0,0-18.4,24-44.1,31.2c0,0-19.9-0.2-17.4,9.7c11,0.3,23.6,0.3,23.7,0.3l50.3,0
							c6.7,0,18.4-4.4,20.4-10.8c6.5-21.3,10.4-37.3,18.6-46.3C1117.2,1455,1121,1444.1,1119.5,1433.1z"/>
						<linearGradient id="SVGID_1_" gradientUnits="userSpaceOnUse" x1="626.5511" y1="1389.3324" x2="1032.4548" y2="1389.3324">
							<stop  offset="1.117320e-02" style="stop-color:#EDBD9F"/>
							<stop  offset="1" style="stop-color:#F7D5AD"/>
						</linearGradient>
						<path class="st6" d="M897.1,1261.8c0,0-210.6,63.9-259.7,131.5c-7.4,10.2-10.3,22.6-10.8,34.9c-1.1,28.6,11.1,56.2,32.4,75.3
							c11.8,10.6,27.8,15.3,43.5,12.7l62.3-10.3L994,1377.5l38.5-65.1l-30.2-50.1L897.1,1261.8z"/>
						<path class="st7" d="M897.1,1261.8c0,0-210.6,63.9-259.7,131.5c-7.4,10.2-10.3,22.6-10.8,34.9c-1.1,28.6,11.1,56.2,32.4,75.3
							c11.8,10.6,27.8,15.3,43.5,12.7l62.3-10.3L994,1377.5l38.5-65.1l-30.2-50.1L897.1,1261.8z"/>
						<path class="st8" d="M828.2,931.8c0,0-13,35.3-14.1,47c-8.4,86.7-12.3,194.5-12.3,194.5l81.5,17.2l19.8-239.5L828.2,931.8z"/>
						<path class="st8" d="M901.5,843.6c0,0.1-0.3,1.5-1,3.8l-2.6-3.7C899.8,843.5,901.5,843.6,901.5,843.6z"/>
						<linearGradient id="SVGID_2_" gradientUnits="userSpaceOnUse" x1="1034.381" y1="1466.7717" x2="1157.5264" y2="1466.7717">
							<stop  offset="1.117320e-02" style="stop-color:#F8BC9F"/>
							<stop  offset="1" style="stop-color:#F49E7E"/>
						</linearGradient>
						<path class="st9" d="M1157.2,1433.1c-0.4-2.9-1.1-5.7-2.2-8c-1.1-2.3-2.6-4.3-4.6-5.6c-8.5-5.6-18.6-7.4-28.3-5.5
							c-3.7,0.7-15.7,1.7-21.7,2.5l-4.3,62.6c0,0-16.9,24-42.6,31.2c0,0-21.4-0.2-19,9.7c11,0.3,23.6,0.3,23.7,0.3
							c0,0,50.3,0,50.3,0c6.6,0,18.4-4.4,20.4-10.8c6.5-21.3,10.4-37.3,18.6-46.3C1154.9,1455,1158.7,1444.1,1157.2,1433.1z"/>
						<g>
							<path class="st10" d="M579,1225.3l-29.6,41.7c-0.7,1-0.5,2.5,0.6,3.2c1,0.6,2.2,0.5,3.1-0.3l23.7-22.6
								c0.7,2.5,2.5,4.2,4.8,4.8l0.3,0.9c0.7,2.3,2.8,4,5.2,4.1c0,0,2-11.9,2.1-12.4c0.1-0.5,0-13.5,0-13.5L579,1225.3z"/>
							<path class="st11" d="M658.4,1221.7c-0.2,3.1-0.8,6.5-1.9,10.2c-0.8,2.8-1.4,5.6-1.9,8.4c-3.1,16.8-2,31.6-9.5,32.2
								c-8.7,0-19.5-15.2-22-33c-0.4-2.5-0.6-5-0.6-7.6c0-13.5,3.2-25.3,8-31.9c2.4-3.3,5.1-5.3,8-5.7c0.3-0.1,0.7-0.1,1-0.1
								c2.6,0,5.7,0.9,8.6,2.9c5.1,3.3,9.6,9.7,10.3,19.3C658.6,1218,658.6,1219.8,658.4,1221.7z"/>
							<path class="st10" d="M610.8,1206l-29.6,30.6l11.7,23.2l3.6-2.2c13.1-2.8,22.2-12,27.4-24.3L610.8,1206z"/>
							<path class="st8" d="M734.7,1179.1l-96.1,15c0.3,0,0.6,0,1,0c2.6,0,5.7,0.9,8.6,2.9c0.3,0.2,0.7,0.5,1,0.7
								c0.1,0.1,0.2,0.2,0.3,0.3c0.2,0.2,0.5,0.4,0.7,0.6c0.1,0.1,0.2,0.2,0.4,0.3c0.2,0.2,0.4,0.4,0.6,0.6c0.1,0.1,0.2,0.2,0.4,0.4
								c0.2,0.2,0.4,0.4,0.6,0.7c0.1,0.1,0.2,0.2,0.3,0.4c0.2,0.3,0.5,0.6,0.7,0.8c0.5,0.7,0.8,1.1,1.1,1.5c0.4,0.6,0.6,0.9,0.8,1.3
								c0.1,0.1,0.2,0.3,0.2,0.4c0.2,0.3,0.3,0.6,0.5,1c0.1,0.2,0.2,0.3,0.2,0.5c0.1,0.3,0.3,0.7,0.4,1c0.1,0.2,0.1,0.3,0.2,0.5
								c0.1,0.4,0.3,0.8,0.4,1.2c0.1,0.1,0.1,0.3,0.1,0.4c0.3,1.1,0.6,2.3,0.8,3.5c0,0.2,0,0.3,0.1,0.5c0.1,0.4,0.1,0.9,0.2,1.4
								c0,0.2,0,0.5,0.1,0.7c0.2,1.9,0.2,4,0,6.2c-0.1,0.7-0.1,1.4-0.2,2.2c-0.1,1-0.3,1.7-0.4,2.4c-0.2,1-0.3,1.8-0.5,2.5
								c0,0.2-0.1,0.3-0.1,0.5c-0.2,0.8-0.4,1.6-0.6,2.4c-0.8,2.8-1.4,5.6-1.9,8.4c-3.1,16.8-2,31.6-9.5,32.2
								c11.1-0.5,214.7-10.2,240-40.4C837.2,1221,778.8,1199.8,734.7,1179.1z"/>
							<path class="st10" d="M578.2,1251.3l-0.9-0.7c-1.3-1-1.4-2.9-0.3-4l3-3.1c0.9-1,2.5-1.1,3.5-0.3c1.1,0.8,1.4,2.3,0.7,3.5
								l-2.1,3.8C581.4,1251.9,579.5,1252.3,578.2,1251.3z"/>
							<path class="st10" d="M582.1,1255.9l-1.1-0.8c-1.2-1-1.4-2.8-0.3-3.9l4.1-4.2c0.9-1,2.4-1.1,3.5-0.3c1.1,0.8,1.3,2.3,0.6,3.4
								l-3,5C585.1,1256.6,583.3,1256.9,582.1,1255.9z"/>
							<path class="st10" d="M586.2,1258.8l-0.9-0.7c-1.3-1-1.4-2.9-0.2-4l3-2.9c1-0.9,2.5-1,3.5-0.2c1,0.8,1.3,2.3,0.6,3.5
								l-2.1,3.5C589.4,1259.5,587.5,1259.8,586.2,1258.8z"/>
							<path class="st10" d="M591.3,1260.9l-0.8-0.6c-1.1-0.9-1.2-2.5-0.2-3.5l2.8-2.8c0.8-0.8,2.1-0.9,3.1-0.2c0.9,0.7,1.2,2,0.6,3
								l-2,3.4C594,1261.5,592.4,1261.8,591.3,1260.9z"/>
							<linearGradient id="SVGID_3_" gradientUnits="userSpaceOnUse" x1="578.7416" y1="1224.8687" x2="658.5245" y2="1224.8687">
								<stop  offset="1.117320e-02" style="stop-color:#F8BC9F"/>
								<stop  offset="1" style="stop-color:#F49E7E"/>
							</linearGradient>
							<path class="st12" d="M656.6,1231.8c-0.1,0.5-0.3,1-0.4,1.4l-39.1-0.5l-3.3,0c-0.1,0-0.3,0-0.4,0.1c-8.1,4.2-16.5,1.2-19.2,0
								c-0.5-0.2-1,0-1.2,0.5l-3.6,11.1c-0.1,0.4,0,0.8,0.3,1l3,2.1l3.6,2.5c0.2,0.2,0.4,0.4,0.4,0.7c-0.4,1.5-1.8,2.3-3,1.9
								l-1.5-0.5c-0.1,0-11.4-4.7-11.4-4.7c-0.3-0.1-0.5-0.3-0.5-0.6c-1.5-7-2-13.6-1.4-21.3c0-0.2,0.1-0.3,0.2-0.5
								c4.2-5.8,15.5-12.1,23.4-16c4.6-2.3,9.5-3.9,14.5-5c6.5-1.4,15.8-3.6,22.8-5.3c3.4-0.8,6.3-1.4,8-1.7c0.2,0,0.5,0,0.7,0.1
								C655.8,1202.2,661.8,1213.4,656.6,1231.8z"/>
						</g>
						<linearGradient id="SVGID_4_" gradientUnits="userSpaceOnUse" x1="651.7935" y1="1171.6464" x2="1121.0099" y2="1171.6464">
							<stop  offset="1.117320e-02" style="stop-color:#EDBD9F"/>
							<stop  offset="1" style="stop-color:#F7D5AD"/>
						</linearGradient>
						<path class="st13" d="M1120.9,1347.1c-1.2,24.9-5.5,40.7-9.8,50.5c-5.2,11.7-10.4,15-10.4,15s-0.3,0.1-0.9,0.4
							c-0.9,0.4-1.8,0.7-2.8,1.1c-0.3,0.1-0.7,0.3-1.1,0.4c-1.5,0.6-3.3,1.3-5.3,2.1c-0.6,0.2-1.2,0.5-1.8,0.7
							c-1.2,0.5-2.2,0.8-3.3,1.2c-1.9,0.7-4,1.5-6.3,2.3c-0.8,0.3-1.6,0.6-2.4,0.9c-0.5,0.2-1,0.4-1.5,0.5c-1.5,0.5-3,1.1-4.5,1.6
							c-0.6,0.2-1.2,0.4-1.8,0.6c-0.8,0.3-1.6,0.6-2.4,0.9c-1,0.3-2,0.7-3.1,1c-3.1,1-6.3,2.1-9.7,3.3c-1.1,0.4-2.3,0.8-3.5,1.1
							c-0.9,0.3-1.9,0.6-2.8,0.9c-1.4,0.5-2.9,0.9-4.3,1.4c-2.4,0.8-5,1.6-7.5,2.3c-0.6,0.2-1.3,0.4-1.9,0.6c-2,0.6-4,1.2-6,1.8
							c-0.9,0.3-1.8,0.5-2.7,0.8c-0.9,0.3-1.8,0.5-2.7,0.8c-2,0.6-4.1,1.2-6.2,1.8c-1.8,0.5-3.6,1-5.4,1.5c-1.1,0.3-2.1,0.6-3.1,0.8
							c-2.7,0.7-5.4,1.5-8.2,2.2c-1,0.3-1.9,0.5-2.9,0.8c-2.9,0.8-5.9,1.5-8.9,2.3c-2,0.5-4,1-6.1,1.6c-2,0.5-4.1,1-6.2,1.6
							c-2.1,0.5-4.2,1-6.4,1.6c-1.1,0.3-2.1,0.5-3.2,0.8c-1.1,0.3-2.2,0.5-3.2,0.8c-1.1,0.2-2.2,0.5-3.3,0.8
							c-1.1,0.2-2.2,0.5-3.3,0.8c-1.1,0.3-2.2,0.5-3.4,0.7c-1.2,0.3-2.4,0.5-3.6,0.8c-1.1,0.2-2.1,0.5-3.2,0.7c-4.7,1-9.5,2-14.3,3
							c-2.3,0.5-4.5,0.9-6.8,1.4c-1.9,0.4-3.8,0.7-5.7,1.1c-1.7,0.3-3.5,0.7-5.3,1c-1.3,0.2-2.6,0.5-3.9,0.7
							c-1.2,0.2-2.4,0.4-3.6,0.7c-2.1,0.4-4.2,0.8-6.4,1.1c-6.7,1.2-13.6,2.3-20.5,3.4c-1.2,0.2-2.4,0.4-3.7,0.6
							c-1.4,0.2-2.8,0.4-4.3,0.7c-1.3,0.2-2.7,0.4-4,0.6c-1.4,0.2-2.8,0.4-4.2,0.6c-1.3,0.2-2.6,0.4-3.9,0.5
							c-2.8,0.4-5.6,0.8-8.4,1.2l-3.9,0.5c-2.8,0.3-5.5,0.7-8.3,1c-2.8,0.3-5.6,0.7-8.4,1c-3.4,0.4-6.9,0.8-10.4,1.1
							c-1.3,0.1-2.6,0.3-3.9,0.4c-0.9,0.1-1.9,0.2-2.8,0.3c-1.4,0.1-2.9,0.3-4.3,0.4c-1.4,0.1-2.9,0.3-4.3,0.4c-1,0.1-2,0.2-3,0.3
							c-1.1,0.1-2.1,0.2-3.1,0.3c-0.2,0-0.3,0-0.5,0.1c-0.7,0-1.4,0.1-2,0.2c-1.5,0.1-2.9,0.2-4.4,0.3c-1.9,0.2-3.8,0.3-5.7,0.4
							c-0.3,0-0.6,0-0.9,0.1c-2.3,0.2-4.5,0.3-6.8,0.5c-2.3,0.2-4.6,0.3-6.9,0.4c-0.3,0-0.6,0-0.9,0c-0.9,0.1-1.7,0.1-2.6,0.2
							c-1,0-2.1,0.1-3.1,0.1c-29.1,1.5-59.4,1.8-90.6,0.6c0,0-0.2-0.3-0.7-0.8c-2.2-2.5-8.9-10.7-14.2-22.9
							c-7.7-18-12.2-44.6,6-74.3c8.9-14.6,30.5-29.6,57.8-43.9c27.4-14.3,60.5-27.9,92.6-39.7c45.6-17.9,76.6-48,77.5-48.9
							c-1.4-3.6-2.8-7.2-4.2-10.9c-1.4-3.6-2.6-7.2-3.9-10.8c-13.3-39.1-21.2-81-32.6-122.9c-20.1-74.2-38-143.2-23.5-177.1
							c16.2-37.7,82.8-73.3,82.8-73.3s1.4,0.5,3.9,1.4c1.6,0.6,3.7,1.4,6.2,2.4c17.3,6.8,53.4,21.9,81,40.2c1.5,1.7,3.1,3.4,4.6,5.2
							c59.7,71.7,83.7,236.5,94,354.5C1100.7,1262.3,1122.8,1305.2,1120.9,1347.1z"/>
						<g>
							<path class="st10" d="M592.5,1020.3c0,0-11,38.8-11.6,40.4c-0.6,1.6-7.9,13.9-7.9,13.9s-19-3.2-19.6-3.6
								c-0.1-0.1-0.3-0.3-0.6-0.6c-0.1-0.1-0.2-0.3-0.3-0.4c-2.5-3-4-6.6-4.6-10.4c0-0.2-0.1-0.4-0.1-0.6c-0.2-1.6-0.2-3.3,0-4.9
								l0.1-0.9l-0.2-0.9c-0.2-0.9-0.3-1.8-0.4-2.7c-0.1-1-0.2-2.1-0.2-3.1c0-3.9,0.8-7.7,2.4-11.3l-4-1.7c-1.9-0.8-3.3-2.6-3.5-4.7
								c-0.4-3.4,2.1-6.4,5.5-6.6L592.5,1020.3z"/>
							<path class="st8" d="M681.9,1107.4c-1.4,3.9-2.8,7.7-4.4,11.2c-8.4,19.1-19.2,31.6-26,29.3c-7.5-2.6-13.2-24.9-2.1-45.5
								c0.9-1.7,2-3.4,3.2-5.1c10.8-15.5,17.3-30.3,23-37c2.5-3,4.9-4.3,7.4-3.5c2.3,0.8,3.9,3.1,4.8,6.6
								C690.1,1072.4,688.1,1089.3,681.9,1107.4z"/>
							<path class="st14" d="M1016.1,994.1c-5.3,35.3-16.5,77.5-30.4,116.1c-1,2.8-2,5.6-3.1,8.4c-19.1,50.8-42.5,93.5-62.8,102.9
								c0,0-15.4,13.4-44.7,9.7c-1.1-0.1-2.2-0.3-3.3-0.5c-7.4-1.2-15.1-2.8-23.2-4.6c-47.9-11-106.2-32.2-150.4-52.9
								c-18.7-8.8-34.9-17.4-46.6-25.2c5.8,2,14.5-6.8,22.1-21.2c1.3-2.5,2.6-5.2,3.9-8.1c0.4-0.8,0.7-1.7,1.1-2.5
								c0.1-0.2,0.2-0.4,0.3-0.6c0.3-0.6,0.5-1.3,0.8-1.9c0.1-0.3,0.2-0.5,0.3-0.8c0.2-0.6,0.5-1.3,0.7-1.9c0.1-0.2,0.2-0.5,0.3-0.7
								c0.3-0.9,0.7-1.8,1-2.7c0.2-0.7,0.5-1.4,0.7-2.1c0.1-0.2,0.1-0.4,0.2-0.7c0.2-0.5,0.3-1,0.5-1.5c0.1-0.2,0.1-0.4,0.2-0.6
								c0.2-0.6,0.4-1.3,0.6-2c0.1-0.2,0.1-0.4,0.2-0.6c0.1-0.5,0.3-0.9,0.4-1.4c0.1-0.3,0.1-0.5,0.2-0.7c0.1-0.5,0.2-1,0.4-1.5
								c0.1-0.2,0.1-0.4,0.2-0.6c0.2-0.6,0.3-1.2,0.5-1.8c0.1-0.3,0.1-0.5,0.2-0.8c0.1-0.4,0.2-0.8,0.3-1.2c0.1-0.2,0.1-0.5,0.2-0.7
								c0.1-0.6,0.2-1.2,0.4-1.8c0-0.2,0.1-0.4,0.1-0.5c0.1-0.5,0.2-0.9,0.3-1.4c0-0.2,0.1-0.5,0.1-0.7c0.1-0.4,0.2-0.9,0.2-1.3
								c0-0.2,0.1-0.4,0.1-0.6c0.1-0.6,0.2-1.2,0.2-1.7c0-0.2,0.1-0.4,0.1-0.6c0.1-0.4,0.1-0.8,0.2-1.2c0-0.2,0.1-0.4,0.1-0.6
								c0.1-0.5,0.1-1.1,0.2-1.6c0.1-0.7,0.1-1.2,0.2-1.7c0-0.2,0-0.3,0-0.5c0-0.4,0.1-0.8,0.1-1.2c0-0.1,0-0.3,0-0.4
								c0-0.5,0-1,0.1-1.5c0-0.7,0-1.1,0-1.5v-0.4c0-0.5,0-0.9,0-1.3c0-0.6,0-1.1-0.1-1.5c0-0.7-0.1-1-0.1-1.4
								c-0.1-0.7-0.1-1.2-0.2-1.6c-0.1-0.5-0.1-0.8-0.2-1.2c-0.1-0.6-0.2-0.9-0.3-1.2c-1-3.7-2.5-6-4.8-6.8c0.5,0.2,7.4,2,18.4,5.3
								c18.2,5.6,47.6,15.2,79,28.3c26,8.6,57.2,22.1,77.6,30.6c0.6-2.5,1.8-4.8,4.5-5.2c3.5-0.5,4.8,4,4.9,4.6c-0.1-0.6-1-6.2,2-8
								c1.3-0.8,4.9-1.5,5.8-0.1c14.3-45.2,45.9-187.4,68.3-204.1c0.8-0.6,1.6-1.2,2.4-1.7c15.8-10.6,34.4-11.5,49-3.6
								c3.3,1.8,6.3,4,9.1,6.6c4.3,4,7.9,9,10.7,15C1021,938,1020.8,963.5,1016.1,994.1z"/>
							<linearGradient id="SVGID_5_" gradientUnits="userSpaceOnUse" x1="564.9831" y1="1069.4756" x2="688.7209" y2="1069.4756">
								<stop  offset="1.117320e-02" style="stop-color:#F8BC9F"/>
								<stop  offset="1" style="stop-color:#F49E7E"/>
							</linearGradient>
							<path class="st15" d="M687.7,1063.4c-0.8-0.2-1.6-0.4-2.4-0.6c-3.4-0.9-6.6-1.7-9.8-2.5c-27.4-6.9-45.7-10.9-45.7-10.9
								c0,0-20.7-25.8-35-28.9c-4.8-1-13.9,1.4-20.5,3.5c-4.8,1.5-8.1,5.8-8.6,10.8c-1,11.7-2,32.7,3,37.3c4.3,4,19,6.6,46.8,10.8
								c0,0,1.2,0.7,1.2,0.7l32.6,18.8l28.1,16.2c1.6-3.5,3-7.3,4.4-11.2C688.1,1089.3,690.1,1072.5,687.7,1063.4z"/>
						</g>
						<path class="st14" d="M914.9,859.9c-0.3,1.1-0.5,2.2-0.8,3.3c-4.5,17.1-14.6,29.8-25.7,39.1c-16,13.3-34,20.3-40,22.3
							c-1.3,0.4-2,0.7-2,0.7l-3.7-14.9c0.5-0.3,1.1-0.5,1.6-0.8c0.6-0.3,1.2-0.6,1.8-0.9c0.3-0.2,0.6-0.3,0.8-0.4
							c1.7-0.9,3.3-1.8,4.9-2.7c0.6-0.3,1.2-0.7,1.7-1c0.6-0.3,1.1-0.7,1.7-1c0.6-0.3,1.1-0.7,1.6-1c0.6-0.3,1.1-0.7,1.6-1
							c0.5-0.3,1.1-0.7,1.6-1.1c0.5-0.3,0.9-0.6,1.4-0.9c0.7-0.5,1.1-0.8,1.6-1.1c0.7-0.5,1.1-0.8,1.5-1.1c0.4-0.3,0.9-0.7,1.3-1
							c1.1-0.8,2-1.6,2.9-2.3c0.4-0.4,0.9-0.7,1.3-1.1c0.4-0.4,0.8-0.7,1.2-1c0.5-0.4,0.9-0.8,1.4-1.2c0.3-0.3,0.7-0.6,1-0.9
							c1.6-1.5,3.1-3,4.5-4.5c0.2-0.2,0.3-0.3,0.4-0.5c0.6-0.7,1.3-1.4,1.9-2.1c0.3-0.4,0.7-0.8,1-1.1c0.7-0.8,1.3-1.5,1.9-2.3
							c0.3-0.4,0.6-0.7,0.9-1.1c0.9-1.1,1.7-2.2,2.5-3.4c0.2-0.3,0.5-0.6,0.7-1c4.4-6.3,7.5-12.3,9.7-17.2c0.1-0.2,0.2-0.5,0.3-0.7
							c0.1-0.2,0.2-0.4,0.3-0.6c0.3-0.7,0.5-1.3,0.8-1.9c0.1-0.2,0.2-0.5,0.3-0.7c0.1-0.4,0.3-0.7,0.4-1.1c0.1-0.3,0.2-0.6,0.3-0.8
							c0.1-0.3,0.2-0.6,0.3-0.9c0.2-0.5,0.3-1,0.5-1.4c0-0.1,0.1-0.3,0.1-0.4c0-0.2,0.1-0.4,0.1-0.5c0.7-2.3,1-3.7,1-3.8
							c0,0,0,0,10.2,12.3C912.6,857.1,913.7,858.5,914.9,859.9z"/>
						<path class="st14" d="M842.7,910.4l-2.4,13.8c0,0-12.9-9.2-1.5-23.1L842.7,910.4z"/>
						<path class="st10" d="M900.5,847.4c-0.1,0.2-0.1,0.4-0.2,0.5c0,0.1-0.1,0.3-0.1,0.4c-0.1,0.4-0.3,0.9-0.4,1.4
							c-0.1,0.3-0.2,0.6-0.3,0.9c-0.1,0.3-0.2,0.6-0.3,0.8c-0.1,0.4-0.2,0.7-0.4,1.1c-0.1,0.2-0.2,0.5-0.3,0.7
							c-0.2,0.6-0.5,1.3-0.8,1.9c-0.1,0.2-0.2,0.4-0.3,0.6c-0.1,0.2-0.2,0.5-0.3,0.7c-2.1,4.9-5.2,10.9-9.7,17.2
							c-0.2,0.3-0.5,0.7-0.7,1c-0.8,1.1-1.6,2.2-2.5,3.4c-0.3,0.4-0.6,0.7-0.9,1.1c-0.6,0.8-1.3,1.5-1.9,2.3c-0.3,0.4-0.6,0.8-1,1.1
							c-0.6,0.7-1.2,1.4-1.9,2.1c-0.1,0.2-0.3,0.3-0.4,0.5c-1.4,1.5-2.9,3-4.5,4.5c-0.3,0.3-0.7,0.6-1,0.9c-0.4,0.4-0.9,0.8-1.4,1.2
							c-0.4,0.4-0.8,0.7-1.2,1c-0.4,0.4-0.9,0.8-1.3,1.1c-0.9,0.8-1.8,1.5-2.7,2.2c-0.6,0.4-1,0.8-1.4,1.1c-0.4,0.3-0.9,0.7-1.3,1
							c-0.7,0.5-1.2,0.9-1.6,1.2c-0.6,0.4-1.1,0.7-1.5,1.1c-0.5,0.3-1.1,0.7-1.6,1c-0.5,0.4-1.1,0.7-1.6,1c-0.5,0.4-1.1,0.7-1.6,1
							c-0.6,0.4-1.1,0.7-1.7,1c-0.6,0.3-1.1,0.7-1.7,1c-1.6,0.9-3.2,1.8-4.9,2.7c-0.3,0.1-0.6,0.3-0.9,0.4c-0.6,0.3-1.2,0.6-1.8,0.9
							c-0.5,0.3-1.1,0.5-1.6,0.8l-9.1-22L823,862.7l10.6-9.9c0,0,0.5-0.5,0.5-0.5c0.1-0.1,41.9-39.1,41.9-39.1l21.9,30.5
							L900.5,847.4z"/>
						<linearGradient id="SVGID_6_" gradientUnits="userSpaceOnUse" x1="701.4185" y1="821.5385" x2="878.8326" y2="821.5385">
							<stop  offset="1.117320e-02" style="stop-color:#F8BC9F"/>
							<stop  offset="1" style="stop-color:#F49E7E"/>
						</linearGradient>
						<path class="st16" d="M878.4,814.3c-0.7,13.1-2.5,24.7-6,31.2c-0.3,0.3-0.7,0.6-1,0.9c-11.6,10.7-27.3,23.1-41.3,33.6
							c-11.5,8.7-21.9,16-27.6,20c-2.4,1.7-5.2,2.6-8.2,2.6h-16.6c-4.4,0-8.8-1.4-12.3-4.1c-14.2-10.9-26.1-22.9-35.2-33.4
							c-7.2-8.2-12.7-17.7-16.2-27.9c-3.2-9-4.9-18.6-5-28.4v-10c-0.1-0.3-0.4-0.9-0.4-0.9c-1-2.3-3.6-8.7-5.4-19
							c-0.3-1.4-0.5-2.8-0.7-4.3c-0.7-5.1-1.2-11-1.2-17.7c0-2.3,0-4.6,0.1-7.1c32.9,2.4,96.1,4.6,158.9-6.3
							c5.1-0.9,10.2-1.9,15.2-2.9c0,0,2.8,25.2,3.1,51.6C878.9,799.6,878.8,807.2,878.4,814.3z"/>
						<path class="st17" d="M906.9,775.5c0,4.5-1.6,8.9-4.5,12.3c-10.4,12.3-24.8,9.2-24.8,9.2l-12.4-31.1L854,792.6
							c-0.5-0.1-1.7-0.2-4.2-0.5c-1.2-0.1-2.6-0.3-4.5-0.6c-6.8-0.8-12.5-5.6-14.3-12.2c-3.2-11.5-10.9-21-13.9-24.5
							c4.6-0.5,9.3-1.1,14-1.8c0.7-0.1,1.3-0.2,2-0.3c0.2,0,0.4-0.1,0.5-0.1c1.3-0.2,2.6-0.4,4-0.7c1.7-0.3,3.5-0.6,5.2-0.9
							c3.3-0.6,6.6-1.3,10-2c0.4-0.1,0.8-0.2,1.2-0.3c1.5-0.3,3-0.7,4.5-1c0-1.1,0-1.8,0.1-2.1c1-2,1-10,3.6-11.9
							c2.6-1.9,17.3-5.1,21.1-5.1c2.4,0,8.8,2,13.1,3.4C898.7,738,904.5,755.7,906.9,775.5z"/>
						<linearGradient id="SVGID_7_" gradientUnits="userSpaceOnUse" x1="849.5123" y1="784.6771" x2="896.0096" y2="784.6771">
							<stop  offset="1.117320e-02" style="stop-color:#F8BC9F"/>
							<stop  offset="1" style="stop-color:#F49E7E"/>
						</linearGradient>
						<path class="st18" d="M895.8,786.8c-1.4,14.8-9.8,26.5-19.9,29.2c-2.1,0.6-4.1,0.7-6.1,0.6c-12.7-1.2-21.7-16.5-20.1-34.1
							c1.2-12.9,7.7-23.4,16.1-27.7c3.1-1.6,6.5-2.4,9.9-2C888.5,753.9,897.5,769.2,895.8,786.8z"/>
						<path class="st10" d="M889.2,791.8c-1.2,13-9.8,22.8-19.2,21.9c-9.4-0.9-16-12.1-14.8-25.1c1.2-13,9.8-22.8,19.2-21.9
							C883.8,767.6,890.4,778.8,889.2,791.8z"/>
						<path class="st19" d="M897.7,735.8c-11.9,4.5-23.8,8.1-35.5,11c-19.3,4.7-38.1,7.5-55.8,8.9c-3.4,0.3-6.8,0.5-10.1,0.7
							c-49.8,2.9-87.4-4.1-94.8-5.7c-0.9-0.2-1.3-0.3-1.3-0.3c0.5-3.5,0.9-6.9,1.3-10.3c0.2-1.8,0.4-3.7,0.7-5.5
							c2.7-24.3,3.7-45,3.9-58.3c0-2,0.3-3.9,0.7-5.7c0.7-3,2-5.9,3.7-8.5c3.2-4.9,8-8.7,13.8-10.7c0.2-0.1,0.4-0.1,0.6-0.2
							c0.2-0.1,0.4-0.1,0.6-0.2c1.7-0.5,3.5-1.1,5.4-1.6c0.2-0.1,0.5-0.1,0.7-0.2c0.6-0.2,1.3-0.3,1.9-0.5c0.3-0.1,0.5-0.1,0.8-0.2
							c4.2-1,8.9-2,14.2-2.8c0.3-0.1,0.7-0.1,1-0.2c1.3-0.2,2.7-0.4,4.1-0.6c0.7-0.1,1.4-0.2,2.1-0.3c0.4-0.1,0.7-0.1,1.1-0.1
							c0.3,0,0.7-0.1,1.1-0.1c0.8-0.1,1.7-0.2,2.5-0.3c0.7-0.1,1.4-0.1,2.1-0.2c0.8-0.1,1.6-0.1,2.4-0.2c0.4,0,0.7-0.1,1.1-0.1
							c1-0.1,1.8-0.1,2.6-0.2c0.9-0.1,1.8-0.1,2.8-0.2c0.7-0.1,1.5-0.1,2.3-0.1c0.9,0,1.8-0.1,2.7-0.1c0.7,0,1.5,0,2.2-0.1
							c3.9-0.1,8-0.2,12.2-0.2c0.5,0,1,0,1.5,0c0.5,0,1,0,1.5,0c0.5,0,1,0,1.5,0c0.5,0,1,0,1.5,0c0.5,0,1,0,1.4,0c1,0,2,0.1,2.9,0.1
							c0.6,0,1.2,0,1.8,0c0.5,0,1,0,1.5,0.1c1.2,0.1,2.4,0.1,3.5,0.2c0.9,0,1.8,0.1,2.7,0.2c1.1,0.1,2.1,0.1,3.2,0.2
							c0.5,0,1,0.1,1.5,0.1c1,0.1,2,0.2,3,0.3c0.5,0,1,0.1,1.4,0.1c2.1,0.2,4.1,0.4,6,0.6c0.8,0.1,1.5,0.2,2.2,0.3
							c0.7,0.1,1.3,0.2,2,0.3c0.4,0,0.7,0.1,1.1,0.2c3,0.4,5.8,0.8,8.5,1.3c0.6,0.1,1.2,0.2,1.8,0.3c1,0.2,1.9,0.4,2.8,0.5
							c0.3,0.1,0.6,0.1,0.9,0.2c3.5,0.7,6.7,1.4,9.6,2.1c0.3,0.1,0.6,0.2,0.9,0.2c0.3,0.1,0.7,0.2,1,0.3c0.5,0.1,1,0.2,1.4,0.4
							c1.4,0.4,2.8,0.8,4.1,1.2c0.4,0.1,0.8,0.2,1.2,0.4c0.3,0.1,0.7,0.2,1,0.3c0.2,0.1,0.5,0.2,0.7,0.2c0.7,0.2,1.4,0.5,2,0.7
							c3.1,1.1,6,2.7,8.4,4.7c0.9,0.7,1.7,1.5,2.4,2.3c1.9,2,3.5,4.3,4.7,6.8c0.7,1.5,1.3,3,1.8,4.6c0,0.2,0.1,0.3,0.1,0.5
							c3,10.9,7.9,27.8,14.5,48c0.6,1.7,1.1,3.5,1.7,5.3c0.2,0.7,0.5,1.5,0.7,2.2C902.4,731.3,900.8,734.6,897.7,735.8z"/>
						<linearGradient id="SVGID_8_" gradientUnits="userSpaceOnUse" x1="673.4308" y1="1466.2893" x2="1108.236" y2="1466.2893">
							<stop  offset="1.117320e-02" style="stop-color:#EDBD9F"/>
							<stop  offset="1" style="stop-color:#F7D5AD"/>
						</linearGradient>
						<path class="st20" d="M1084,1492.4c-4.9-3.6-11.7-5.2-11.7-5.2c-118,35.7-242.8,29.6-346.3,32.7c-29,0.9-52.6-35.9-52.6-35.9
							c31.1,1.2,61.4,0.9,90.6-0.6c1-0.1,2.1-0.1,3.1-0.2c0.9,0,1.7-0.1,2.6-0.1c0.3,0,0.6,0,0.9,0c2.3-0.1,4.6-0.3,6.9-0.4
							c2.3-0.1,4.6-0.3,6.8-0.5c0.3,0,0.6,0,0.9-0.1c1.9-0.1,3.8-0.3,5.7-0.4c1.5-0.1,2.9-0.2,4.4-0.3c0.7-0.1,1.4-0.1,2.1-0.2
							c0.2,0,0.3,0,0.5,0c1.1-0.1,2.1-0.2,3.1-0.3c1-0.1,2-0.2,3.1-0.3c1.4-0.1,2.9-0.3,4.3-0.4c1.4-0.1,2.9-0.3,4.3-0.4
							c0.9-0.1,1.9-0.2,2.8-0.3c1.3-0.1,2.6-0.3,3.9-0.4c3.5-0.4,6.9-0.7,10.4-1.1c2.8-0.3,5.6-0.6,8.4-1c2.8-0.3,5.6-0.7,8.3-1
							c1.3-0.2,2.6-0.3,3.9-0.5c2.8-0.4,5.6-0.8,8.4-1.2c1.3-0.2,2.6-0.4,3.9-0.5c1.4-0.2,2.8-0.4,4.2-0.6c1.3-0.2,2.7-0.4,4-0.6
							c1.4-0.2,2.8-0.4,4.3-0.6c1.2-0.2,2.5-0.4,3.7-0.6c7-1.1,13.8-2.2,20.6-3.4c2.1-0.4,4.3-0.8,6.4-1.1c1.2-0.2,2.4-0.4,3.6-0.7
							c1.3-0.2,2.6-0.5,3.9-0.7c1.8-0.3,3.5-0.7,5.3-1c1.9-0.4,3.8-0.7,5.7-1.1c2.3-0.4,4.6-0.9,6.8-1.4c4.9-1,9.6-2,14.3-3
							c1.1-0.2,2.1-0.5,3.2-0.7c1.2-0.3,2.4-0.5,3.6-0.8c1.1-0.2,2.2-0.5,3.4-0.8c1.1-0.2,2.2-0.5,3.3-0.8c1.1-0.3,2.2-0.5,3.3-0.8
							c1.1-0.3,2.2-0.5,3.3-0.8c1.1-0.2,2.2-0.5,3.2-0.8c2.2-0.5,4.3-1,6.4-1.5c2.1-0.5,4.2-1,6.2-1.6c2.1-0.5,4.1-1,6.1-1.6
							c3-0.8,6-1.6,8.9-2.3c1-0.3,1.9-0.5,2.9-0.8c2.8-0.7,5.5-1.5,8.2-2.2c1-0.3,2-0.6,3-0.8c1.9-0.5,3.7-1.1,5.5-1.6
							c2.1-0.6,4.2-1.2,6.2-1.8c0.9-0.3,1.8-0.5,2.7-0.8c0.9-0.3,1.8-0.5,2.7-0.8c2-0.6,4-1.2,6-1.8c0.7-0.2,1.3-0.4,1.9-0.6
							c2.6-0.8,5.1-1.6,7.6-2.3c1.5-0.5,2.9-0.9,4.3-1.4c1-0.3,1.9-0.6,2.8-0.9c1.2-0.4,2.4-0.8,3.5-1.1c3.4-1.1,6.7-2.2,9.7-3.3
							c1-0.3,2-0.7,3-1c0.8-0.3,1.6-0.6,2.4-0.8c0.6-0.2,1.2-0.4,1.8-0.6c1.6-0.6,3.1-1.1,4.5-1.6c0.5-0.2,1-0.4,1.5-0.5
							c0.8-0.3,1.6-0.6,2.4-0.9c2.3-0.8,4.4-1.6,6.3-2.3c1-0.4,2-0.8,3-1.1c0.9-0.3,1.5-0.6,2.1-0.8c2-0.8,3.8-1.5,5.2-2
							c0.5-0.2,0.9-0.4,1.2-0.5c1-0.4,1.8-0.7,2.4-1c1-0.4,1.3-0.5,1.3-0.5s1.7,4.6,3.5,11.6
							C1109.3,1444.1,1115.1,1483.6,1084,1492.4z"/>
						<g>
							<path class="st21" d="M900.7,726c-34,16.6-79.1,20.8-115.3,20.8c-4.7,0-9.2-0.1-13.5-0.2c-31.9-0.9-58.9-4.5-70.3-6.3
								c0.2-1.8,0.4-3.7,0.6-5.5c25.5,3.9,132.8,17.8,196.8-14.1C899.5,722.5,900.1,724.2,900.7,726z"/>
							<path class="st21" d="M884.5,672.7c-34.5,16.5-66.8,21.6-93.7,21.6c-13.3,0-25.3-1.3-35.5-3c-22.5-3.9-39.6-10.5-49.2-14.8
								c0-2,0.3-3.9,0.7-5.7c9,4.2,26.5,11.3,49.7,15.2c30,5.1,75.8,5.8,126.1-18.4c0.7,1.5,1.3,3,1.8,4.6
								C884.4,672.3,884.4,672.5,884.5,672.7z"/>
						</g>
						<path class="st22" d="M871.4,846.5l-37.8,41.9l-3.4-8.4C844.1,869.5,859.8,857.2,871.4,846.5z"/>
						<path class="st8" d="M1104.2,1424.2c-186.3,68.1-340.2,59.2-340.2,59.2c1-0.1,2.1-0.1,3.1-0.2c1.2-0.1,2.3-0.1,3.5-0.2
							c2.3-0.1,4.6-0.3,6.9-0.4c2.6-0.2,5.1-0.3,7.7-0.5c1.9-0.1,3.8-0.3,5.7-0.4c1.5-0.1,2.9-0.2,4.4-0.3c0.7-0.1,1.4-0.1,2.1-0.2
							c1.2-0.1,2.4-0.2,3.7-0.3c1-0.1,2-0.2,3.1-0.3c1.4-0.1,2.9-0.3,4.3-0.4c1.4-0.1,2.9-0.3,4.3-0.4c0.9-0.1,1.9-0.2,2.8-0.3
							c1.3-0.1,2.6-0.3,3.9-0.4c3.5-0.4,6.9-0.7,10.4-1.1c2.8-0.3,5.6-0.6,8.4-1c2.8-0.3,5.6-0.7,8.3-1c1.3-0.2,2.6-0.3,3.9-0.5
							c2.8-0.4,5.6-0.8,8.4-1.2c1.3-0.2,2.6-0.4,3.9-0.5c1.4-0.2,2.8-0.4,4.2-0.6c1.3-0.2,2.7-0.4,4-0.6c1.4-0.2,2.8-0.4,4.3-0.6
							c1.2-0.2,2.4-0.4,3.7-0.6c15.8-2.5,30.9-5.2,45.4-8.1c2.3-0.5,4.6-0.9,6.8-1.4c4.9-1,9.6-2,14.3-3c1.1-0.2,2.1-0.5,3.2-0.7
							c1.2-0.3,2.4-0.5,3.6-0.8c1.1-0.2,2.2-0.5,3.4-0.8c1.1-0.2,2.2-0.5,3.3-0.8c1.1-0.3,2.2-0.5,3.3-0.8c1.1-0.3,2.2-0.5,3.3-0.8
							c1.1-0.3,2.2-0.5,3.2-0.8c2.2-0.5,4.3-1,6.4-1.5c2.1-0.5,4.2-1,6.2-1.6c2.1-0.5,4.1-1,6.1-1.6c6.9-1.8,13.6-3.6,20-5.3
							c1-0.3,2-0.6,3-0.8c1.9-0.5,3.7-1,5.5-1.6c2.1-0.6,4.2-1.2,6.2-1.8c1.8-0.5,3.7-1.1,5.4-1.6c5.4-1.6,10.6-3.2,15.5-4.7
							c1.5-0.5,2.9-0.9,4.3-1.4c5.8-1.9,11.2-3.6,16.1-5.3c1-0.3,2-0.7,3-1c0.8-0.3,1.6-0.6,2.4-0.8c0.6-0.2,1.2-0.4,1.8-0.6
							c1.6-0.6,3.1-1.1,4.5-1.6c1.3-0.5,2.6-0.9,3.9-1.4c3.6-1.3,6.8-2.5,9.6-3.5c0.6-0.2,1.2-0.5,1.8-0.7c2-0.8,3.8-1.5,5.2-2
							c0.4-0.2,0.8-0.3,1.2-0.5c1-0.4,1.8-0.7,2.4-1c1-0.4,1.3-0.5,1.3-0.5S1102.4,1417.2,1104.2,1424.2z"/>
						<path class="st7" d="M985.7,1110.2c-1,2.8-2.1,5.6-3.1,8.4c-19.1,50.8-42.5,93.5-62.8,102.9c0,0-16.6,14.5-48.1,9.2
							c-7.4-1.2-15.1-2.8-23.2-4.6c-47.9-11-106.2-32.2-150.4-52.9c-18.7-8.8-34.9-17.4-46.6-25.2c5.8,2,14.5-6.8,22.1-21.2
							c43.9,21.1,166.3,75.6,241.3,63.9c88.6-117.2,82.4-259,80.1-287.7c3.3,1.8,6.3,4,9.1,6.6c4.3,4,7.9,9,10.7,15
							C1028.2,953.4,1011.6,1038.3,985.7,1110.2z"/>
						<linearGradient id="SVGID_9_" gradientUnits="userSpaceOnUse" x1="741.7318" y1="850.4667" x2="741.7318" y2="836.9612">
							<stop  offset="1.117320e-02" style="stop-color:#F2928D"/>
							<stop  offset="1" style="stop-color:#F5A889"/>
						</linearGradient>
						<path class="st23" d="M732.3,839.8c-1.9,3.5,0,8,3.8,9.4c3.2,1.2,7.8,2,13.5,0.6C759,847.3,737.3,830.4,732.3,839.8z"/>
						<path class="st24" d="M747.8,841.5c-1.6-0.9-3.2-1.7-4.8-2.4c-1.6-0.7-3.3-1.2-5-1.3c-1.7-0.1-3.4,0.2-4.5,1.3
							c-1.2,1.1-1.9,2.9-1.9,4.7c-0.5-1.8-0.3-3.9,1.1-5.4c0.6-0.8,1.6-1.3,2.5-1.7c1-0.3,2-0.3,2.9-0.3c1.9,0.2,3.7,0.9,5.4,1.7
							C745.1,838.9,746.6,840.1,747.8,841.5z"/>
						<path class="st24" d="M723.4,785.7c2,3.8,3.5,7.8,4.9,11.8c1.4,4,2.6,8.1,3.4,12.3c0.8,4.2,1.5,8.4,1.5,12.7
							c0,4.3-0.4,8.6-1.8,12.7c0.2-1.1,0.3-2.1,0.5-3.1c0.2-1,0.2-2.1,0.2-3.2c0-0.5,0.1-1,0.1-1.6l0-1.6c0-1.1,0-2.1-0.1-3.2
							c-0.1-1.1-0.2-2.1-0.3-3.1l-0.4-3.1c-0.1-1-0.3-2.1-0.5-3.1c-0.2-1-0.4-2.1-0.6-3.1c-0.8-4.1-1.9-8.2-3.1-12.3
							c-0.6-2-1.2-4.1-1.9-6.1C724.9,789.7,724.2,787.7,723.4,785.7z"/>
						<path class="st22" d="M737.6,793.3c2.2,1.1,4.4,2.1,6.6,3.1c1.1,0.5,2.2,1,3.3,1.4c1.1,0.4,2.2,0.8,3.3,1.1
							c2.1-0.1,4.6-0.4,7-0.8c2.5-0.3,4.9-0.9,7.4-1.4c4.9-1.1,9.8-2.3,14.8-3.5c-2.2,1.3-4.5,2.4-6.9,3.4c-2.4,1-4.8,1.8-7.3,2.5
							c-2.5,0.7-5,1.3-7.6,1.7c-2.6,0.4-5.2,0.6-7.8,0.4c-2.8-0.9-5-2.1-7-3.5C741.3,796.5,739.4,795,737.6,793.3z"/>
						<path class="st17" d="M731.6,777.3c2-1.6,4-3,6.1-4.4c1-0.7,2.2-1.4,3.4-2c1.3-0.5,2.6-0.9,4-1c1.4-0.2,2.8-0.1,4.2,0.1
							c0.7,0.1,1.4,0.3,2.1,0.5c0.3,0.1,0.7,0.2,1,0.3l0.9,0.3c2.3,0.9,4.6,1.8,6.8,2.6c4.6,1.7,9.2,3.4,13.8,5
							c4.6,1.6,9.3,3.1,14,4.9c-5,0.2-10.1-0.4-15-1.4c-4.9-1-9.7-2.4-14.4-4.1c-2.3-0.9-4.7-1.8-6.9-2.9l-0.8-0.4
							c-0.2-0.1-0.5-0.2-0.7-0.3c-0.5-0.2-1-0.4-1.5-0.5c-1-0.3-2.1-0.4-3.2-0.5c-1.1,0-2.2,0.1-3.3,0.3c-1.1,0.2-2.1,0.6-3.3,1.1
							C736.3,775.7,734,776.6,731.6,777.3z"/>
						<path class="st22" d="M721.2,796.7c-1.1,1-2.3,2-3.5,2.9c-1.2,0.9-2.3,1.9-3.7,2.6l-0.8,0.1c-1.5-0.7-2.9-1.4-4.2-2.3
							c1.5-0.1,3.1-0.4,4.5-0.8l-0.8,0.1c1.3-0.6,2.8-0.9,4.2-1.4C718.3,797.6,719.8,797.1,721.2,796.7z"/>
						<path class="st17" d="M718.6,779.4c-0.9,0-1.7-0.1-2.5-0.2c-0.8-0.1-1.6-0.3-2.3-0.5c-1.3-0.3-2.5-0.7-3.7-1.2
							c-0.3,0-1.1,0.2-1.1,0.2l-1.6,0.3l-3.3,0.6c-1.3,0.2-2.5-0.7-2.7-1.9c0-0.2-0.1-0.4-0.1-0.7c-0.1-0.8,0.4-1.5,1.2-1.7
							c0.3-0.1,0.5-0.1,0.8-0.2c1.1-0.2,2.2-0.5,3.3-0.6c0.6-0.1,1.1-0.2,1.7-0.3l0.9-0.1l1-0.1l0.6,0l0.5,0.3
							c1.3,0.8,2.6,1.6,3.8,2.6c0.6,0.5,1.2,1,1.8,1.6C717.5,778.1,718.1,778.7,718.6,779.4z"/>
						<path class="st25" d="M784.3,824.3c-1,7.8-11.3,13-22.8,11.4c-11.6-1.5-20.1-9.1-19.1-17c1-7.8,11.3-13,22.8-11.4
							C776.8,808.9,785.4,816.5,784.3,824.3z"/>
						<path class="st25" d="M714.9,836.9c-0.3,0.1-0.5,0.2-0.8,0.3c-3.2-9-4.9-18.6-5-28.4c9.5-2.1,18.4,0.9,20.7,7.4
							C732.5,823.6,725.8,832.9,714.9,836.9z"/>
						<path class="st22" d="M753.3,869.1c2.3,0,4.6-0.2,6.8-0.5c2.3-0.3,4.5-0.7,6.7-1.2c2.2-0.5,4.4-1.1,6.5-1.9
							c2.2-0.7,4.3-1.5,6.5-2.3c-1,0.6-2,1.2-3,1.8c-1,0.5-2.1,1.1-3.1,1.5c-2.1,1-4.4,1.6-6.6,2.2c-2.3,0.5-4.6,0.9-6.9,1
							C757.9,869.8,755.6,869.7,753.3,869.1z"/>
						<path class="st22" d="M774.4,895.3c-10.2-3.4-11.8-13-11.4-20.8c-4,0.7-8.3,0-8.5-0.1c-0.2,0-0.3-0.2-0.3-0.4
							c0-0.2,0.2-0.3,0.4-0.3c0,0,4.7,0.8,8.7,0c-0.1,7.9,1.4,17.6,11.2,20.8c0.2,0.1,0.3,0.3,0.2,0.4
							C774.7,895.2,774.6,895.3,774.4,895.3z"/>
						<path class="st21" d="M875.4,658.5c0,6.8-37.1,17.7-82.7,17.7h-1.2c-45.1-0.1-81-7.2-81-13.9c7.5-14,36.5-19.2,82.2-19.2
							c5.7,0,11.1,0.1,16.2,0.2C844.8,644.3,866.7,649.1,875.4,658.5z"/>
						<path class="st10" d="M681.9,1107.4c-1.4,3.9-2.8,7.7-4.4,11.2l-28.1-16.2l-32.6-18.8c-0.5-1.2-0.7-1.8-0.7-1.8
							s28,12.9,56.7,26.8c15.5-11.9,13.4-39,12.6-45.8c0.8,0.2,1.6,0.4,2.4,0.6C690.1,1072.5,688.1,1089.3,681.9,1107.4z"/>
					</g>
					<g>
						<path class="st3" d="M665.6,1141.8c-0.7-0.7-1.5-1.2-2.5-1.5c-0.9-0.3-1.9-0.4-2.8-0.4c-0.9,0-1.8,0.2-2.7,0.6
							c-0.4,0.2-0.8,0.4-1.2,0.6c-0.2,0.1-0.4,0.2-0.5,0.4c-0.2,0.1-0.4,0.3-0.5,0.4c-0.3,0.3-0.6,0.6-0.9,0.9
							c-0.3,0.3-0.6,0.9-0.8,1.3c-0.4,0.8-0.6,1.6-0.7,2.5c-0.1,0.9,0,1.8,0.2,2.6c0.2,0.9,0.6,1.7,1.1,2.5c0.5,0.8,1.2,1.5,2,2
							c-0.8-0.6-1.7-0.9-2.6-1.1c-0.9-0.2-1.9-0.2-2.8-0.1c-0.9,0.1-1.8,0.4-2.5,0.8c-0.8,0.4-1.5,1-2.1,1.7c-0.6,0.7-1,1.5-1.3,2.4
							c-0.3,0.9-0.4,1.8-0.4,2.7c0.1,1.8,0.8,3.7,2.2,5.1c1.4,1.4,3.3,2.1,5.2,2c1-0.1,1.9-0.3,2.9-0.8c0.9-0.5,1.8-1.1,2.5-2
							c0.7-0.9,1.2-1.8,1.5-2.8c0.3-1,0.4-2,0.3-3c-0.1-1-0.4-1.9-0.9-2.7c-0.5-0.8-1.2-1.5-2-2.1c0.8,0.6,1.7,0.9,2.7,1.1
							c0.9,0.1,1.9,0.1,2.9-0.2c0.9-0.3,1.9-0.7,2.7-1.4c0.8-0.7,1.5-1.5,2.1-2.6c1.1-2.1,1.3-4.6,0.6-6.5
							C666.8,1143.3,666.3,1142.5,665.6,1141.8z"/>
						<path class="st3" d="M669.3,1124c0.4-0.3,0.7-0.7,0.9-1.1c1.1-1.7,1.5-4.1,0.8-6.6c-0.1-0.3-0.2-0.6-0.3-0.9
							c-0.1-0.1-0.1-0.3-0.2-0.4c-0.1-0.1-0.1-0.3-0.2-0.4c-0.3-0.5-0.6-1-1-1.4c-0.4-0.4-0.8-0.8-1.2-1.1c-0.4-0.3-0.9-0.6-1.3-0.8
							c-0.9-0.4-1.9-0.6-2.8-0.6c-1,0-1.9,0.3-2.8,0.8c0.9-0.5,1.6-1.1,2.2-1.9c0.3-0.4,0.5-0.8,0.7-1.3c0.2-0.5,0.3-0.9,0.4-1.4
							c0.1-0.5,0.1-1,0.1-1.5c0-0.5-0.1-1.1-0.3-1.6c-0.3-1.1-1-2.3-1.8-3.2c-1.2-1.5-2.9-2.3-4.7-2.6c-0.9-0.1-1.9-0.1-2.8,0.1
							c-0.9,0.2-1.8,0.6-2.6,1.2c-0.8,0.6-1.5,1.3-1.9,2.1c-0.5,0.8-0.8,1.7-0.9,2.7c-0.2,1.9,0.4,4,1.8,5.7
							c0.5,0.7,1.3,1.3,2.1,1.7c0.4,0.2,0.8,0.4,1.2,0.5c0.4,0.1,0.8,0.2,1.2,0.3c0.4,0.1,0.9,0.1,1.3,0.1c0.4,0,0.9,0,1.4-0.1
							c0.9-0.1,1.9-0.4,2.7-0.9c-0.9,0.5-1.6,1.1-2.2,1.8c-0.6,0.7-1.1,1.5-1.4,2.3c-0.2,0.4-0.3,0.8-0.4,1.2
							c-0.1,0.4-0.2,0.8-0.2,1.2c-0.1,0.4-0.1,0.8,0,1.2c0.1,0.8,0.2,1,0.2,1.2c0.1,0.2,0.1,0.4,0.2,0.6c0.1,0.2,0.1,0.4,0.2,0.5
							c0.1,0.2,0.2,0.3,0.3,0.5c0.6,0.8,0.9,1.1,1.2,1.4c0.3,0.3,0.6,0.5,1,0.8c0.4,0.2,0.8,0.5,1.2,0.7c0.4,0.2,0.8,0.4,1.3,0.5
							c0.9,0.3,1.9,0.4,2.8,0.4c1-0.1,1.9-0.3,2.8-0.8C668.5,1124.7,668.9,1124.4,669.3,1124z"/>
						<path class="st3" d="M672.2,1132.4c0-0.6-0.1-1.2-0.3-1.7c-0.1-0.5-0.3-1.1-0.6-1.5c-0.2-0.5-0.5-0.9-0.8-1.3
							c-0.7-0.8-1.5-1.4-2.3-1.7c-0.9-0.4-1.9-0.5-2.9-0.5c-1,0.1-1.9,0.3-2.8,0.7c-0.9,0.4-1.6,0.9-2.3,1.4
							c-1.3,1.1-2.2,2.5-2.5,4.2c-0.1,0.4-0.1,0.8-0.1,1.2c0,0.4,0.1,0.8,0.2,1.2c0.1,0.4,0.2,0.8,0.4,1.2c0.2,0.4,0.4,0.8,0.6,1.2
							c0.1,0.2,0.2,0.4,0.4,0.6c0.1,0.2,0.3,0.4,0.4,0.5c0.3,0.3,0.6,0.7,1,1c0.7,0.6,1.6,1.1,2.5,1.4c0.9,0.3,1.9,0.4,2.9,0.3
							c0.5-0.1,0.9-0.2,1.4-0.3c0.2-0.1,0.5-0.2,0.7-0.3c0.2-0.1,0.4-0.2,0.6-0.4c0.4-0.3,0.8-0.6,1.2-1c0.4-0.4,0.7-0.8,1-1.3
							c0.3-0.5,0.6-1,0.8-1.5c0.2-0.5,0.4-1.1,0.5-1.7C672.2,1133.6,672.2,1133,672.2,1132.4z"/>
						<path class="st3" d="M635.4,1174.8c-0.6-0.8-1.3-1.5-2.1-2c-0.4-0.2-0.8-0.4-1.3-0.6c-0.4-0.2-0.9-0.3-1.3-0.4
							c-0.4-0.1-0.9-0.1-1.4-0.1c-0.5,0-0.9,0-1.4,0.1c-0.9,0.2-2,0.6-2.8,1.1c-0.4,0.2-0.8,0.5-1.1,0.8c-0.3,0.3-0.6,0.6-0.9,1
							c-0.5,0.7-0.9,1.5-1.2,2.4c-0.5,1.7-0.4,3.7,0.4,5.5c-0.9-1.8-2.4-3-4.1-3.7c-1.7-0.7-3.5-0.7-5.3-0.1c-1.7,0.6-3,1.9-3.8,3.5
							c-0.4,0.8-0.7,1.7-0.8,2.6c-0.1,0.9-0.1,1.9,0.1,2.9c0.2,1,0.7,1.9,1.3,2.6c0.6,0.7,1.4,1.4,2.2,1.8c1.8,0.9,4,1,6.2,0.2
							c2.1-0.8,3.7-2.4,4.5-4.2c0.8-1.8,0.7-3.8-0.2-5.6c0.9,1.8,2.4,3,4.3,3.5c1.9,0.5,4,0.2,5.9-0.9c0.9-0.6,2-1.4,2.5-2.3
							c0.3-0.4,0.6-0.9,0.8-1.3c0.2-0.5,0.4-0.9,0.5-1.4c0.1-0.5,0.2-0.9,0.2-1.4c0-0.5,0-1-0.1-1.4
							C636.4,1176.5,636,1175.6,635.4,1174.8z"/>
						<path class="st3" d="M639,1163.4c-0.4,0.1-0.8,0.3-1.2,0.5c-0.4,0.2-0.8,0.5-1.1,0.8c-1.4,1.2-2.3,2.9-2.5,4.7
							c-0.1,0.9-0.1,1.9,0.2,2.8c0.2,0.9,0.6,1.8,1.2,2.6c0.6,0.8,1.3,1.5,2.1,1.9c0.8,0.5,1.7,0.8,2.7,0.8c1,0.1,2,0,2.9-0.3
							c0.5-0.2,1-0.4,1.4-0.6c0.5-0.3,0.9-0.6,1.3-0.9s0.8-0.8,1.1-1.2c0.3-0.4,0.6-0.9,0.8-1.3c0.5-0.9,0.7-1.9,0.8-2.9
							c0.1-1.9-0.6-3.8-2-5.2c-1.4-1.4-3.3-2.1-5.1-2.2C640.8,1163,639.9,1163.1,639,1163.4z"/>
						<path class="st3" d="M592.8,1183.2c-0.2-0.4-0.4-0.7-0.7-1.1c-0.2-0.3-0.5-0.6-0.8-0.9c-0.3-0.3-0.6-0.5-0.9-0.8
							c-0.3-0.2-0.8-0.5-1.2-0.6c-0.2-0.1-0.4-0.1-0.6-0.2c-0.2-0.1-0.4-0.1-0.6-0.1c-0.2,0-0.4-0.1-0.6-0.1c-0.2,0-0.4,0-0.6,0
							c-0.2,0-0.4,0-0.6,0c-0.2,0-0.4,0-0.6,0.1c-0.4,0.1-0.8,0.1-1.3,0.3c-0.4,0.1-0.8,0.3-1.3,0.5c-0.4,0.2-0.8,0.4-1.2,0.6
							c-0.8,0.5-1.5,1.1-2.1,1.9c0.6-0.8,1-1.7,1.2-2.6c0.3-0.9,0.3-1.8,0.3-2.7c-0.1-1.8-0.6-3.4-1.8-4.6c-1.2-1.3-2.8-2-4.6-2.2
							c-1.8-0.2-3.7,0.2-5.4,1.4c-1.6,1.2-2.6,2.9-2.7,4.9c-0.2,2,0.6,4.1,2.2,5.8c1.6,1.7,3.8,2.6,5.8,2.6c1,0,2-0.3,2.8-0.7
							c0.8-0.4,1.6-1.1,2.2-1.9c-0.6,0.8-1,1.7-1.2,2.6c-0.1,0.5-0.1,1-0.1,1.4c0,0.5,0.1,1,0.3,1.5c0.1,0.5,0.4,1,0.6,1.4
							c0.1,0.2,0.3,0.5,0.4,0.7c0.2,0.2,0.3,0.4,0.5,0.6c0.2,0.2,0.4,0.4,0.6,0.6c0.2,0.2,0.5,0.4,0.7,0.6c0.3,0.2,0.5,0.3,0.8,0.5
							c0.3,0.1,0.6,0.3,0.8,0.4c0.6,0.3,1.4,0.5,2,0.7c0.6,0.1,1.2,0.2,1.8,0.2c0.6,0,1.1-0.1,1.7-0.2c0.5-0.1,1-0.3,1.5-0.5
							c0.2-0.1,0.4-0.2,0.7-0.4c0.2-0.1,0.4-0.3,0.6-0.5c0.4-0.3,0.7-0.7,1-1.1c0.6-0.8,0.9-1.7,1.1-2.7
							C594.1,1186.6,593.6,1184.7,592.8,1183.2z"/>
						<path class="st3" d="M605.5,1183.3c-1.4-1-3.1-1.6-4.7-1.5c-0.4,0-0.8,0.1-1.2,0.2c-0.4,0.1-0.8,0.2-1.1,0.4
							c-0.2,0.1-0.4,0.2-0.5,0.3c-0.2,0.1-0.4,0.2-0.5,0.3c-0.3,0.2-0.7,0.5-1,0.8c-0.6,0.6-1.2,1.3-1.7,2.1c-0.5,0.8-0.8,1.7-1,2.7
							c-0.2,1-0.1,2,0.2,2.9c0.3,0.9,0.8,1.8,1.5,2.5c0.4,0.4,0.8,0.7,1.2,1c0.2,0.1,0.5,0.3,0.7,0.4c0.2,0.1,0.5,0.2,0.8,0.3
							c0.5,0.2,1.1,0.4,1.7,0.4c0.6,0.1,1.2,0.1,1.8,0.1c2.5-0.1,4.5-1.3,5.7-2.9c0.6-0.8,1-1.7,1.2-2.6c0.2-0.9,0.2-1.9,0-2.9
							c-0.2-1-0.7-1.9-1.2-2.6C606.8,1184.4,606.2,1183.8,605.5,1183.3z"/>
						<path class="st3" d="M562.1,1159.2c1.8-0.9,3-2.4,3.6-4.2c0.6-1.7,0.5-3.9-0.3-5.7c-0.8-1.8-2.2-3.1-4-3.9
							c-1.7-0.7-3.7-0.8-5.5-0.1c1.8-0.8,3.2-2.2,3.9-3.9c0.7-1.7,0.8-3.7,0.1-5.6c-1.4-3.8-5.6-5.8-9.3-4.4
							c-3.8,1.4-5.7,5.6-4.2,9.5c0.7,2,2.2,3.4,3.9,4.2c1.7,0.8,3.7,0.9,5.6,0.1c-1.8,0.8-3.2,2.2-3.9,4c-0.7,1.8-0.7,3.9,0.2,5.8
							c0.9,2,2.5,3.6,4.3,4.3C558.3,1160.1,560.3,1160.1,562.1,1159.2z"/>
						<path class="st3" d="M571.7,1169.9c0.2-0.4,0.5-0.8,0.6-1.2c0.2-0.4,0.3-0.9,0.4-1.3c0.4-1.8,0.1-3.6-0.8-5.3
							c-1-1.6-2.5-2.8-4.3-3.3c-0.9-0.3-1.8-0.4-2.8-0.3c-0.9,0.1-1.9,0.3-2.8,0.8c-0.9,0.4-1.6,1.1-2.2,1.8c-0.6,0.7-1,1.6-1.3,2.5
							c-0.5,1.9-0.3,4,0.9,5.9c1.1,1.9,2.9,3.2,4.8,3.7c0.5,0.1,1,0.2,1.4,0.2c0.5,0,1,0,1.4-0.1c0.9-0.2,1.8-0.6,2.6-1.2
							C570.6,1171.4,571.2,1170.6,571.7,1169.9z"/>
						<path class="st3" d="M545.7,1117.4c3.8-1.3,5.6-5.8,4.3-9.7c-0.3-1-0.9-1.8-1.5-2.6c-0.6-0.7-1.4-1.3-2.3-1.7
							c-0.8-0.3-1.7-0.5-2.6-0.6c-0.9-0.1-1.9,0-2.8,0.2c1-0.3,1.8-0.7,2.6-1.3c0.8-0.5,1.4-1.2,1.9-1.9c1.1-1.4,1.6-2.9,1.6-4.6
							c-0.1-1.7-0.9-3.2-2.1-4.5c-0.6-0.6-1.3-1.2-2.2-1.6c-0.8-0.4-1.8-0.7-2.7-0.9c-1-0.1-2,0-2.9,0.3c-0.9,0.3-1.7,0.8-2.4,1.5
							c-1.4,1.4-2.3,3.6-2.2,6c0,0.6,0.1,1.2,0.3,1.8c0.1,0.3,0.2,0.6,0.3,0.8c0.1,0.3,0.2,0.5,0.4,0.8c0.2,0.5,0.5,1,0.9,1.4
							c0.3,0.4,0.7,0.8,1.1,1.1c0.8,0.6,1.7,1.1,2.7,1.2c0.9,0.2,1.9,0.1,2.9-0.1c-1,0.3-1.8,0.7-2.5,1.4c-0.7,0.6-1.2,1.5-1.6,2.4
							c-0.4,0.9-0.6,1.8-0.7,2.8c0,1,0.1,1.9,0.4,2.9C537.7,1116.4,541.9,1118.7,545.7,1117.4z"/>
						<path class="st3" d="M555,1122c-1.4-3.9-5.5-5.9-9.3-4.6c-3.8,1.3-5.7,5.5-4.3,9.4c1.4,3.9,5.6,6,9.3,4.6
							C554.4,1130.1,556.4,1125.9,555,1122z"/>
						<path class="st3" d="M552.5,1069.9c-0.8,1.6-2.2,3-3.8,3.7c-0.4,0.2-0.9,0.3-1.3,0.4c-0.4,0.1-0.9,0.2-1.4,0.2
							c-0.9,0.1-1.9-0.1-2.9-0.4c-0.9-0.3-1.8-0.9-2.5-1.5c-0.3-0.3-0.7-0.7-0.9-1.1c-0.3-0.4-0.5-0.8-0.7-1.3
							c-0.7-1.8-0.6-4.2,0.3-6.2c0.5-1,1.1-1.9,1.9-2.6c0.8-0.7,1.6-1.2,2.5-1.5c0.9-0.3,1.9-0.4,2.8-0.4c0.4,0,0.9,0.1,1.3,0.3
							C548.5,1063.3,550,1066.9,552.5,1069.9z"/>
						<path class="st3" d="M542.6,1088.1c0.9-0.2,1.7-0.7,2.5-1.2c1.5-1,2.6-2.5,3-4.2c0.4-1.8,0.1-3.6-0.7-5.2
							c-0.4-0.8-1-1.5-1.7-2.2c-0.7-0.6-1.5-1.1-2.5-1.5c-0.9-0.3-1.9-0.4-2.9-0.4c-0.9,0.1-1.9,0.4-2.7,0.9c-1.7,1-3.1,2.7-3.6,4.9
							c-0.5,2.2-0.1,4.5,1,6.1c0.5,0.8,1.2,1.5,2.1,2c0.8,0.5,1.7,0.8,2.7,0.9C540.7,1088.4,541.7,1088.3,542.6,1088.1z"/>
						<path class="st3" d="M607.6,1025.8c0,0.9,0.1,1.8,0.3,2.6c0,0.2,0.1,0.4,0.2,0.6c0.1,0.2,0.1,0.4,0.2,0.6
							c0.1,0.2,0.1,0.4,0.2,0.5c0.1,0.2,0.1,0.3,0.2,0.5c0.3,0.6,0.7,1.2,1.3,1.6c0.3,0.2,0.7,0.5,1,0.7c0.2,0.1,0.3,0.2,0.5,0.2
							c0.2,0.1,0.3,0.1,0.5,0.2c0.2,0.1,0.4,0.1,0.6,0.2c0.2,0,0.4,0.1,0.6,0.1c0.2,0,0.4,0.1,0.6,0.1c0.2,0,0.4,0,0.6,0.1
							c0.9,0,1.8-0.1,2.7-0.3c0.9-0.2,1.8-0.6,2.6-1.2c-0.8,0.6-1.5,1.3-2,2.1c-0.5,0.8-0.9,1.6-1.1,2.5c-0.5,1.7-0.4,3.5,0.5,5.1
							c0.8,1.6,2.3,2.9,4,3.5c1.7,0.6,3.7,0.7,5.5-0.1c1.8-0.8,3.2-2.3,3.8-4.1c0.6-1.8,0.5-4-0.5-6c-1-2-2.8-3.5-4.7-4
							c-1-0.3-1.9-0.3-2.9-0.2c-0.9,0.2-1.8,0.5-2.6,1.1c0.8-0.6,1.5-1.3,1.9-2.1c0.5-0.8,0.7-1.8,0.7-2.8c0-0.3,0-0.5,0-0.8
							c0-0.3-0.1-0.5-0.1-0.8c-0.1-0.3-0.1-0.5-0.2-0.8c-0.1-0.3-0.2-0.5-0.3-0.8c-0.1-0.3-0.3-0.5-0.4-0.8
							c-0.2-0.3-0.3-0.5-0.5-0.8c-0.4-0.5-1.1-1.2-1.6-1.6c-1-0.8-2.2-1.5-3.4-1.8c-0.3-0.1-0.6-0.1-0.9-0.2c-0.3,0-0.6-0.1-0.9-0.1
							c-0.3,0-0.6,0-0.8,0c-0.3,0-0.5,0.1-0.8,0.1c-1,0.2-1.9,0.7-2.7,1.3c-0.7,0.6-1.2,1.5-1.6,2.4
							C607.8,1023.9,607.6,1024.8,607.6,1025.8z"/>
						<path class="st3" d="M595.3,1025.8c0.3,0.4,0.6,0.7,0.9,1c0.2,0.1,0.3,0.3,0.5,0.4c0.2,0.1,0.3,0.3,0.5,0.4
							c0.3,0.2,0.7,0.4,1,0.6c0.4,0.2,0.7,0.3,1.1,0.4c0.4,0.1,0.8,0.2,1.2,0.2c1.6,0.1,2.9-0.5,4.3-1.5c0.7-0.5,1.3-1.1,1.9-1.8
							c0.6-0.7,1.1-1.5,1.4-2.5c0.3-0.9,0.5-1.9,0.3-2.9c-0.1-1-0.5-1.9-1.1-2.7c-0.3-0.4-0.7-0.8-1.1-1.2c-0.4-0.4-0.9-0.7-1.4-0.9
							c-0.3-0.1-0.5-0.3-0.8-0.4c-0.3-0.1-0.6-0.2-0.9-0.3c-0.6-0.2-1.2-0.2-1.9-0.3c-0.6,0-1.2,0-1.8,0.1c-0.6,0.1-1.2,0.3-1.7,0.5
							c-0.5,0.2-1,0.5-1.5,0.8c-0.2,0.2-0.4,0.3-0.6,0.5c-0.2,0.2-0.4,0.3-0.6,0.5c-0.4,0.4-0.6,0.8-0.9,1.2
							c-0.2,0.4-0.4,0.9-0.6,1.3c-0.3,0.9-0.3,1.9-0.1,2.9c0.2,1,0.6,1.9,1.1,2.7C594.7,1025.1,595,1025.5,595.3,1025.8z"/>
						<path class="st3" d="M622.8,1049.4c-0.7,1.7-0.8,3.7-0.1,5.6c1.5,3.8,5.7,5.8,9.4,4.3c-3.7,1.4-5.6,5.7-4,9.6
							c0.8,2,2.4,3.6,4.1,4.4c1.7,0.8,3.7,0.8,5.6,0c-1.8,0.8-3.1,2.3-3.8,4.1c-0.6,1.8-0.5,3.9,0.4,5.8c0.9,1.9,2.6,3.3,4.4,3.9
							c1.8,0.6,3.8,0.5,5.6-0.5c1.8-1,2.9-2.6,3.5-4.3c0.5-1.8,0.4-3.7-0.4-5.5c-0.9-1.8-2.4-3-4.1-3.7c-1.7-0.7-3.7-0.7-5.5,0.1
							c1.8-0.8,3.1-2.3,3.8-4c0.7-1.7,0.7-3.9-0.1-5.8c-1.5-3.7-5.7-5.7-9.4-4.2c3.7-1.4,5.6-5.7,4.1-9.6c-0.8-1.9-2.2-3.4-4-4.2
							c-1.7-0.8-3.7-0.9-5.6-0.1C624.8,1046.2,623.5,1047.7,622.8,1049.4z"/>
						<path class="st3" d="M641,1091.2c-0.2,0.9-0.2,1.9-0.1,2.9c0.2,1,0.5,2,1.1,2.9c0.3,0.5,0.6,0.9,1,1.3c0.4,0.4,0.8,0.7,1.2,1
							c0.8,0.6,1.7,1,2.7,1.2c1.9,0.4,3.8,0,5.5-1.1c1.6-1.2,2.6-2.9,2.9-4.7c0.2-0.9,0.2-1.8,0-2.7c-0.1-0.5-0.2-0.9-0.4-1.3
							c-0.2-0.4-0.4-0.9-0.6-1.3c-0.5-0.8-1.2-1.5-1.9-2c-0.7-0.5-1.6-0.9-2.5-1.2c-1.8-0.5-3.8-0.3-5.5,0.7
							C642.6,1087.7,641.5,1089.3,641,1091.2z"/>
					</g>
				</g>
				<path class="st10" d="M656.6,1231.8c-0.1,0.5-0.3,1-0.4,1.4l-39.1-0.5c0,0,6.4-1.2,21-3.7c6.2-1,10.2-7.2,8.5-13.2
					c-2.1-7.6-5.1-14.8-6.7-17.1c3.4-0.8,6.3-1.4,8-1.7c0.2,0,0.5,0,0.7,0.1C655.8,1202.2,661.8,1213.4,656.6,1231.8z"/>
				<path class="st7" d="M921.1,862.3c-11.7,62.2-72.1,62.3-72.7,62.3c6-2.1,24-9,40-22.3c11.1-9.2,21.2-21.9,25.7-39.1
					c0.3-1.1,0.5-2.2,0.8-3.3C916.5,860.6,918.6,861.3,921.1,862.3z"/>
				<path class="st7" d="M1100.7,1262.3c-10.4-118-34.3-282.8-94-354.5c-1.1,0.7-1.9,1.3-2.5,1.8c4.3,4,7.9,9,10.7,15
					c6.2,13.4,5.9,38.9,1.3,69.6c-3.4,22.1-9,46.8-16.1,71.7c-0.7,2.5-1.4,4.9-2.1,7.3c-0.1,0.2-0.1,0.4-0.2,0.6
					c-0.7,2.2-1.4,4.5-2,6.7c-0.1,0.3-0.2,0.6-0.3,0.8c-0.7,2.2-1.3,4.3-2,6.5c-0.1,0.3-0.2,0.7-0.3,1c-0.7,2.1-1.4,4.2-2.1,6.3
					c-0.1,0.3-0.2,0.7-0.3,1c-0.7,2.1-1.4,4.3-2.2,6.4c-0.1,0.3-0.2,0.6-0.3,0.8c-0.8,2.2-1.5,4.4-2.3,6.6c-1.2,3.2-2.2,6-3.2,8.8
					c-19.1,50.8-42.5,93.5-62.8,102.9c0,0-12.2,10.6-35.5,10.3c1.2,3.6,2.5,7.3,3.9,10.8l57.3-1.7c0,0,80.5-180.1,86.7-249.7
					c0.1-0.8,0.2-1.7,0.3-2.5c12.5,48.9,20.5,214.7-62.2,264.7c39.1-13.1,97-71.8,96.1-116.2c2.6,75.6-26.7,123.6-91.6,152
					c48.9-12.4,93.4-40.4,111.1-76.2c1.8,46-11.5,89.5-11.5,89.5s-80.2,147-401.7,180.6c0.4,0.5,0.7,0.8,0.7,0.8
					s23.7,36.8,52.6,35.9c103.4-3.1,228.3,3,346.3-32.7c0,0,6.7,1.6,11.7,5.2c31.1-8.8,25.3-48.3,20.2-68.2
					c-1.8-7-3.5-11.6-3.5-11.6s5.2-3.3,10.4-15c4.3-9.8,8.6-25.6,9.8-50.5C1122.8,1305.2,1100.7,1262.3,1100.7,1262.3z"/>
				<path class="st26" d="M946,906.5c-21.1,23.9-57.7,226.1-78.6,230.8c-20.7,4.7-163.4-73.8-166-75.2c18.1,5.5,47.6,15.2,79,28.3
					c26,8.6,57.2,22.1,77.6,30.6c0.6-2.5,1.8-4.8,4.5-5.2c3.5-0.5,4.8,4,4.9,4.6c-0.1-0.6-1-6.2,2-8c1.3-0.8,4.9-1.5,5.8-0.1
					c14.3-45.2,45.9-187.4,68.3-204.1C944.4,907.7,945.2,907.1,946,906.5z"/>
				<path class="st27" d="M875.7,816.1c-12.7,3.3-21.5,0.6-30.6-12.2c-11.1-1.1-19.1-14.2-28-41c-63.8,12.9-100.9,1-115.7-6
					c0-2,0-4,0.1-6.1c7.8,1.6,50.1,9.5,104.9,5c3.5-0.3,7.1-0.6,10.7-1c3.1,3.5,10.8,13.1,13.9,24.5c1.8,6.6,7.5,11.4,14.3,12.2
					c1.8,0.2,3.3,0.4,4.5,0.6c1.7,13.3,9.5,23.6,19.9,24.6C871.8,816.8,873.8,816.6,875.7,816.1z"/>
				<g class="st28">
					<defs>
						<filter id="Adobe_OpacityMaskFilter" filterUnits="userSpaceOnUse" x="791.5" y="658.5" width="110.2" height="98">
							<feFlood  style="flood-color:white;flood-opacity:1" result="back"/>
							<feBlend  in="SourceGraphic" in2="back" mode="normal"/>
						</filter>
					</defs>
					<mask maskUnits="userSpaceOnUse" x="791.5" y="658.5" width="110.2" height="98" id="SVGID_10_">
						<g class="st29">
							<defs>
								<filter id="Adobe_OpacityMaskFilter_1_" filterUnits="userSpaceOnUse" x="791.5" y="658.5" width="110.2" height="98">
									<feFlood  style="flood-color:white;flood-opacity:1" result="back"/>
									<feBlend  in="SourceGraphic" in2="back" mode="normal"/>
								</filter>
							</defs>
							<mask maskUnits="userSpaceOnUse" x="791.5" y="658.5" width="110.2" height="98" id="SVGID_10_">
								<g class="st30">
								</g>
							</mask>
							<linearGradient id="SVGID_11_" gradientUnits="userSpaceOnUse" x1="791.5234" y1="707.4654" x2="901.6906" y2="707.4654">
								<stop  offset="0" style="stop-color:#000000"/>
								<stop  offset="1" style="stop-color:#FFFFFF"/>
							</linearGradient>
							<path class="st31" d="M897.7,735.8C897.7,735.8,897.7,735.8,897.7,735.8c-11.9,4.5-23.8,8.1-35.5,11
								c-19.3,4.7-38.1,7.5-55.8,8.9c-3.4,0.3-6.8,0.5-10.1,0.7c2.4-33.9-1.7-63.8-4.7-80.3h1.2c45.7,0,82.7-10.9,82.7-17.7
								c0.9,0.7,1.7,1.5,2.4,2.3c1.9,2,3.5,4.3,4.7,6.8c0.7,1.5,1.3,3,1.8,4.6c0,0.2,0.1,0.3,0.1,0.5c3,10.9,7.9,27.8,14.5,48
								c0.6,1.7,1.1,3.5,1.7,5.3c0.2,0.7,0.5,1.5,0.7,2.2C902.4,731.3,900.8,734.6,897.7,735.8z"/>
						</g>
					</mask>
					<linearGradient id="SVGID_12_" gradientUnits="userSpaceOnUse" x1="791.5234" y1="707.4654" x2="901.6906" y2="707.4654">
						<stop  offset="0" style="stop-color:#38130F"/>
						<stop  offset="1" style="stop-color:#38130F"/>
					</linearGradient>
					<path class="st32" d="M897.7,735.8c-11.9,4.5-23.8,8.1-35.5,11c-19.3,4.7-38.1,7.5-55.8,8.9c-3.4,0.3-6.8,0.5-10.1,0.7
						c2.4-33.9-1.7-63.8-4.7-80.3h1.2c45.7,0,82.7-10.9,82.7-17.7c0.9,0.7,1.7,1.5,2.4,2.3c1.9,2,3.5,4.3,4.7,6.8
						c0.7,1.5,1.3,3,1.8,4.6c0,0.2,0.1,0.3,0.1,0.5c3,10.9,7.9,27.8,14.5,48c0.6,1.7,1.1,3.5,1.7,5.3c0.2,0.7,0.5,1.5,0.7,2.2
						C902.4,731.3,900.8,734.6,897.7,735.8z"/>
				</g>
				<path class="st33" d="M892.4,1253.6c-29.7,41.1-116.6,79.7-180.4,101.8c-63.2,21.9-53.5,103.5-53.4,105
					c-7.7-18-12.2-44.6,6-74.3c8.9-14.6,30.5-29.6,57.8-43.9c27.4-14.3,60.5-27.9,92.6-39.7C860.5,1284.6,891.4,1254.5,892.4,1253.6
					z"/>
			</g>
			<g>
				<g>
					<g>
						<g>
							<path class="st34" d="M545.9,1530.1c-2.6,0-5.2-1.1-7-3.3c-3.2-3.8-2.6-9.5,1.2-12.7l108.5-89.2c3.8-3.2,9.5-2.6,12.7,1.2
								c3.2,3.8,2.6,9.5-1.2,12.7l-108.5,89.2C549.9,1529.4,547.9,1530.1,545.9,1530.1z"/>
							<path class="st35" d="M654.3,1431.9l-108.5,89.2h-47.1l36.4-29.9c9.5-7.8,4-23.1-8.3-23.1h-7.1c-18,0-35.5,6.3-49.4,17.7
								l-43,35.3h-69.9l108.5-89.2H654.3z"/>
							<path class="st34" d="M762.8,1530.1c-2,0-4-0.7-5.7-2l-108.4-89.2c-3.8-3.2-4.4-8.8-1.2-12.7c3.2-3.8,8.8-4.4,12.7-1.2
								l108.4,89.2c3.8,3.2,4.4,8.8,1.2,12.7C768,1529,765.4,1530.1,762.8,1530.1z"/>
							<path class="st34" d="M654.3,1440.9c-2,0-4-0.7-5.7-2.1l-108.5-89.2c-3.8-3.2-4.4-8.8-1.2-12.7c3.2-3.8,8.8-4.4,12.7-1.2
								l108.5,89.2c3.8,3.2,4.4,8.8,1.2,12.7C659.5,1439.8,656.9,1440.9,654.3,1440.9z"/>
							<g>
								<polygon class="st2" points="654.3,1431.9 465.9,1431.9 357.5,1342.7 545.9,1342.7 								"/>
								<path class="st36" d="M656.3,1432.6H465.7c-0.2-0.2-110.1-90.6-110.1-90.6h190.6C546.3,1342.1,656.3,1432.6,656.3,1432.6z
									 M466.2,1431.2h186.2l-106.8-87.8H359.4L466.2,1431.2z"/>
							</g>
							<linearGradient id="SVGID_13_" gradientUnits="userSpaceOnUse" x1="465.9539" y1="1476.4918" x2="762.7891" y2="1476.4918">
								<stop  offset="1.117320e-02" style="stop-color:#CF4843"/>
								<stop  offset="1" style="stop-color:#DF7572"/>
							</linearGradient>
							<path class="st37" d="M762.8,1521.1h-47l-40.1-33l-4-3.3c-13.2-10.8-29.7-16.7-46.7-16.7h-17c-9.4,0-13.7,11.8-6.4,17.8
								l13.3,10.9l29.6,24.3h-70L466,1431.9h188.4l61.4,50.5L762.8,1521.1z"/>
							<path class="st38" d="M581.4,1526.8c-1.8,2.2-4.4,3.3-7,3.3c-2,0-4-0.7-5.7-2.1l-94.3-77.6l-8.4-6.9l-114.2-93.9
								c-3.8-3.2-4.4-8.8-1.2-12.7c3.2-3.8,8.8-4.4,12.7-1.2l116.9,96.2l9.5,7.8l90.5,74.4C584,1517.3,584.5,1523,581.4,1526.8z"/>
							<linearGradient id="SVGID_14_" gradientUnits="userSpaceOnUse" x1="465.9499" y1="1387.2856" x2="762.7851" y2="1387.2856">
								<stop  offset="1.117320e-02" style="stop-color:#CF4843"/>
								<stop  offset="1" style="stop-color:#DF7572"/>
							</linearGradient>
							<polygon class="st39" points="762.8,1342.7 654.3,1431.9 465.9,1431.9 574.4,1342.7 							"/>
							<path class="st38" d="M580.1,1349.6l-91.9,75.6l-36.5,30l-88.6,72.8c-1.7,1.4-3.7,2.1-5.7,2.1c-2.6,0-5.2-1.1-7-3.3
								c-3.2-3.8-2.6-9.5,1.2-12.7l105-86.4c0,0,7.3-6,7.3-6l104.6-86c3.8-3.2,9.5-2.6,12.7,1.2
								C584.5,1340.8,584,1346.5,580.1,1349.6z"/>
							<path class="st34" d="M768.5,1349.6l-107.1,88.1l-7.1-5.8l108.4-89.2h-14.2l8.4-7c3.8-3.2,9.5-2.6,12.7,1.2
								C772.9,1340.8,772.4,1346.5,768.5,1349.6z"/>
						</g>
						<polygon class="st40" points="386,1334.9 545.6,1340.4 553.1,1348.6 465.9,1420.2 						"/>
						<path class="st41" d="M465.9,1398.1v22.1l-94.3-77.5l4-2.1l5.2,1.3l0.8-2.5l3.4-1l1-3.4
							C446.5,1367.8,465.9,1398.1,465.9,1398.1z"/>
						<path class="st42" d="M549.1,1351.9l-83.1,68.4v-22.1c0,0,6.8-6.5,17.4-15.2c0.4-0.3,0.7-0.6,1.1-0.9c3.8-3.1,8-6.4,12.6-9.7
							c0.4-0.3,0.7-0.5,1.1-0.8c3.7-2.7,7.5-5.4,11.6-8.1c0.4-0.3,0.8-0.5,1.2-0.8c3.5-2.3,7.2-4.6,10.9-6.8
							c0.4-0.3,0.8-0.5,1.2-0.7c3.5-2,7.1-3.9,10.6-5.7c0.4-0.2,0.9-0.4,1.3-0.6c2.7-1.3,5.5-2.5,8.2-3.6L549.1,1351.9z"/>
						<polygon class="st40" points="543.2,1345.1 557.2,1345.1 549.1,1351.9 						"/>
						<linearGradient id="SVGID_15_" gradientUnits="userSpaceOnUse" x1="387.4968" y1="1372.801" x2="461.995" y2="1372.801">
							<stop  offset="1.117320e-02" style="stop-color:#CF4843"/>
							<stop  offset="1" style="stop-color:#DF7572"/>
						</linearGradient>
						<path class="st43" d="M387.5,1341.8c7.1,3.9,14.1,8.2,20.8,12.7c6.8,4.5,13.3,9.3,19.7,14.4c6.3,5.1,12.5,10.5,18.2,16.2
							c5.7,5.8,11,12,15.7,18.7c-4.9-6.5-10.3-12.6-16.1-18.3c-5.9-5.6-12-11-18.3-16.1c-6.3-5.1-12.9-9.9-19.6-14.5
							c-3.3-2.3-6.7-4.6-10.2-6.8C394.5,1346,391,1343.9,387.5,1341.8z"/>
						<linearGradient id="SVGID_16_" gradientUnits="userSpaceOnUse" x1="382.1061" y1="1380.2753" x2="461.995" y2="1380.2753">
							<stop  offset="1.117320e-02" style="stop-color:#CF4843"/>
							<stop  offset="1" style="stop-color:#DF7572"/>
						</linearGradient>
						<path class="st44" d="M382.1,1347.4c7.7,4,15.2,8.5,22.5,13.2c7.3,4.8,14.4,9.8,21.2,15.2c6.8,5.4,13.3,11.2,19.5,17.4
							c6.1,6.2,11.8,12.8,16.8,19.9c-2.7-3.4-5.2-6.9-8.2-10.1c-2.8-3.3-5.9-6.4-8.9-9.5c-6.2-6-12.7-11.8-19.6-17.1
							c-6.8-5.4-13.8-10.5-21-15.3c-3.6-2.4-7.3-4.7-11-7C389.6,1351.7,385.9,1349.5,382.1,1347.4z"/>
						<linearGradient id="SVGID_17_" gradientUnits="userSpaceOnUse" x1="469.544" y1="1374.7789" x2="541.7916" y2="1374.7789">
							<stop  offset="1.117320e-02" style="stop-color:#CF4843"/>
							<stop  offset="1" style="stop-color:#DF7572"/>
						</linearGradient>
						<path class="st45" d="M469.5,1399.2c5.2-5.1,10.7-9.9,16.4-14.5c5.7-4.6,11.6-8.9,17.6-13.1c6-4.1,12.2-8,18.6-11.6
							c6.3-3.7,13-6.8,19.6-9.7l-4.9,2.4l-2.5,1.2l-2.4,1.3l-4.8,2.6l-4.7,2.7c-6.3,3.7-12.5,7.5-18.5,11.7
							c-6,4.1-11.9,8.4-17.6,12.9c-2.9,2.3-5.7,4.5-8.5,6.9C475,1394.4,472.2,1396.7,469.5,1399.2z"/>
						<linearGradient id="SVGID_18_" gradientUnits="userSpaceOnUse" x1="468.6165" y1="1382.7456" x2="540.3212" y2="1382.7456">
							<stop  offset="1.117320e-02" style="stop-color:#CF4843"/>
							<stop  offset="1" style="stop-color:#DF7572"/>
						</linearGradient>
						<path class="st46" d="M468.6,1410.3c5.1-5.6,10.5-10.9,16.1-16c5.6-5.1,11.4-10,17.4-14.7c6-4.7,12.1-9.1,18.5-13.2
							c6.3-4.2,13-7.8,19.7-11.3c-3.3,1.9-6.7,3.6-9.8,5.6c-1.6,1-3.2,1.9-4.8,3l-4.7,3.1c-6.3,4.2-12.4,8.6-18.4,13.3
							c-6,4.6-11.8,9.5-17.4,14.5c-2.8,2.5-5.6,5.1-8.4,7.7C474,1405,471.3,1407.6,468.6,1410.3z"/>
						<polygon class="st3" points="374.6,1341.1 465.9,1417.4 465.9,1420.2 371.7,1342.7 						"/>
						<polygon class="st3" points="465.9,1420.2 549.9,1351.2 548.7,1349.7 465.9,1417 						"/>
						<g class="st47">
							<linearGradient id="SVGID_19_" gradientUnits="userSpaceOnUse" x1="412.8916" y1="1363.9979" x2="466.6429" y2="1363.9979">
								<stop  offset="1.117320e-02" style="stop-color:#CF4843"/>
								<stop  offset="1" style="stop-color:#DF7572"/>
							</linearGradient>
							<path class="st48" d="M465.9,1389.9c-0.3,0-0.5-0.1-0.6-0.4c-14.5-30.5-51.7-50-52.1-50.2c-0.3-0.2-0.5-0.6-0.3-0.9
								c0.2-0.3,0.6-0.5,0.9-0.3c0.4,0.2,38,19.9,52.7,50.8c0.2,0.3,0,0.8-0.3,0.9C466.2,1389.9,466.1,1389.9,465.9,1389.9z"/>
							<linearGradient id="SVGID_20_" gradientUnits="userSpaceOnUse" x1="435.1148" y1="1360.9287" x2="484.4844" y2="1360.9287">
								<stop  offset="1.117320e-02" style="stop-color:#CF4843"/>
								<stop  offset="1" style="stop-color:#DF7572"/>
							</linearGradient>
							<path class="st49" d="M484.5,1382c-0.4,0.3-0.7,0.6-1.1,0.9c-16.4-26.1-47.6-42.5-47.9-42.6c-0.3-0.2-0.5-0.6-0.3-0.9
								c0.2-0.3,0.6-0.5,0.9-0.3C436.4,1339.2,467.9,1355.7,484.5,1382z"/>
							<linearGradient id="SVGID_21_" gradientUnits="userSpaceOnUse" x1="457.3454" y1="1356.0725" x2="498.1279" y2="1356.0725">
								<stop  offset="1.117320e-02" style="stop-color:#CF4843"/>
								<stop  offset="1" style="stop-color:#DF7572"/>
							</linearGradient>
							<path class="st50" d="M498.1,1371.5c-0.4,0.3-0.7,0.5-1.1,0.8c-16.7-19.3-39.1-31-39.3-31.1c-0.3-0.2-0.5-0.6-0.3-0.9
								c0.2-0.3,0.6-0.5,0.9-0.3C458.6,1340.1,481.2,1351.9,498.1,1371.5C498.1,1371.4,498.1,1371.4,498.1,1371.5z"/>
							<linearGradient id="SVGID_22_" gradientUnits="userSpaceOnUse" x1="479.5757" y1="1352.08" x2="510.8406" y2="1352.08">
								<stop  offset="1.117320e-02" style="stop-color:#CF4843"/>
								<stop  offset="1" style="stop-color:#DF7572"/>
							</linearGradient>
							<path class="st51" d="M510.8,1362.6c-0.4,0.3-0.8,0.5-1.2,0.8c-14.6-13.4-29.6-21.2-29.7-21.3c-0.3-0.2-0.5-0.6-0.3-0.9
								c0.2-0.3,0.6-0.5,0.9-0.3c0.2,0.1,15.4,8,30.2,21.6C510.8,1362.5,510.8,1362.5,510.8,1362.6z"/>
							<linearGradient id="SVGID_23_" gradientUnits="userSpaceOnUse" x1="501.8036" y1="1348.7529" x2="523.0145" y2="1348.7529">
								<stop  offset="1.117320e-02" style="stop-color:#CF4843"/>
								<stop  offset="1" style="stop-color:#DF7572"/>
							</linearGradient>
							<path class="st52" d="M523,1355.1c-0.4,0.2-0.8,0.5-1.2,0.7c-10.6-8.1-19.5-12.8-19.6-12.8c-0.3-0.2-0.5-0.6-0.3-0.9
								c0.2-0.3,0.6-0.5,0.9-0.3c0.1,0.1,9.2,4.8,20,13.1C522.9,1354.9,523,1355,523,1355.1z"/>
							<linearGradient id="SVGID_24_" gradientUnits="userSpaceOnUse" x1="524.0242" y1="1346.005" x2="534.9849" y2="1346.005">
								<stop  offset="1.117320e-02" style="stop-color:#CF4843"/>
								<stop  offset="1" style="stop-color:#DF7572"/>
							</linearGradient>
							<path class="st53" d="M535,1348.8c-0.5,0.2-0.9,0.4-1.3,0.6c-5.5-3.5-9.2-5.5-9.2-5.5c-0.3-0.2-0.5-0.6-0.3-0.9
								c0.2-0.3,0.6-0.5,0.9-0.3c0,0,4,2.1,9.7,5.8C534.9,1348.6,534.9,1348.7,535,1348.8z"/>
						</g>
					</g>
					<g>
						<path class="st2" d="M662,1386.5c2.2,7.1-0.7,14.7-8.8,20.4c-13.2,9.1-38.9,11.7-59.4,2.7c-26.8-11.8-27.1-33.7,0.7-43
							c16.2-5.4,35.3-3.5,48.7,2.4c-9.1-2.9-20.2-3.3-29.4,0.1c-17.3,6.5-17.6,21.5-1.2,30.6c13.5,7.5,32,6.8,42,0.2
							C660.1,1396.3,662.6,1391.3,662,1386.5z"/>
						<polygon class="st2" points="646.1,1371.6 653.7,1375.9 659.7,1372.8 658,1378.3 664.3,1381.9 656.9,1381.7 655.1,1387.2 
							651.9,1381.6 643,1381.4 649.7,1377.9 						"/>
					</g>
				</g>
				<polygon class="st34" points="489.6,1439.7 474.4,1450.5 466,1443.5 480.1,1431.9 				"/>
				<defs>
					<filter id="Adobe_OpacityMaskFilter_2_" filterUnits="userSpaceOnUse" x="480.1" y="1431.9" width="235.6" height="71.6">
						<feFlood  style="flood-color:white;flood-opacity:1" result="back"/>
						<feBlend  in="SourceGraphic" in2="back" mode="normal"/>
					</filter>
				</defs>
				<mask maskUnits="userSpaceOnUse" x="480.1" y="1431.9" width="235.6" height="71.6" id="SVGID_25_">
					<g class="st54">
						<defs>
							<filter id="Adobe_OpacityMaskFilter_3_" filterUnits="userSpaceOnUse" x="480.1" y="1431.9" width="235.6" height="71.6">
								<feFlood  style="flood-color:white;flood-opacity:1" result="back"/>
								<feBlend  in="SourceGraphic" in2="back" mode="normal"/>
							</filter>
						</defs>
						<mask maskUnits="userSpaceOnUse" x="480.1" y="1431.9" width="235.6" height="71.6" id="SVGID_25_">
							<g class="st55">
							</g>
						</mask>
						<linearGradient id="SVGID_26_" gradientUnits="userSpaceOnUse" x1="606.4102" y1="1532.7451" x2="594.7951" y2="1429.1637">
							<stop  offset="0" style="stop-color:#000000"/>
							<stop  offset="0.9944" style="stop-color:#FFFFFF"/>
						</linearGradient>
						<path class="st56" d="M715.7,1482.4l-40.1,5.7l-4-3.3c-13.2-10.8-29.7-16.7-46.7-16.7h-17c-9.4,0-13.7,11.8-6.4,17.8
							l13.3,10.9l-47.6,6.8l-87.1-71.6h174.2L715.7,1482.4z"/>
					</g>
				</mask>
				<linearGradient id="SVGID_27_" gradientUnits="userSpaceOnUse" x1="606.4102" y1="1532.7451" x2="594.7951" y2="1429.1637">
					<stop  offset="0" style="stop-color:#DF7572"/>
					<stop  offset="0.9944" style="stop-color:#A52420"/>
				</linearGradient>
				<path class="st57" d="M715.7,1482.4l-40.1,5.7l-4-3.3c-13.2-10.8-29.7-16.7-46.7-16.7h-17c-9.4,0-13.7,11.8-6.4,17.8l13.3,10.9
					l-47.6,6.8l-87.1-71.6h174.2L715.7,1482.4z"/>
			</g>
		</g>
	</g>
</g>
</svg>
