<svg id="Layer_1" data-name="Layer 1" xmlns="http://www.w3.org/2000/svg" xmlns:xlink="http://www.w3.org/1999/xlink" viewBox="0 0 1399 1513"><defs><style>.cls-1,.cls-2{fill:none;}.cls-2{clip-path:url(#clip-path);}.cls-3{fill:#f7bdcd;}.cls-4{fill:#fff;}.cls-5,.cls-7{fill:#ec668b;}.cls-6{fill:#f294a9;}.cls-7{opacity:0.33;}.cls-10,.cls-25,.cls-28,.cls-30,.cls-35,.cls-45,.cls-46,.cls-47,.cls-48,.cls-7{isolation:isolate;}.cls-8{fill:#f18871;}.cls-9{fill:url(#linear-gradient);}.cls-10,.cls-11{fill:#ca8975;}.cls-10{opacity:0.25;}.cls-12{fill:url(#linear-gradient-2);}.cls-13,.cls-28,.cls-30{fill:#f2928d;}.cls-14{fill:#af543f;}.cls-15{fill:url(#linear-gradient-3);}.cls-16{fill:url(#linear-gradient-4);}.cls-17{fill:#f8dbbd;}.cls-18{fill:url(#linear-gradient-5);}.cls-19{fill:url(#linear-gradient-6);}.cls-20{fill:#46161c;}.cls-21{fill:url(#linear-gradient-7);}.cls-22{fill:#872d1d;}.cls-23{fill:url(#linear-gradient-8);}.cls-24{fill:#a13324;}.cls-25{fill:#d45951;}.cls-25,.cls-30,.cls-45,.cls-46,.cls-47,.cls-48,.cls-49{opacity:0.75;}.cls-26{fill:url(#linear-gradient-9);}.cls-27{fill:#facdbb;}.cls-28{opacity:0.2;}.cls-29,.cls-35{fill:#fce9d8;}.cls-31,.cls-35{opacity:0.5;}.cls-32{clip-path:url(#clip-path-3);}.cls-33{fill:url(#linear-gradient-10);}.cls-34{fill:url(#linear-gradient-11);}.cls-36{fill:#651f1c;}.cls-37{fill:#9f5552;}.cls-38{fill:#020203;}.cls-39{fill:url(#linear-gradient-12);}.cls-40{fill:#872926;}.cls-41{fill:url(#linear-gradient-13);}.cls-42{fill:#fdf4eb;}.cls-43{fill:#fae4ce;}.cls-44{fill:#f8d1ae;}.cls-45{fill:url(#linear-gradient-14);}.cls-46{fill:url(#linear-gradient-15);}.cls-47{fill:url(#linear-gradient-16);}.cls-48{fill:url(#linear-gradient-17);}.cls-50{fill:url(#linear-gradient-18);}.cls-51{fill:url(#linear-gradient-19);}.cls-52{fill:url(#linear-gradient-20);}.cls-53{fill:url(#linear-gradient-21);}.cls-54{fill:url(#linear-gradient-22);}.cls-55{fill:url(#linear-gradient-23);}.cls-56{fill:url(#linear-gradient-24);}.cls-57{fill:url(#linear-gradient-25);}</style><clipPath id="clip-path"><polygon class="cls-1" points="1 1 2 1 1 2 1 1"/></clipPath><linearGradient id="linear-gradient" x1="626.53" y1="410.65" x2="1032.5" y2="410.65" gradientTransform="matrix(1, 0, 0, -1, 0, 1800)" gradientUnits="userSpaceOnUse"><stop offset="0.01" stop-color="#edbd9f"/><stop offset="1" stop-color="#f7d5ad"/></linearGradient><linearGradient id="linear-gradient-2" x1="1034.31" y1="333.22" x2="1157.52" y2="333.22" gradientTransform="matrix(1, 0, 0, -1, 0, 1800)" gradientUnits="userSpaceOnUse"><stop offset="0.01" stop-color="#f8bc9f"/><stop offset="1" stop-color="#f49e7e"/></linearGradient><linearGradient id="linear-gradient-3" x1="578.74" y1="575.15" x2="658.52" y2="575.15" xlink:href="#linear-gradient-2"/><linearGradient id="linear-gradient-4" x1="651.79" y1="628.28" x2="1121.01" y2="628.28" xlink:href="#linear-gradient"/><linearGradient id="linear-gradient-5" x1="564.88" y1="730.57" x2="688.68" y2="730.57" xlink:href="#linear-gradient-2"/><linearGradient id="linear-gradient-6" x1="701.3" y1="978.4" x2="878.77" y2="978.4" xlink:href="#linear-gradient-2"/><linearGradient id="linear-gradient-7" x1="849.52" y1="1015.33" x2="896.01" y2="1015.33" xlink:href="#linear-gradient-2"/><linearGradient id="linear-gradient-8" x1="673.4" y1="333.69" x2="1108.21" y2="333.69" xlink:href="#linear-gradient"/><linearGradient id="linear-gradient-9" x1="741.74" y1="949.53" x2="741.74" y2="963.04" gradientTransform="matrix(1, 0, 0, -1, 0, 1800)" gradientUnits="userSpaceOnUse"><stop offset="0.01" stop-color="#f2928d"/><stop offset="1" stop-color="#f5a889"/></linearGradient><clipPath id="clip-path-3" transform="translate(-48 -263)"><polygon class="cls-2" points="-1 -1 -2 -1 -1 -2 -1 -1"/></clipPath><linearGradient id="linear-gradient-10" x1="791.6" y1="1092.6" x2="901.7" y2="1092.6" gradientTransform="matrix(1, 0, 0, -1, 0, 1800)" gradientUnits="userSpaceOnUse"><stop offset="0"/><stop offset="1" stop-color="#fff"/></linearGradient><linearGradient id="linear-gradient-11" x1="791.6" y1="1092.6" x2="901.7" y2="1092.6" gradientTransform="matrix(1, 0, 0, -1, 0, 1800)" gradientUnits="userSpaceOnUse"><stop offset="0" stop-color="#38130f"/><stop offset="1" stop-color="#38130f"/></linearGradient><linearGradient id="linear-gradient-12" x1="466" y1="323.5" x2="762.8" y2="323.5" gradientTransform="matrix(1, 0, 0, -1, 0, 1800)" gradientUnits="userSpaceOnUse"><stop offset="0.01" stop-color="#cf4843"/><stop offset="1" stop-color="#df7572"/></linearGradient><linearGradient id="linear-gradient-13" x1="465.9" y1="412.7" x2="762.8" y2="412.7" gradientTransform="matrix(1, 0, 0, -1, -48.48, 1536.92)" xlink:href="#linear-gradient-12"/><linearGradient id="linear-gradient-14" x1="387.5" y1="427.2" x2="462" y2="427.2" xlink:href="#linear-gradient-12"/><linearGradient id="linear-gradient-15" x1="382.1" y1="419.75" x2="461.99" y2="419.75" xlink:href="#linear-gradient-12"/><linearGradient id="linear-gradient-16" x1="469.5" y1="425.25" x2="541.7" y2="425.25" xlink:href="#linear-gradient-12"/><linearGradient id="linear-gradient-17" x1="468.6" y1="417.3" x2="540.3" y2="417.3" xlink:href="#linear-gradient-12"/><linearGradient id="linear-gradient-18" x1="412.89" y1="436.04" x2="466.65" y2="436.04" xlink:href="#linear-gradient-12"/><linearGradient id="linear-gradient-19" x1="435.12" y1="439.04" x2="484.5" y2="439.04" xlink:href="#linear-gradient-12"/><linearGradient id="linear-gradient-20" x1="457.32" y1="443.89" x2="498.1" y2="443.89" xlink:href="#linear-gradient-12"/><linearGradient id="linear-gradient-21" x1="479.58" y1="447.89" x2="510.86" y2="447.89" xlink:href="#linear-gradient-12"/><linearGradient id="linear-gradient-22" x1="501.82" y1="451.24" x2="523.03" y2="451.24" xlink:href="#linear-gradient-12"/><linearGradient id="linear-gradient-23" x1="524.02" y1="453.99" x2="534.98" y2="453.99" xlink:href="#linear-gradient-12"/><linearGradient id="linear-gradient-24" x1="606.37" y1="267.25" x2="594.76" y2="370.83" gradientTransform="matrix(1, 0, 0, -1, 0, 1800)" gradientUnits="userSpaceOnUse"><stop offset="0"/><stop offset="0.99" stop-color="#fff"/></linearGradient><linearGradient id="linear-gradient-25" x1="606.37" y1="267.25" x2="594.76" y2="370.83" gradientTransform="matrix(1, 0, 0, -1, 0, 1800)" gradientUnits="userSpaceOnUse"><stop offset="0" stop-color="#df7572"/><stop offset="0.99" stop-color="#a52420"/></linearGradient></defs><title>pray_png</title><path class="cls-3" d="M0,0H0V1102C0,0,321,0,0,0Z" transform="translate(-48 -263)"/><path class="cls-4" d="M0,0Z" transform="translate(-48 -263)"/><path class="cls-4" d="M0,0Z" transform="translate(-48 -263)"/><path class="cls-3" d="M0,899V0H0Z" transform="translate(-48 -263)"/><path class="cls-4" d="M0,0H0C421,0,0,0,0,844,0,686,451,0,0,0Z" transform="translate(-48 -263)"/><path class="cls-3" d="M0,0H0V0Z" transform="translate(-48 -263)"/><path class="cls-4" d="M0,0H0V0Z" transform="translate(-48 -263)"/><path class="cls-4" d="M0,0Z" transform="translate(-48 -263)"/><path class="cls-4" d="M0,0H0V0Z" transform="translate(-48 -263)"/><path class="cls-4" d="M1362,0H0S0,759,1442,0h-80Z" transform="translate(-48 -263)"/><path class="cls-4" d="M0,0H0S1296,848,0,848V0Z" transform="translate(-48 -263)"/><path class="cls-4" d="M0,0V1586H0V0Z" transform="translate(-48 -263)"/><path class="cls-3" d="M0,0Z" transform="translate(-48 -263)"/><path class="cls-3" d="M0,0H0L820,1626C0,1626,0,0,0,0V0Z" transform="translate(-48 -263)"/><path class="cls-3" d="M0,0H0V0Z" transform="translate(-48 -263)"/><path class="cls-3" d="M693,0h0Z" transform="translate(-48 -263)"/><path class="cls-3" d="M0,0Z" transform="translate(-48 -263)"/><path class="cls-3" d="M0,0Z" transform="translate(-48 -263)"/><path class="cls-4" d="M0,0C698,0,0,1676,0,1676,661,1676,657,0,654,0ZM698,0h0Z" transform="translate(-48 -263)"/><path class="cls-4" d="M0,0C825,0,0,1677,0,1677V0ZM0,0Z" transform="translate(-48 -263)"/><path class="cls-4" d="M0,0H908C905,0,0,1666,0,0V0ZM952,0h0Z" transform="translate(-48 -263)"/><path class="cls-4" d="M0,0ZM0,0Z" transform="translate(-48 -263)"/><path class="cls-4" d="M0,0ZM792,0h0Z" transform="translate(-48 -263)"/><path class="cls-4" d="M0,0ZM0,0Z" transform="translate(-48 -263)"/><path class="cls-3" d="M0,0Z" transform="translate(-48 -263)"/><path class="cls-4" d="M0,0H0V0H0V0ZM0,333C0,0,0,0,956,0H0Z" transform="translate(-48 -263)"/><path class="cls-4" d="M0,0ZM0,0Z" transform="translate(-48 -263)"/><path class="cls-4" d="M0,0H0L1133,438,0,0ZM0,0Z" transform="translate(-48 -263)"/><path class="cls-4" d="M0,0ZM0,0Z" transform="translate(-48 -263)"/><path class="cls-4" d="M0,0H0V0ZM0,468V0H0Z" transform="translate(-48 -263)"/><path class="cls-4" d="M0,0H0V0ZM0,0H0Z" transform="translate(-48 -263)"/><rect class="cls-5" x="256" y="1113" width="887" height="207.1"/><rect class="cls-6" x="267" y="1128" width="864" height="170.5"/><polygon class="cls-3" points="322 1298 296 1298 309 1289 322 1298"/><polygon class="cls-3" points="346 1247 309 1273 272 1247 309 1221 346 1247"/><polygon class="cls-3" points="346 1179 309 1205 272 1179 309 1153 346 1179"/><polygon class="cls-3" points="322 1128 309 1137 296 1128 322 1128"/><polygon class="cls-3" points="409 1298 383 1298 396 1289 409 1298"/><polygon class="cls-3" points="433 1247 396 1273 359 1247 396 1221 433 1247"/><polygon class="cls-3" points="433 1179 396 1205 359 1179 396 1153 433 1179"/><polygon class="cls-3" points="409 1128 396 1137 383 1128 409 1128"/><polygon class="cls-3" points="495 1298 470 1298 483 1289 495 1298"/><polygon class="cls-3" points="519 1247 483 1273 446 1247 483 1221 519 1247"/><polygon class="cls-3" points="519 1179 483 1205 446 1179 483 1153 519 1179"/><polygon class="cls-3" points="495 1128 483 1137 470 1128 495 1128"/><polygon class="cls-3" points="582 1298 557 1298 569 1289 582 1298"/><polygon class="cls-3" points="606 1247 569 1273 532 1247 569 1221 606 1247"/><polygon class="cls-3" points="606 1179 569 1205 532 1179 569 1153 606 1179"/><polygon class="cls-3" points="582 1128 569 1137 557 1128 582 1128"/><polygon class="cls-3" points="669 1298 643 1298 656 1289 669 1298"/><polygon class="cls-3" points="693 1247 656 1273 619 1247 656 1221 693 1247"/><polygon class="cls-3" points="693 1179 656 1205 619 1179 656 1153 693 1179"/><polygon class="cls-3" points="669 1128 656 1137 643 1128 669 1128"/><polygon class="cls-3" points="756 1298 730 1298 743 1289 756 1298"/><polygon class="cls-3" points="780 1247 743 1273 706 1247 743 1221 780 1247"/><polygon class="cls-3" points="780 1179 743 1205 706 1179 743 1153 780 1179"/><polygon class="cls-3" points="756 1128 743 1137 730 1128 756 1128"/><polygon class="cls-3" points="843 1298 817 1298 830 1289 843 1298"/><polygon class="cls-3" points="867 1247 830 1273 793 1247 830 1221 867 1247"/><polygon class="cls-3" points="867 1179 830 1205 793 1179 830 1153 867 1179"/><polygon class="cls-3" points="843 1128 830 1137 817 1128 843 1128"/><polygon class="cls-3" points="929 1298 904 1298 917 1289 929 1298"/><polygon class="cls-3" points="954 1247 917 1273 880 1247 917 1221 954 1247"/><polygon class="cls-3" points="954 1179 917 1205 880 1179 917 1153 954 1179"/><polygon class="cls-3" points="929 1128 917 1137 904 1128 929 1128"/><polygon class="cls-3" points="1016 1298 991 1298 1003 1289 1016 1298"/><polygon class="cls-3" points="1040 1247 1003 1273 967 1247 1003 1221 1040 1247"/><polygon class="cls-3" points="1040 1179 1003 1205 967 1179 1003 1153 1040 1179"/><polygon class="cls-3" points="1016 1128 1003 1137 991 1128 1016 1128"/><polygon class="cls-3" points="1103 1298 1077 1298 1090 1289 1103 1298"/><polygon class="cls-3" points="1127 1247 1090 1273 1053 1247 1090 1221 1127 1247"/><polygon class="cls-3" points="1127 1179 1090 1205 1053 1179 1090 1153 1127 1179"/><polygon class="cls-3" points="1103 1128 1090 1137 1077 1128 1103 1128"/><path class="cls-7" d="M0,0Z" transform="translate(-48 -263)"/><path class="cls-8" d="M0,0S0,1509,1005,0Z" transform="translate(-48 -263)"/><path class="cls-8" d="M0,0H0V0H0C0,1455,1121,0,0,0Z" transform="translate(-48 -263)"/><path class="cls-9" d="M0,0Z" transform="translate(-48 -263)"/><path class="cls-10" d="M0,0Z" transform="translate(-48 -263)"/><path class="cls-11" d="M0,0H0V0Z" transform="translate(-48 -263)"/><path class="cls-11" d="M0,0Z" transform="translate(-48 -263)"/><path class="cls-12" d="M0,0H0V0Z" transform="translate(-48 -263)"/><path class="cls-13" d="M579,0,0,1267C0,1268,0,0,550,0H0V0H579Z" transform="translate(-48 -263)"/><path class="cls-14" d="M0,0Z" transform="translate(-48 -263)"/><path class="cls-13" d="M0,1206V0H0Z" transform="translate(-48 -263)"/><path class="cls-11" d="M0,0H0V1198C0,0,650,0,0,0H0V1201C0,0,653,0,0,0H0V0Z" transform="translate(-48 -263)"/><path class="cls-13" d="M0,0Z" transform="translate(-48 -263)"/><path class="cls-13" d="M0,0H0V0Z" transform="translate(-48 -263)"/><path class="cls-13" d="M0,0Z" transform="translate(-48 -263)"/><path class="cls-13" d="M0,0H0V0Z" transform="translate(-48 -263)"/><path class="cls-15" d="M0,0H0V0H0V0Z" transform="translate(-48 -263)"/><path class="cls-16" d="M0,0H0V0H0V0H0V0Z" transform="translate(-48 -263)"/><path class="cls-13" d="M0,0H573S554,0,0,1071V0Z" transform="translate(-48 -263)"/><path class="cls-11" d="M0,0H0C644,0,0,1123,0,0Z" transform="translate(-48 -263)"/><path class="cls-17" d="M0,0H0V0H0V0Z" transform="translate(-48 -263)"/><path class="cls-18" d="M0,0H0C590,0,0,0,0,1024V0Z" transform="translate(-48 -263)"/><path class="cls-17" d="M0,0H0V893H0V0H0V0H0V0Z" transform="translate(-48 -263)"/><path class="cls-17" d="M0,0Z" transform="translate(-48 -263)"/><path class="cls-13" d="M0,0Z" transform="translate(-48 -263)"/><path class="cls-19" d="M0,0H0V0Z" transform="translate(-48 -263)"/><path class="cls-20" d="M0,0H0C892,0,0,797,0,797V0H0V0H0V749C0,0,0,0,854,0,0,0,857,748,0,0Z" transform="translate(-48 -263)"/><path class="cls-21" d="M0,0S886,0,0,816V0Z" transform="translate(-48 -263)"/><path class="cls-13" d="M0,0H0Z" transform="translate(-48 -263)"/><path class="cls-22" d="M0,0H0V0H0V0H0V0Z" transform="translate(-48 -263)"/><path class="cls-23" d="M1084,0H0V0H0V0H1084Z" transform="translate(-48 -263)"/><path class="cls-24" d="M0,726V0H899C0,0,0,0,0,726Z" transform="translate(-48 -263)"/><path class="cls-24" d="M0,0H0V0Z" transform="translate(-48 -263)"/><path class="cls-25" d="M0,0H0V0Z" transform="translate(-48 -263)"/><path class="cls-11" d="M0,0H0V0Z" transform="translate(-48 -263)"/><path class="cls-10" d="M0,0H0V0Z" transform="translate(-48 -263)"/><path class="cls-26" d="M0,0Z" transform="translate(-48 -263)"/><path class="cls-27" d="M0,0H738C0,0,0,838,0,0Z" transform="translate(-48 -263)"/><path class="cls-27" d="M0,0Z" transform="translate(-48 -263)"/><path class="cls-25" d="M0,0Z" transform="translate(-48 -263)"/><path class="cls-20" d="M0,0Z" transform="translate(-48 -263)"/><path class="cls-25" d="M0,0H0L709,800,0,0Z" transform="translate(-48 -263)"/><path class="cls-20" d="M0,0H709L0,778V0H0V773H0V0Z" transform="translate(-48 -263)"/><path class="cls-28" d="M0,0Z" transform="translate(-48 -263)"/><path class="cls-28" d="M0,0Z" transform="translate(-48 -263)"/><path class="cls-25" d="M0,0Z" transform="translate(-48 -263)"/><path class="cls-25" d="M0,0H0V0Z" transform="translate(-48 -263)"/><path class="cls-24" d="M0,0Z" transform="translate(-48 -263)"/><path class="cls-13" d="M0,0Z" transform="translate(-48 -263)"/><path class="cls-5" d="M0,0H659C0,1155,0,1155,0,0Z" transform="translate(-48 -263)"/><path class="cls-5" d="M0,1124C0,0,670,0,0,0H671C0,1116,0,0,0,0V0H664C663,0,0,1111,0,0H0V0H0Z" transform="translate(-48 -263)"/><path class="cls-5" d="M0,0H0V0Z" transform="translate(-48 -263)"/><path class="cls-5" d="M0,0Z" transform="translate(-48 -263)"/><path class="cls-5" d="M639,0H0C0,1163,0,0,639,0Z" transform="translate(-48 -263)"/><path class="cls-5" d="M0,0Z" transform="translate(-48 -263)"/><path class="cls-5" d="M0,0H0S600,0,0,1182V0H0Z" transform="translate(-48 -263)"/><path class="cls-5" d="M0,0V0H0C552,0,554,1146,0,0H0V0Z" transform="translate(-48 -263)"/><path class="cls-5" d="M0,0Z" transform="translate(-48 -263)"/><path class="cls-5" d="M0,0H0Z" transform="translate(-48 -263)"/><path class="cls-5" d="M555,1122,0,0H0Z" transform="translate(-48 -263)"/><path class="cls-5" d="M0,0H0V1074C547,0,0,0,546,0Z" transform="translate(-48 -263)"/><path class="cls-5" d="M0,0Z" transform="translate(-48 -263)"/><path class="cls-5" d="M0,0H0V0Z" transform="translate(-48 -263)"/><path class="cls-5" d="M0,0H0V0Z" transform="translate(-48 -263)"/><path class="cls-5" d="M0,0S622,0,0,1055V0Z" transform="translate(-48 -263)"/><path class="cls-5" d="M641,0H0L642,1097C0,0,0,0,643,0,0,0,0,1099,0,0H641Z" transform="translate(-48 -263)"/><path class="cls-13" d="M0,0Z" transform="translate(-48 -263)"/><path class="cls-10" d="M0,0Z" transform="translate(-48 -263)"/><path class="cls-10" d="M0,0Z" transform="translate(-48 -263)"/><path class="cls-29" d="M946,0H0C0,1142,704,0,0,0H946Z" transform="translate(-48 -263)"/><path class="cls-30" d="M0,0Z" transform="translate(-48 -263)"/><g id="SVGID"><g class="cls-32"><path class="cls-33" d="M0,0Z" transform="translate(-48 -263)"/></g></g><path class="cls-34" d="M0,0Z" transform="translate(-48 -263)"/><path class="cls-35" d="M0,0H0Z" transform="translate(-48 -263)"/><path class="cls-36" d="M0,0Z" transform="translate(-48 -263)"/><path class="cls-37" d="M0,0Z" transform="translate(-48 -263)"/><path class="cls-36" d="M0,0Z" transform="translate(-48 -263)"/><path class="cls-36" d="M0,0Z" transform="translate(-48 -263)"/><polygon class="cls-4" points="606 1169 417 1169 309 1080 497 1080 606 1169"/><path class="cls-38" d="M0,0H0V1342H0ZM0,0Z" transform="translate(-48 -263)"/><path class="cls-39" d="M0,0Z" transform="translate(-48 -263)"/><path class="cls-40" d="M0,0C0,1529,577,0,0,0H0C584,0,0,1523,0,0Z" transform="translate(-48 -263)"/><polygon class="cls-41" points="714 1080 606 1169 417 1169 526 1080 714 1080"/><path class="cls-40" d="M0,0H0V0Z" transform="translate(-48 -263)"/><path class="cls-36" d="M0,0Z" transform="translate(-48 -263)"/><polygon class="cls-42" points="338 1072 497 1077 505 1086 417 1157 338 1072"/><path class="cls-43" d="M0,0H0V0Z" transform="translate(-48 -263)"/><path class="cls-44" d="M0,0Z" transform="translate(-48 -263)"/><polygon class="cls-42" points="495 1082 509 1082 501 1089 495 1082"/><path class="cls-45" d="M0,0H0C0,1359,0,0,428,0,0,1374,0,0,0,0H0C0,1346,391,0,0,0Z" transform="translate(-48 -263)"/><path class="cls-46" d="M0,0H0V1403C0,0,448,0,445,0Z" transform="translate(-48 -263)"/><path class="cls-47" d="M0,0H0V0H0V1392C475,0,0,0,0,0Z" transform="translate(-48 -263)"/><path class="cls-48" d="M0,0H521C0,1371,0,0,0,0Z" transform="translate(-48 -263)"/><polygon class="cls-5" points="326 1078 417 1154 417 1157 323 1080 326 1078"/><polygon class="cls-5" points="417 1157 501 1088 500 1087 417 1154 417 1157"/><path class="cls-50" d="M0,0Z" transform="translate(-48 -263)"/><path class="cls-51" d="M0,1382V0H0Z" transform="translate(-48 -263)"/><path class="cls-52" d="M0,0S0,1372,497,0C0,1353,0,0,0,0H0V0Z" transform="translate(-48 -263)"/><path class="cls-53" d="M0,0Z" transform="translate(-48 -263)"/><path class="cls-54" d="M523,0H0S523,1355,523,0Z" transform="translate(-48 -263)"/><path class="cls-55" d="M535,0C0,1349,0,0,0,0H0S524,0,0,1343V0H535Z" transform="translate(-48 -263)"/><path class="cls-4" d="M662,0H0V1369C0,0,623,0,0,0H662Z" transform="translate(-48 -263)"/><polygon class="cls-4" points="598 1109 605 1113 611 1110 610 1115 616 1119 608 1119 607 1124 603 1119 595 1118 601 1115 598 1109"/><polygon class="cls-36" points="441 1177 426 1187 418 1180 432 1169 441 1177"/><g id="SVGID-2" data-name="SVGID"><g class="cls-32"><path class="cls-56" d="M0,0Z" transform="translate(-48 -263)"/></g></g><path class="cls-57" d="M0,0Z" transform="translate(-48 -263)"/></svg>