<?xml version="1.0" standalone="no"?>
<!DOCTYPE svg PUBLIC "-//W3C//DTD SVG 20010904//EN"
 "http://www.w3.org/TR/2001/REC-SVG-20010904/DTD/svg10.dtd">
<svg version="1.0" xmlns="http://www.w3.org/2000/svg"
 width="512.000000pt" height="512.000000pt" viewBox="0 0 512.000000 512.000000"
 preserveAspectRatio="xMidYMid meet">

<g transform="translate(0.000000,512.000000) scale(0.100000,-0.100000)"
fill="#000000" stroke="none">
<path d="M2400 4697 c-69 -35 -182 -96 -252 -136 l-128 -72 0 -263 c0 -238 2
-264 18 -278 9 -8 105 -60 212 -116 107 -55 214 -111 237 -124 l43 -23 152 79
c84 44 199 103 255 130 l102 51 0 277 1 278 -101 51 c-56 28 -166 86 -245 130
-78 43 -149 79 -156 79 -8 0 -70 -28 -138 -63z"/>
<path d="M2420 3124 c-146 -39 -264 -163 -305 -319 -22 -88 -20 -112 13 -128
68 -35 69 -35 74 45 6 93 33 154 95 216 96 96 217 124 354 83 61 -19 80 -31
128 -79 75 -75 96 -141 89 -269 -6 -108 -23 -147 -113 -268 -37 -49 -83 -119
-102 -155 -108 -197 -124 -214 -210 -207 l-51 3 -4 -39 c-5 -48 17 -67 80 -67
91 0 150 53 241 213 30 53 78 125 107 159 112 131 159 260 152 418 -5 114 -30
178 -103 258 -116 127 -285 179 -445 136z"/>
<path d="M2443 2982 c-124 -44 -203 -154 -203 -284 0 -26 5 -50 11 -54 21 -13
81 49 93 97 17 65 49 104 112 135 44 22 63 25 99 21 73 -10 109 -31 142 -80
38 -58 47 -110 29 -171 l-14 -46 53 0 c63 0 69 9 68 106 -1 191 -212 340 -390
276z"/>
<path d="M730 1973 l0 -169 1257 -664 c691 -366 1297 -688 1347 -716 50 -28
101 -55 114 -58 l22 -7 0 163 0 163 -1362 725 c-749 399 -1365 727 -1370 728
-4 2 -8 -72 -8 -165z"/>
<path d="M3530 1686 c-465 -248 -854 -457 -865 -464 -11 -7 -15 -15 -10 -18 6
-2 68 -36 139 -74 70 -39 139 -70 153 -70 13 0 226 108 471 239 246 131 564
301 707 378 l260 138 3 163 c1 89 -1 162 -5 161 -5 -1 -388 -204 -853 -453z"/>
<path d="M2001 874 c-63 -36 -172 -95 -242 -132 l-129 -66 0 -158 c0 -100 4
-158 10 -158 16 0 215 102 465 238 127 69 258 138 293 155 34 16 62 34 62 41
0 6 -26 23 -57 38 -32 15 -91 45 -131 68 -106 58 -129 56 -271 -26z"/>
</g>
</svg>
